<svg width="691" height="551" viewBox="0 0 691 551" fill="none" xmlns="http://www.w3.org/2000/svg">
<path d="M436.38 550.16L258.19 547.88L258.71 543.31L267.33 467.92H423.82L435.33 543.31L436.21 549.02L436.38 550.16Z" fill="rgba(0,0,0,0.74)"></path>
<path opacity="0.1" d="M436.21 549.02H347.28L258.19 547.88L258.71 543.31H435.33L436.21 549.02Z" fill="rgba(0,0,0,0.74)"></path>
<path d="M464.94 544.45H228.49V550.16H464.94V544.45Z" fill="rgba(61,61,61,1)"></path>
<path d="M690.54 15.1099C690.549 13.1572 690.174 11.2217 689.435 9.41406C688.696 7.60642 687.609 5.962 686.234 4.57469C684.86 3.18738 683.226 2.08436 681.425 1.32858C679.625 0.57281 677.693 0.179093 675.74 0.169922H15.42C13.4672 0.179093 11.5354 0.57281 9.73479 1.32858C7.93418 2.08436 6.30007 3.18738 4.92576 4.57469C3.55145 5.962 2.46385 7.60642 1.72506 9.41406C0.986278 11.2217 0.610763 13.1572 0.619978 15.1099V415.37H690.54V15.1099Z" fill="rgba(61,61,61,1)"></path>
<path d="M0.619995 411.38V458.26C0.619995 462.185 2.1793 465.95 4.95483 468.725C7.73037 471.501 11.4948 473.06 15.42 473.06H675.74C679.665 473.06 683.43 471.501 686.205 468.725C688.981 465.95 690.54 462.185 690.54 458.26V411.38H0.619995Z" fill="rgba(61,61,61,1)"></path>
<path d="M665.4 25.3H29.17V385.11H665.4V25.3Z" fill="rgba(0,0,0,0.74)"></path>
<path d="M348.97 455.27C351.306 455.273 353.612 454.744 355.714 453.723C357.815 452.703 359.657 451.217 361.1 449.38C361.541 448.819 361.942 448.227 362.3 447.61L353.84 446.22L362.99 446.29C363.866 444.38 364.344 442.311 364.395 440.211C364.447 438.11 364.071 436.021 363.29 434.07L351.01 440.44L362.33 432.12C361.267 430.293 359.839 428.703 358.136 427.451C356.433 426.199 354.49 425.31 352.429 424.84C350.368 424.37 348.232 424.329 346.154 424.719C344.076 425.11 342.101 425.923 340.351 427.109C338.601 428.295 337.113 429.828 335.981 431.613C334.848 433.399 334.095 435.397 333.768 437.486C333.44 439.575 333.546 441.708 334.078 443.754C334.61 445.8 335.557 447.715 336.86 449.38V449.38C338.301 451.215 340.139 452.698 342.237 453.719C344.335 454.739 346.637 455.269 348.97 455.27Z" fill="rgba(0,0,0,0.74)"></path>
<path opacity="0.1" d="M364.42 473.06L435.51 544.45L424.6 473.06H364.42Z" fill="rgba(0,0,0,0.74)"></path>
<path opacity="0.3" d="M78.58 164.11H57.43V170.53H78.58V164.11Z" fill="rgba(0,0,0,0.74)"></path>
<path opacity="0.3" d="M642.93 164.3H621.78V170.72H642.93V164.3Z" fill="rgba(0,0,0,0.74)"></path>
<path opacity="0.3" d="M78.77 209.24H57.62V215.66H78.77V209.24Z" fill="rgba(0,0,0,0.74)"></path>
<path opacity="0.3" d="M78.96 254.37H57.81V260.79H78.96V254.37Z" fill="rgba(0,0,0,0.74)"></path>
<path opacity="0.3" d="M79.15 299.49H58V305.91H79.15V299.49Z" fill="rgba(0,0,0,0.74)"></path>
<g opacity="0.2">
<path opacity="0.2" d="M84.58 167.2H78.58V167.45H84.58V167.2Z" fill="#F2F2F2"></path>
<path opacity="0.2" d="M603.61 167.45H591.82V167.2H603.61V167.45ZM580.02 167.45H568.23V167.2H580.02V167.45ZM556.43 167.45H544.63V167.2H556.43V167.45ZM532.84 167.45H521.04V167.2H532.84V167.45ZM509.25 167.45H497.45V167.2H509.25V167.45ZM485.65 167.45H473.86V167.2H485.65V167.45ZM462.06 167.45H450.26V167.2H462.06V167.45ZM438.47 167.45H426.67V167.2H438.47V167.45ZM414.88 167.45H403.08V167.2H414.88V167.45ZM391.28 167.45H379.49V167.2H391.28V167.45ZM367.69 167.45H355.89V167.2H367.69V167.45ZM344.1 167.45H332.3V167.2H344.1V167.45ZM320.51 167.45H308.71V167.2H320.51V167.45ZM296.91 167.45H285.12V167.2H296.91V167.45ZM273.32 167.45H261.53V167.2H273.32V167.45ZM249.73 167.45H237.97V167.2H249.77L249.73 167.45ZM226.14 167.45H214.34V167.2H226.14V167.45ZM202.54 167.45H190.75V167.2H202.54V167.45ZM178.95 167.45H167.16V167.2H178.97L178.95 167.45ZM155.36 167.45H143.56V167.2H155.36V167.45ZM131.77 167.45H119.97V167.2H131.77V167.45ZM108.17 167.45H96.38V167.2H108.17V167.45Z" fill="#F2F2F2"></path>
<path opacity="0.2" d="M621.41 167.2H615.41V167.45H621.41V167.2Z" fill="#F2F2F2"></path>
<path opacity="0.2" d="M84.58 167.2H78.58V167.45H84.58V167.2Z" fill="#F2F2F2"></path>
<path opacity="0.2" d="M603.61 167.45H591.82V167.2H603.61V167.45ZM580.02 167.45H568.23V167.2H580.02V167.45ZM556.43 167.45H544.63V167.2H556.43V167.45ZM532.84 167.45H521.04V167.2H532.84V167.45ZM509.25 167.45H497.45V167.2H509.25V167.45ZM485.65 167.45H473.86V167.2H485.65V167.45ZM462.06 167.45H450.26V167.2H462.06V167.45ZM438.47 167.45H426.67V167.2H438.47V167.45ZM414.88 167.45H403.08V167.2H414.88V167.45ZM391.28 167.45H379.49V167.2H391.28V167.45ZM367.69 167.45H355.89V167.2H367.69V167.45ZM344.1 167.45H332.3V167.2H344.1V167.45ZM320.51 167.45H308.71V167.2H320.51V167.45ZM296.91 167.45H285.12V167.2H296.91V167.45ZM273.32 167.45H261.53V167.2H273.32V167.45ZM249.73 167.45H237.97V167.2H249.77L249.73 167.45ZM226.14 167.45H214.34V167.2H226.14V167.45ZM202.54 167.45H190.75V167.2H202.54V167.45ZM178.95 167.45H167.16V167.2H178.97L178.95 167.45ZM155.36 167.45H143.56V167.2H155.36V167.45ZM131.77 167.45H119.97V167.2H131.77V167.45ZM108.17 167.45H96.38V167.2H108.17V167.45Z" fill="#F2F2F2"></path>
<path opacity="0.2" d="M621.41 167.2H615.41V167.45H621.41V167.2Z" fill="#F2F2F2"></path>
</g>
<path opacity="0.3" d="M78.58 119.11H57.43V125.53H78.58V119.11Z" fill="rgba(0,0,0,0.74)"></path>
<path opacity="0.3" d="M642.93 119.3H621.78V125.72H642.93V119.3Z" fill="rgba(0,0,0,0.74)"></path>
<g opacity="0.2">
<path opacity="0.2" d="M84.58 122.2H78.58V122.45H84.58V122.2Z" fill="#F2F2F2"></path>
<path opacity="0.2" d="M603.61 122.45H591.82V122.2H603.61V122.45ZM580.02 122.45H568.23V122.2H580.02V122.45ZM556.43 122.45H544.63V122.2H556.43V122.45ZM532.84 122.45H521.04V122.2H532.84V122.45ZM509.25 122.45H497.45V122.2H509.25V122.45ZM485.65 122.45H473.86V122.2H485.65V122.45ZM462.06 122.45H450.26V122.2H462.06V122.45ZM438.47 122.45H426.67V122.2H438.47V122.45ZM414.88 122.45H403.08V122.2H414.88V122.45ZM391.28 122.45H379.49V122.2H391.28V122.45ZM367.69 122.45H355.89V122.2H367.69V122.45ZM344.1 122.45H332.3V122.2H344.1V122.45ZM320.51 122.45H308.71V122.2H320.51V122.45ZM296.91 122.45H285.12V122.2H296.91V122.45ZM273.32 122.45H261.53V122.2H273.32V122.45ZM249.73 122.45H237.97V122.2H249.77L249.73 122.45ZM226.14 122.45H214.34V122.2H226.14V122.45ZM202.54 122.45H190.75V122.2H202.54V122.45ZM178.95 122.45H167.16V122.2H178.97L178.95 122.45ZM155.36 122.45H143.56V122.2H155.36V122.45ZM131.77 122.45H119.97V122.2H131.77V122.45ZM108.17 122.45H96.38V122.2H108.17V122.45Z" fill="#F2F2F2"></path>
<path opacity="0.2" d="M621.41 122.2H615.41V122.45H621.41V122.2Z" fill="#F2F2F2"></path>
</g>
<path opacity="0.3" d="M642.93 209.24H621.78V215.66H642.93V209.24Z" fill="rgba(0,0,0,0.74)"></path>
<g opacity="0.2">
<path opacity="0.2" d="M84.58 212.14H78.58V212.39H84.58V212.14Z" fill="#F2F2F2"></path>
<path opacity="0.2" d="M603.61 212.38H591.82V212.13H603.61V212.38ZM580.02 212.38H568.23V212.13H580.02V212.38ZM556.43 212.38H544.63V212.13H556.43V212.38ZM532.84 212.38H521.04V212.13H532.84V212.38ZM509.25 212.38H497.45V212.13H509.25V212.38ZM485.65 212.38H473.86V212.13H485.65V212.38ZM462.06 212.38H450.26V212.13H462.06V212.38ZM438.47 212.38H426.67V212.13H438.47V212.38ZM414.88 212.38H403.08V212.13H414.88V212.38ZM391.28 212.38H379.49V212.13H391.28V212.38ZM367.69 212.38H355.89V212.13H367.69V212.38ZM344.1 212.38H332.3V212.13H344.1V212.38ZM320.51 212.38H308.71V212.13H320.51V212.38ZM296.91 212.38H285.12V212.13H296.91V212.38ZM273.32 212.38H261.53V212.13H273.32V212.38ZM249.73 212.38H237.97V212.13H249.77L249.73 212.38ZM226.14 212.38H214.34V212.13H226.14V212.38ZM202.54 212.38H190.75V212.13H202.54V212.38ZM178.95 212.38H167.16V212.13H178.97L178.95 212.38ZM155.36 212.38H143.56V212.13H155.36V212.38ZM131.77 212.38H119.97V212.13H131.77V212.38ZM108.17 212.38H96.38V212.13H108.17V212.38Z" fill="#F2F2F2"></path>
<path opacity="0.2" d="M621.41 212.14H615.41V212.39H621.41V212.14Z" fill="#F2F2F2"></path>
<path opacity="0.2" d="M84.58 212.14H78.58V212.39H84.58V212.14Z" fill="#F2F2F2"></path>
<path opacity="0.2" d="M603.61 212.38H591.82V212.13H603.61V212.38ZM580.02 212.38H568.23V212.13H580.02V212.38ZM556.43 212.38H544.63V212.13H556.43V212.38ZM532.84 212.38H521.04V212.13H532.84V212.38ZM509.25 212.38H497.45V212.13H509.25V212.38ZM485.65 212.38H473.86V212.13H485.65V212.38ZM462.06 212.38H450.26V212.13H462.06V212.38ZM438.47 212.38H426.67V212.13H438.47V212.38ZM414.88 212.38H403.08V212.13H414.88V212.38ZM391.28 212.38H379.49V212.13H391.28V212.38ZM367.69 212.38H355.89V212.13H367.69V212.38ZM344.1 212.38H332.3V212.13H344.1V212.38ZM320.51 212.38H308.71V212.13H320.51V212.38ZM296.91 212.38H285.12V212.13H296.91V212.38ZM273.32 212.38H261.53V212.13H273.32V212.38ZM249.73 212.38H237.97V212.13H249.77L249.73 212.38ZM226.14 212.38H214.34V212.13H226.14V212.38ZM202.54 212.38H190.75V212.13H202.54V212.38ZM178.95 212.38H167.16V212.13H178.97L178.95 212.38ZM155.36 212.38H143.56V212.13H155.36V212.38ZM131.77 212.38H119.97V212.13H131.77V212.38ZM108.17 212.38H96.38V212.13H108.17V212.38Z" fill="#F2F2F2"></path>
<path opacity="0.2" d="M621.41 212.14H615.41V212.39H621.41V212.14Z" fill="#F2F2F2"></path>
</g>
<path opacity="0.3" d="M642.93 254.18H621.78V260.6H642.93V254.18Z" fill="rgba(0,0,0,0.74)"></path>
<g opacity="0.2">
<path opacity="0.2" d="M84.58 257.07H78.58V257.32H84.58V257.07Z" fill="#F2F2F2"></path>
<path opacity="0.2" d="M603.61 257.32H591.82V257.07H603.61V257.32ZM580.02 257.32H568.23V257.07H580.02V257.32ZM556.43 257.32H544.63V257.07H556.43V257.32ZM532.84 257.32H521.04V257.07H532.84V257.32ZM509.25 257.32H497.45V257.07H509.25V257.32ZM485.65 257.32H473.86V257.07H485.65V257.32ZM462.06 257.32H450.26V257.07H462.06V257.32ZM438.47 257.32H426.67V257.07H438.47V257.32ZM414.88 257.32H403.08V257.07H414.88V257.32ZM391.28 257.32H379.49V257.07H391.28V257.32ZM367.69 257.32H355.89V257.07H367.69V257.32ZM344.1 257.32H332.3V257.07H344.1V257.32ZM320.51 257.32H308.71V257.07H320.51V257.32ZM296.91 257.32H285.12V257.07H296.91V257.32ZM273.32 257.32H261.53V257.07H273.32V257.32ZM249.73 257.32H237.97V257.07H249.77L249.73 257.32ZM226.14 257.32H214.34V257.07H226.14V257.32ZM202.54 257.32H190.75V257.07H202.54V257.32ZM178.95 257.32H167.16V257.07H178.97L178.95 257.32ZM155.36 257.32H143.56V257.07H155.36V257.32ZM131.77 257.32H119.97V257.07H131.77V257.32ZM108.17 257.32H96.38V257.07H108.17V257.32Z" fill="#F2F2F2"></path>
<path opacity="0.2" d="M621.41 257.07H615.41V257.32H621.41V257.07Z" fill="#F2F2F2"></path>
<path opacity="0.2" d="M84.58 257.07H78.58V257.32H84.58V257.07Z" fill="#F2F2F2"></path>
<path opacity="0.2" d="M603.61 257.32H591.82V257.07H603.61V257.32ZM580.02 257.32H568.23V257.07H580.02V257.32ZM556.43 257.32H544.63V257.07H556.43V257.32ZM532.84 257.32H521.04V257.07H532.84V257.32ZM509.25 257.32H497.45V257.07H509.25V257.32ZM485.65 257.32H473.86V257.07H485.65V257.32ZM462.06 257.32H450.26V257.07H462.06V257.32ZM438.47 257.32H426.67V257.07H438.47V257.32ZM414.88 257.32H403.08V257.07H414.88V257.32ZM391.28 257.32H379.49V257.07H391.28V257.32ZM367.69 257.32H355.89V257.07H367.69V257.32ZM344.1 257.32H332.3V257.07H344.1V257.32ZM320.51 257.32H308.71V257.07H320.51V257.32ZM296.91 257.32H285.12V257.07H296.91V257.32ZM273.32 257.32H261.53V257.07H273.32V257.32ZM249.73 257.32H237.97V257.07H249.77L249.73 257.32ZM226.14 257.32H214.34V257.07H226.14V257.32ZM202.54 257.32H190.75V257.07H202.54V257.32ZM178.95 257.32H167.16V257.07H178.97L178.95 257.32ZM155.36 257.32H143.56V257.07H155.36V257.32ZM131.77 257.32H119.97V257.07H131.77V257.32ZM108.17 257.32H96.38V257.07H108.17V257.32Z" fill="#F2F2F2"></path>
<path opacity="0.2" d="M621.41 257.07H615.41V257.32H621.41V257.07Z" fill="#F2F2F2"></path>
</g>
<path opacity="0.3" d="M642.93 299.11H621.78V305.53H642.93V299.11Z" fill="rgba(0,0,0,0.74)"></path>
<g opacity="0.2">
<path opacity="0.2" d="M84.58 302.01H78.58V302.26H84.58V302.01Z" fill="#F2F2F2"></path>
<path opacity="0.2" d="M603.61 302.26H591.82V302.01H603.61V302.26ZM580.02 302.26H568.23V302.01H580.02V302.26ZM556.43 302.26H544.63V302.01H556.43V302.26ZM532.84 302.26H521.04V302.01H532.84V302.26ZM509.25 302.26H497.45V302.01H509.25V302.26ZM485.65 302.26H473.86V302.01H485.65V302.26ZM462.06 302.26H450.26V302.01H462.06V302.26ZM438.47 302.26H426.67V302.01H438.47V302.26ZM414.88 302.26H403.08V302.01H414.88V302.26ZM391.28 302.26H379.49V302.01H391.28V302.26ZM367.69 302.26H355.89V302.01H367.69V302.26ZM344.1 302.26H332.3V302.01H344.1V302.26ZM320.51 302.26H308.71V302.01H320.51V302.26ZM296.91 302.26H285.12V302.01H296.91V302.26ZM273.32 302.26H261.53V302.01H273.32V302.26ZM249.73 302.26H237.97V302.01H249.77L249.73 302.26ZM226.14 302.26H214.34V302.01H226.14V302.26ZM202.54 302.26H190.75V302.01H202.54V302.26ZM178.95 302.26H167.16V302.01H178.97L178.95 302.26ZM155.36 302.26H143.56V302.01H155.36V302.26ZM131.77 302.26H119.97V302.01H131.77V302.26ZM108.17 302.26H96.38V302.01H108.17V302.26Z" fill="#F2F2F2"></path>
<path opacity="0.2" d="M621.41 302.01H615.41V302.26H621.41V302.01Z" fill="#F2F2F2"></path>
<path opacity="0.2" d="M84.58 302.01H78.58V302.26H84.58V302.01Z" fill="#F2F2F2"></path>
<path opacity="0.2" d="M603.61 302.26H591.82V302.01H603.61V302.26ZM580.02 302.26H568.23V302.01H580.02V302.26ZM556.43 302.26H544.63V302.01H556.43V302.26ZM532.84 302.26H521.04V302.01H532.84V302.26ZM509.25 302.26H497.45V302.01H509.25V302.26ZM485.65 302.26H473.86V302.01H485.65V302.26ZM462.06 302.26H450.26V302.01H462.06V302.26ZM438.47 302.26H426.67V302.01H438.47V302.26ZM414.88 302.26H403.08V302.01H414.88V302.26ZM391.28 302.26H379.49V302.01H391.28V302.26ZM367.69 302.26H355.89V302.01H367.69V302.26ZM344.1 302.26H332.3V302.01H344.1V302.26ZM320.51 302.26H308.71V302.01H320.51V302.26ZM296.91 302.26H285.12V302.01H296.91V302.26ZM273.32 302.26H261.53V302.01H273.32V302.26ZM249.73 302.26H237.97V302.01H249.77L249.73 302.26ZM226.14 302.26H214.34V302.01H226.14V302.26ZM202.54 302.26H190.75V302.01H202.54V302.26ZM178.95 302.26H167.16V302.01H178.97L178.95 302.26ZM155.36 302.26H143.56V302.01H155.36V302.26ZM131.77 302.26H119.97V302.01H131.77V302.26ZM108.17 302.26H96.38V302.01H108.17V302.26Z" fill="#F2F2F2"></path>
<path opacity="0.2" d="M621.41 302.01H615.41V302.26H621.41V302.01Z" fill="#F2F2F2"></path>
</g>
<path d="M147.53 122.51V302.7" stroke="#F2F2F2" stroke-width="0.1" stroke-miterlimit="10"></path>
<path d="M220.53 122.51V302.7" stroke="#F2F2F2" stroke-width="0.1" stroke-miterlimit="10"></path>
<path d="M293.53 122.51V302.7" stroke="#F2F2F2" stroke-width="0.1" stroke-miterlimit="10"></path>
<path d="M366.53 122.51V302.7" stroke="#F2F2F2" stroke-width="0.1" stroke-miterlimit="10"></path>
<path d="M439.53 122.51V302.7" stroke="#F2F2F2" stroke-width="0.1" stroke-miterlimit="10"></path>
<path d="M512.53 122.51V302.7" stroke="#F2F2F2" stroke-width="0.1" stroke-miterlimit="10"></path>
<path d="M585.53 122.51V302.7" stroke="#F2F2F2" stroke-width="0.1" stroke-miterlimit="10"></path>
<path opacity="0.3" d="M601.32 110.35L592.97 119.05C592.801 119.232 592.66 119.437 592.55 119.66L587.37 130.33C587.164 130.759 586.833 131.115 586.421 131.352C586.009 131.59 585.534 131.697 585.06 131.66L583.4 131.53C582.918 131.496 582.458 131.314 582.083 131.01C581.707 130.706 581.434 130.294 581.3 129.83L579.7 124.29C579.56 123.805 579.27 123.378 578.871 123.07C578.471 122.762 577.984 122.589 577.48 122.577C576.976 122.565 576.481 122.713 576.068 123.002C575.654 123.29 575.343 123.703 575.18 124.18L572.49 132.06C572.331 132.53 572.028 132.938 571.624 133.227C571.221 133.516 570.736 133.671 570.24 133.67H559.97C559.406 133.668 558.862 133.465 558.433 133.099C558.005 132.733 557.72 132.226 557.63 131.67L554.73 113.52C554.653 113.023 554.42 112.564 554.065 112.209C553.71 111.853 553.252 111.62 552.756 111.542C552.259 111.464 551.751 111.546 551.304 111.776C550.858 112.005 550.495 112.371 550.27 112.82L535.4 142.17C535.247 142.474 535.03 142.741 534.764 142.953C534.498 143.166 534.189 143.319 533.859 143.401C533.529 143.484 533.185 143.494 532.85 143.432C532.516 143.37 532.198 143.236 531.92 143.04L523.08 136.8C522.598 136.461 522.007 136.313 521.422 136.383C520.837 136.453 520.299 136.737 519.91 137.18L516.56 141.05C516.461 141.164 516.374 141.288 516.3 141.42L507.36 156.89C507.133 157.286 506.796 157.608 506.389 157.816C505.983 158.024 505.524 158.108 505.07 158.06L499.62 157.52C499.239 157.483 498.855 157.538 498.5 157.68L493.62 159.63C493.055 159.843 492.43 159.832 491.872 159.6C491.314 159.368 490.867 158.931 490.62 158.38L489.55 155.93C489.357 155.491 489.036 155.121 488.629 154.868C488.223 154.614 487.749 154.489 487.27 154.51L481.69 154.77C481.345 154.785 481.007 154.876 480.701 155.036C480.395 155.197 480.128 155.424 479.92 155.7L478.34 157.76C478.08 158.1 477.733 158.363 477.336 158.521C476.938 158.68 476.505 158.727 476.083 158.66C475.661 158.592 475.264 158.411 474.936 158.137C474.608 157.862 474.361 157.504 474.22 157.1L472.22 151.45C472.097 151.098 471.892 150.781 471.623 150.523C471.354 150.265 471.028 150.075 470.672 149.967C470.315 149.859 469.938 149.836 469.571 149.901C469.204 149.966 468.858 150.116 468.56 150.34L459.06 157.46L448.56 165.93C448.201 166.218 447.766 166.396 447.309 166.442C446.851 166.488 446.389 166.401 445.98 166.19L437.83 161.96C437.393 161.736 436.897 161.652 436.41 161.72L419.9 164.03C419.421 164.094 418.974 164.303 418.616 164.628C418.259 164.953 418.009 165.379 417.9 165.85L414.97 178.58C414.879 178.977 414.686 179.344 414.412 179.645C414.137 179.946 413.79 180.172 413.403 180.299C413.016 180.427 412.602 180.453 412.202 180.374C411.803 180.295 411.43 180.115 411.12 179.85V179.85C410.846 179.616 410.522 179.447 410.173 179.357C409.824 179.266 409.459 179.256 409.105 179.328C408.752 179.399 408.419 179.55 408.132 179.768C407.846 179.987 407.612 180.268 407.45 180.59L405.2 185.1C405.031 185.433 404.787 185.722 404.487 185.945C404.186 186.167 403.838 186.316 403.47 186.38L398.36 187.23C398.031 187.287 397.717 187.413 397.44 187.6L389.39 192.96C389.003 193.22 388.547 193.36 388.08 193.36H384.31C383.847 193.361 383.393 193.226 383.006 192.972C382.618 192.717 382.314 192.355 382.13 191.93L381.13 189.54C381.003 189.25 380.819 188.989 380.589 188.772C380.359 188.554 380.087 188.385 379.791 188.274C379.495 188.163 379.179 188.113 378.863 188.126C378.547 188.139 378.236 188.215 377.95 188.35L369.21 192.44C368.858 192.605 368.47 192.682 368.081 192.663C367.693 192.643 367.314 192.529 366.98 192.33L362.98 189.92C362.611 189.699 362.19 189.581 361.76 189.58H352.93C352.464 189.581 352.008 189.721 351.62 189.98L342.81 195.83C342.471 196.055 342.079 196.189 341.672 196.219C341.266 196.249 340.859 196.173 340.49 196L336.49 194.11C336.024 193.892 335.5 193.832 334.996 193.938C334.493 194.045 334.038 194.312 333.7 194.7L331.8 196.87C331.551 197.157 331.237 197.381 330.884 197.521C330.531 197.661 330.149 197.713 329.771 197.674C329.393 197.635 329.03 197.505 328.713 197.295C328.396 197.085 328.134 196.802 327.95 196.47L327.38 195.47C327.225 195.194 327.017 194.951 326.767 194.757C326.518 194.562 326.231 194.42 325.926 194.338C325.62 194.256 325.301 194.236 324.987 194.279C324.674 194.322 324.372 194.428 324.1 194.59L317.17 198.7C316.811 198.906 316.404 199.015 315.99 199.015C315.576 199.015 315.169 198.906 314.81 198.7L311.95 197.11C311.627 196.928 311.266 196.825 310.896 196.809C310.526 196.794 310.157 196.866 309.82 197.02L307.1 198.26C306.794 198.397 306.463 198.468 306.128 198.469C305.792 198.47 305.461 198.4 305.154 198.264C304.848 198.128 304.573 197.93 304.348 197.681C304.124 197.432 303.954 197.139 303.85 196.82L302.09 191.58C301.94 191.099 301.639 190.679 301.232 190.382C300.825 190.085 300.334 189.926 299.83 189.93H297.27C296.867 189.931 296.471 189.828 296.12 189.63L286.29 184.24C285.89 184.024 285.436 183.926 284.982 183.96C284.528 183.994 284.094 184.157 283.73 184.43L276.52 189.83C276.11 190.137 275.612 190.302 275.1 190.3H266.03C265.563 190.3 265.107 190.439 264.72 190.7L263.02 191.83C262.74 192.017 262.424 192.143 262.092 192.199C261.76 192.254 261.42 192.239 261.094 192.152C260.769 192.066 260.465 191.912 260.204 191.699C259.943 191.487 259.73 191.221 259.58 190.92L259.17 190.11C258.975 189.714 258.674 189.38 258.299 189.146C257.924 188.913 257.491 188.79 257.05 188.79H252.5C252.139 188.791 251.783 188.874 251.458 189.033C251.134 189.193 250.851 189.424 250.63 189.71L247.81 193.32C247.576 193.619 247.274 193.858 246.929 194.016C246.583 194.174 246.205 194.247 245.826 194.229C245.446 194.21 245.077 194.1 244.749 193.909C244.421 193.718 244.143 193.451 243.94 193.13L243.14 191.88C242.81 191.356 242.288 190.983 241.685 190.841C241.083 190.699 240.449 190.799 239.92 191.12L237.58 192.52C237.182 192.758 236.722 192.875 236.259 192.855C235.795 192.835 235.347 192.681 234.97 192.41L225.54 185.58C225.371 185.461 225.19 185.36 225 185.28L217.63 182.45C217.056 182.241 216.424 182.262 215.865 182.508C215.306 182.754 214.864 183.206 214.63 183.77L209.5 196.27C209.426 196.446 209.375 196.631 209.35 196.82L207.69 208.08C207.617 208.556 207.4 208.999 207.07 209.35L203.56 213.12C203.196 213.504 202.715 213.757 202.192 213.839C201.669 213.92 201.134 213.826 200.67 213.57L194.58 210.19C194.277 210.02 193.94 209.919 193.594 209.894C193.248 209.869 192.9 209.92 192.576 210.044C192.251 210.168 191.958 210.362 191.717 210.612C191.476 210.862 191.293 211.161 191.18 211.49L187.32 222.78C187.233 223.027 187.189 223.288 187.19 223.55V230.67C187.189 231.132 187.053 231.583 186.799 231.968C186.545 232.354 186.184 232.657 185.76 232.84L179.57 235.58C179.226 235.728 178.852 235.793 178.478 235.768C178.104 235.744 177.742 235.631 177.42 235.44L172.76 232.7C172.296 232.428 171.753 232.322 171.22 232.4L163.05 233.57C162.583 233.637 162.106 233.562 161.682 233.355C161.258 233.148 160.905 232.819 160.67 232.41L159.29 230.05C158.992 229.541 158.514 229.163 157.95 228.99L154.24 227.83C153.807 227.692 153.344 227.682 152.906 227.801C152.468 227.92 152.074 228.163 151.77 228.5L146.62 234.22C146.214 234.669 145.653 234.947 145.05 235L137.45 235.64C137.098 235.66 136.755 235.763 136.45 235.94L123.2 243.56C122.786 243.795 122.312 243.9 121.838 243.863C121.364 243.825 120.912 243.647 120.54 243.35L116.78 240.35C116.359 240.016 115.838 239.833 115.3 239.83H101.06C100.704 239.831 100.353 239.752 100.033 239.598C99.7122 239.443 99.4309 239.219 99.21 238.94L95.62 234.46C95.4048 234.192 95.1341 233.974 94.8264 233.822C94.5187 233.669 94.1815 233.585 93.8381 233.575C93.4948 233.566 93.1534 233.631 92.8377 233.766C92.5221 233.902 92.2397 234.104 92.01 234.36L87.69 239.16C87.299 239.593 87.0818 240.156 87.08 240.74V300.38C87.08 301.008 87.3297 301.611 87.7742 302.056C88.2186 302.5 88.8214 302.75 89.45 302.75H603.18C603.492 302.75 603.801 302.688 604.089 302.569C604.377 302.449 604.639 302.273 604.859 302.052C605.08 301.831 605.254 301.569 605.372 301.28C605.491 300.991 605.551 300.682 605.55 300.37L605.41 112.04C605.417 111.563 605.28 111.095 605.018 110.696C604.756 110.298 604.38 109.988 603.939 109.805C603.498 109.623 603.013 109.578 602.546 109.675C602.079 109.772 601.652 110.007 601.32 110.35V110.35Z" fill="rgba(0,0,0,0.74)"></path>
<path opacity="0.3" d="M600.86 187.58L593.12 192.74C592.848 192.923 592.609 193.149 592.41 193.41L587.6 199.76C587.308 200.136 586.931 200.438 586.5 200.639C586.069 200.841 585.596 200.937 585.12 200.92L583.55 200.84C583.011 200.813 582.49 200.638 582.044 200.335C581.597 200.032 581.243 199.611 581.02 199.12L580.02 196.99C579.797 196.49 579.437 196.062 578.982 195.757C578.527 195.451 577.996 195.28 577.448 195.262C576.901 195.244 576.359 195.381 575.885 195.657C575.412 195.932 575.025 196.335 574.77 196.82L572.77 200.65C572.52 201.12 572.147 201.512 571.691 201.786C571.234 202.059 570.712 202.202 570.18 202.2H560.26C559.606 202.203 558.97 201.986 558.455 201.583C557.94 201.18 557.575 200.615 557.42 199.98L555.04 190.45C554.908 189.919 554.629 189.435 554.236 189.055C553.843 188.674 553.351 188.411 552.816 188.295C552.28 188.179 551.724 188.216 551.208 188.401C550.693 188.586 550.24 188.911 549.9 189.34L535.6 207.42C535.197 207.934 534.632 208.297 533.997 208.452C533.362 208.606 532.694 208.542 532.1 208.27L522.91 204.12C522.429 203.895 521.895 203.805 521.367 203.859C520.839 203.914 520.335 204.111 519.91 204.43L516.62 206.86C516.463 206.977 516.318 207.112 516.19 207.26L507.51 216.87C507.218 217.205 506.854 217.469 506.445 217.642C506.036 217.815 505.593 217.893 505.15 217.87L499.48 217.51C499.171 217.492 498.861 217.519 498.56 217.59L493.45 218.9C492.867 219.052 492.252 219.02 491.688 218.809C491.124 218.598 490.639 218.218 490.3 217.72L489.72 216.86C489.443 216.456 489.069 216.128 488.632 215.907C488.195 215.685 487.71 215.576 487.22 215.59L481.52 215.76C480.862 215.771 480.229 216.012 479.73 216.44L478.33 217.61C477.998 217.888 477.609 218.09 477.191 218.2C476.772 218.31 476.334 218.326 475.909 218.246C475.483 218.167 475.081 217.994 474.73 217.741C474.379 217.487 474.089 217.159 473.88 216.78L472.4 214.1C472.039 213.445 471.442 212.953 470.729 212.724C470.017 212.495 469.245 212.548 468.57 212.87L458.98 217.48L448.37 222.96C448.024 223.138 447.645 223.245 447.257 223.274C446.869 223.303 446.479 223.254 446.11 223.13L437.66 220.33C437.28 220.205 436.879 220.158 436.48 220.19L420.12 221.58C419.565 221.637 419.037 221.849 418.595 222.189C418.154 222.53 417.816 222.988 417.62 223.51L415.25 230.13C415.107 230.528 414.879 230.89 414.583 231.191C414.287 231.493 413.929 231.727 413.533 231.877C413.138 232.027 412.715 232.09 412.293 232.061C411.872 232.032 411.461 231.913 411.09 231.71L410.99 231.66C410.383 231.323 409.675 231.215 408.994 231.354C408.314 231.493 407.706 231.871 407.28 232.42L405.42 234.8C404.926 235.42 404.207 235.819 403.42 235.91L398.3 236.46C398.011 236.489 397.728 236.56 397.46 236.67L389.35 240.14C388.985 240.29 388.595 240.368 388.2 240.37H384.3C383.823 240.37 383.353 240.253 382.931 240.03C382.51 239.807 382.149 239.484 381.88 239.09L381.32 238.27C380.969 237.757 380.464 237.37 379.878 237.163C379.292 236.956 378.655 236.941 378.06 237.12L368.97 239.87C368.346 240.058 367.678 240.033 367.07 239.8L362.85 238.18C362.531 238.054 362.193 237.987 361.85 237.98H352.79C352.397 237.98 352.009 238.061 351.65 238.22L342.65 242.04C342.018 242.313 341.309 242.352 340.65 242.15L336.2 240.82C335.767 240.691 335.309 240.663 334.864 240.74C334.418 240.816 333.996 240.994 333.63 241.26L331.68 242.69C331.09 243.122 330.359 243.317 329.632 243.238C328.904 243.158 328.233 242.809 327.75 242.26L327.46 241.93C327.067 241.481 326.546 241.163 325.967 241.018C325.388 240.873 324.778 240.909 324.22 241.12L316.97 243.89C316.324 244.125 315.616 244.125 314.97 243.89L311.79 242.75C311.209 242.549 310.581 242.532 309.99 242.7L306.99 243.57C306.333 243.759 305.631 243.713 305.004 243.439C304.378 243.165 303.867 242.681 303.56 242.07L302.44 239.82C302.196 239.334 301.822 238.925 301.359 238.639C300.897 238.353 300.364 238.201 299.82 238.2H297.22C296.88 238.206 296.541 238.152 296.22 238.04L286.13 234.5C285.767 234.37 285.383 234.314 284.998 234.335C284.613 234.355 284.237 234.452 283.89 234.62L276.52 238.16C276.123 238.349 275.689 238.448 275.25 238.45H265.94C265.545 238.452 265.155 238.53 264.79 238.68L262.89 239.5C262.296 239.752 261.635 239.802 261.009 239.641C260.384 239.48 259.829 239.118 259.43 238.61V238.61C259.157 238.258 258.807 237.973 258.406 237.777C258.006 237.581 257.566 237.48 257.12 237.48H252.42C251.742 237.479 251.085 237.712 250.56 238.14L247.83 240.38C247.269 240.845 246.554 241.082 245.826 241.045C245.098 241.008 244.411 240.699 243.9 240.18L243.28 239.56C242.879 239.157 242.37 238.879 241.815 238.76C241.259 238.641 240.68 238.686 240.15 238.89L237.43 239.94C236.686 240.217 235.863 240.189 235.14 239.86L225.57 235.42C225.401 235.339 225.223 235.279 225.04 235.24L217.53 233.39C216.938 233.242 216.314 233.284 215.747 233.51C215.18 233.736 214.698 234.135 214.37 234.65L209.65 242.01C209.469 242.293 209.338 242.604 209.26 242.93L207.83 249.18C207.659 249.894 207.232 250.52 206.63 250.94L203.51 253.08C203.13 253.342 202.694 253.509 202.236 253.568C201.779 253.627 201.314 253.577 200.88 253.42L194.46 251.14C193.789 250.903 193.054 250.918 192.394 251.183C191.733 251.448 191.191 251.945 190.87 252.58L187.49 258.9C187.268 259.326 187.151 259.799 187.15 260.28V263.13C187.147 263.77 186.936 264.392 186.548 264.901C186.16 265.41 185.616 265.778 185 265.95L179.38 267.51C178.784 267.679 178.149 267.651 177.57 267.43L172.67 265.58C172.256 265.421 171.811 265.359 171.37 265.4L162.92 266.17C162.47 266.214 162.015 266.152 161.594 265.988C161.172 265.825 160.794 265.565 160.49 265.23L159.49 264.12C159.074 263.653 158.515 263.337 157.9 263.22L154.05 262.44C153.656 262.365 153.252 262.37 152.86 262.454C152.469 262.539 152.098 262.7 151.77 262.93L146.7 266.54C146.246 266.859 145.713 267.046 145.16 267.08L137.39 267.49C137.096 267.508 136.807 267.569 136.53 267.67L123.04 272.67C122.662 272.813 122.258 272.875 121.855 272.851C121.452 272.827 121.058 272.717 120.7 272.53L116.8 270.53C116.388 270.32 115.932 270.21 115.47 270.21H100.97C100.3 270.21 99.651 269.981 99.13 269.56L95.62 266.75C95.1225 266.352 94.5088 266.127 93.8718 266.109C93.2348 266.09 92.6092 266.281 92.09 266.65L88.33 269.33C87.9497 269.602 87.6398 269.961 87.4259 270.376C87.212 270.792 87.1003 271.253 87.1 271.72V299.83C87.1 300.607 87.4087 301.352 87.9582 301.902C88.5077 302.451 89.2529 302.76 90.03 302.76H602.62C603.397 302.76 604.142 302.451 604.692 301.902C605.241 301.352 605.55 300.607 605.55 299.83L605.41 190.06C605.417 189.527 605.279 189.002 605.009 188.542C604.74 188.082 604.351 187.704 603.882 187.449C603.414 187.194 602.886 187.071 602.353 187.094C601.82 187.117 601.304 187.285 600.86 187.58V187.58Z" fill="rgba(0,0,0,0.74)"></path>
<path d="M602.93 193.84C606.796 193.84 609.93 190.706 609.93 186.84C609.93 182.974 606.796 179.84 602.93 179.84C599.064 179.84 595.93 182.974 595.93 186.84C595.93 190.706 599.064 193.84 602.93 193.84Z" fill="rgba(0,0,0,0.74)"></path>
<path opacity="0.3" d="M602.48 256.09L592.97 259.26C592.788 259.323 592.613 259.407 592.45 259.51L587.23 262.96C586.85 263.208 586.403 263.333 585.95 263.32L582.7 263.24C582.398 263.234 582.1 263.166 581.825 263.04C581.549 262.915 581.303 262.734 581.1 262.51L579.1 260.31C578.901 260.09 578.661 259.912 578.392 259.787C578.124 259.661 577.833 259.59 577.537 259.578C577.241 259.566 576.946 259.613 576.668 259.716C576.39 259.819 576.136 259.977 575.92 260.18L572.55 263.34C572.141 263.731 571.596 263.95 571.03 263.95H559.35C558.934 263.953 558.525 263.838 558.171 263.618C557.817 263.399 557.533 263.084 557.35 262.71L554.68 257.38C554.541 257.102 554.345 256.856 554.105 256.658C553.865 256.46 553.586 256.315 553.287 256.231C552.988 256.147 552.674 256.127 552.366 256.171C552.058 256.216 551.763 256.325 551.5 256.49L534.97 266.96C534.47 267.273 533.866 267.377 533.29 267.25L521.97 264.7C521.551 264.601 521.113 264.629 520.71 264.78L516.58 266.31C516.471 266.344 516.367 266.391 516.27 266.45L507.14 271.51C506.788 271.702 506.391 271.798 505.99 271.79L499.23 271.57C499.114 271.56 498.996 271.56 498.88 271.57L492.38 272.4C491.814 272.469 491.243 272.323 490.78 271.99L489.46 270.99C489.07 270.702 488.595 270.55 488.11 270.56L480.98 270.66C480.695 270.66 480.412 270.718 480.15 270.83L476.95 272.18C476.558 272.342 476.128 272.389 475.711 272.317C475.293 272.244 474.904 272.055 474.59 271.77L471.97 269.45C471.703 269.209 471.381 269.037 471.033 268.948C470.684 268.86 470.32 268.857 469.97 268.94L459.03 271.58L447.78 274.49C447.477 274.555 447.163 274.555 446.86 274.49L437.36 272.91C437.207 272.9 437.053 272.9 436.9 272.91L419.33 273.7C418.993 273.715 418.664 273.806 418.368 273.967C418.071 274.129 417.816 274.355 417.62 274.63L414.97 278.28C414.705 278.651 414.333 278.931 413.904 279.083C413.475 279.235 413.009 279.252 412.57 279.13L409.74 278.35C409.438 278.271 409.124 278.254 408.816 278.303C408.508 278.351 408.213 278.462 407.95 278.63L405.12 280.44C404.794 280.642 404.423 280.759 404.04 280.78L398.04 281.11C397.927 281.1 397.813 281.1 397.7 281.11L389.04 282.96C388.885 282.991 388.728 283.008 388.57 283.01H383.49C383.019 283.01 382.56 282.859 382.18 282.58L380.86 281.58C380.627 281.406 380.363 281.281 380.081 281.21C379.8 281.14 379.507 281.126 379.22 281.17L368.41 282.79C368.162 282.83 367.908 282.83 367.66 282.79L362.58 281.79C362.44 281.775 362.3 281.775 362.16 281.79H352.41C352.257 281.775 352.103 281.775 351.95 281.79L342.06 283.89C341.796 283.94 341.524 283.94 341.26 283.89L335.37 283C334.999 282.949 334.621 282.991 334.27 283.12L330.49 284.5C330.186 284.613 329.86 284.658 329.537 284.63C329.214 284.603 328.9 284.503 328.62 284.34L326.83 283.34C326.375 283.072 325.838 282.979 325.32 283.08L316.32 284.79C316.052 284.84 315.778 284.84 315.51 284.79L311.18 284.02C310.945 283.985 310.705 283.985 310.47 284.02L305.69 284.71C305.348 284.762 304.999 284.733 304.671 284.626C304.343 284.518 304.044 284.334 303.8 284.09L302.22 282.58C301.797 282.167 301.231 281.934 300.64 281.93H296.85C296.724 281.94 296.596 281.94 296.47 281.93L285.41 279.99C285.11 279.925 284.8 279.925 284.5 279.99L276.14 281.99C275.97 282.03 275.795 282.05 275.62 282.05H265.55C265.397 282.035 265.243 282.035 265.09 282.05L261.68 282.78C261.106 282.939 260.492 282.867 259.97 282.58L259.03 281.97C258.671 281.742 258.255 281.62 257.83 281.62H251.74C251.452 281.621 251.166 281.679 250.9 281.79L246.64 283.53C246.347 283.653 246.03 283.71 245.712 283.698C245.395 283.686 245.083 283.604 244.8 283.46L242.54 282.32C242.101 282.1 241.602 282.03 241.12 282.12L236.66 282.98C236.357 283.045 236.043 283.045 235.74 282.98L225.4 280.58H225.17L216.38 279.49C215.794 279.423 215.206 279.589 214.74 279.95L209.74 283.83C209.46 284.046 209.237 284.328 209.09 284.65L207.97 287.14C207.843 287.414 207.663 287.659 207.44 287.862C207.217 288.065 206.955 288.22 206.67 288.32L202.83 289.63C202.475 289.759 202.091 289.79 201.72 289.72L193.18 288.2C192.839 288.141 192.489 288.162 192.158 288.261C191.827 288.36 191.523 288.534 191.27 288.77L187.88 291.94C187.658 292.149 187.481 292.401 187.36 292.682C187.24 292.962 187.178 293.265 187.18 293.57C187.18 294.107 186.986 294.625 186.633 295.03C186.28 295.434 185.792 295.697 185.26 295.77L178.85 296.66C178.612 296.7 178.368 296.7 178.13 296.66L172.33 295.56C172.157 295.54 171.983 295.54 171.81 295.56L162.12 296C161.713 296.016 161.309 295.922 160.95 295.73L159.25 294.8C158.989 294.651 158.699 294.559 158.4 294.53L153.31 294.02C152.972 293.985 152.63 294.026 152.31 294.14L146.31 296.27C146.088 296.349 145.855 296.392 145.62 296.4L137.09 296.63C136.974 296.62 136.856 296.62 136.74 296.63L122.29 299.3C121.977 299.365 121.653 299.365 121.34 299.3L116.42 298.04C116.236 297.996 116.049 297.973 115.86 297.97H100.35C100.065 297.973 99.7831 297.918 99.52 297.81L94.66 295.87C94.1513 295.675 93.5887 295.675 93.08 295.87L88.56 297.48C88.1268 297.632 87.7516 297.914 87.4864 298.289C87.2212 298.663 87.0791 299.111 87.08 299.57V300.57C87.0787 300.862 87.1351 301.152 87.2461 301.423C87.3571 301.693 87.5204 301.939 87.7267 302.146C87.933 302.353 88.1781 302.518 88.4481 302.63C88.7181 302.742 89.0076 302.8 89.3 302.8H603.3C603.592 302.8 603.882 302.742 604.152 302.63C604.422 302.518 604.667 302.353 604.873 302.146C605.08 301.939 605.243 301.693 605.354 301.423C605.465 301.152 605.521 300.862 605.52 300.57L605.39 258.3C605.404 257.942 605.331 257.585 605.178 257.261C605.025 256.937 604.796 256.654 604.51 256.437C604.225 256.22 603.891 256.076 603.538 256.015C603.184 255.955 602.821 255.98 602.48 256.09V256.09Z" fill="rgba(0,0,0,0.74)"></path>
<path d="M217.93 240.84C221.796 240.84 224.93 237.706 224.93 233.84C224.93 229.974 221.796 226.84 217.93 226.84C214.064 226.84 210.93 229.974 210.93 233.84C210.93 237.706 214.064 240.84 217.93 240.84Z" fill="rgba(0,0,0,0.74)"></path>
<path d="M553.93 196.84C557.796 196.84 560.93 193.706 560.93 189.84C560.93 185.974 557.796 182.84 553.93 182.84C550.064 182.84 546.93 185.974 546.93 189.84C546.93 193.706 550.064 196.84 553.93 196.84Z" fill="rgba(0,0,0,0.74)"></path>
<path d="M379.93 243.84C383.796 243.84 386.93 240.706 386.93 236.84C386.93 232.974 383.796 229.84 379.93 229.84C376.064 229.84 372.93 232.974 372.93 236.84C372.93 240.706 376.064 243.84 379.93 243.84Z" fill="rgba(0,0,0,0.74)"></path>
<path d="M470.93 218.84C474.796 218.84 477.93 215.706 477.93 211.84C477.93 207.974 474.796 204.84 470.93 204.84C467.064 204.84 463.93 207.974 463.93 211.84C463.93 215.706 467.064 218.84 470.93 218.84Z" fill="rgba(0,0,0,0.74)"></path>
<path d="M606.41 190C606.408 189.471 606.263 188.953 605.99 188.5C605.717 188.047 605.327 187.676 604.86 187.427C604.394 187.178 603.869 187.059 603.34 187.085C602.812 187.11 602.301 187.277 601.86 187.57L594.12 192.73C593.848 192.913 593.609 193.139 593.41 193.4L588.6 199.75C588.308 200.126 587.931 200.428 587.5 200.629C587.069 200.831 586.596 200.927 586.12 200.91L584.55 200.83C584.011 200.803 583.49 200.628 583.044 200.325C582.597 200.022 582.243 199.601 582.02 199.11L581.02 196.98C580.797 196.48 580.437 196.052 579.982 195.747C579.527 195.441 578.996 195.27 578.448 195.252C577.901 195.234 577.359 195.371 576.885 195.646C576.412 195.922 576.025 196.325 575.77 196.81L573.77 200.64C573.52 201.11 573.147 201.502 572.691 201.776C572.234 202.049 571.712 202.192 571.18 202.19H561.26C560.606 202.193 559.97 201.975 559.455 201.573C558.94 201.17 558.575 200.605 558.42 199.97L556.04 190.44C555.908 189.909 555.629 189.425 555.236 189.044C554.843 188.664 554.351 188.4 553.816 188.285C553.28 188.169 552.724 188.206 552.208 188.391C551.693 188.575 551.24 188.901 550.9 189.33L536.6 207.41C536.197 207.924 535.632 208.287 534.997 208.441C534.362 208.596 533.694 208.532 533.1 208.26L523.91 204.11C523.429 203.885 522.895 203.795 522.367 203.849C521.839 203.904 521.335 204.101 520.91 204.42L517.62 206.85C517.463 206.967 517.318 207.101 517.19 207.25L508.51 216.86C508.218 217.195 507.854 217.458 507.445 217.632C507.036 217.805 506.593 217.883 506.15 217.86L500.48 217.5C500.171 217.481 499.861 217.508 499.56 217.58L494.45 218.89C493.867 219.042 493.252 219.01 492.688 218.799C492.124 218.588 491.639 218.207 491.3 217.71L490.72 216.85C490.443 216.446 490.069 216.118 489.632 215.896C489.195 215.675 488.71 215.566 488.22 215.58L482.52 215.75C481.862 215.761 481.229 216.001 480.73 216.43L479.33 217.6C478.998 217.878 478.609 218.08 478.191 218.19C477.772 218.3 477.334 218.315 476.909 218.236C476.483 218.157 476.081 217.984 475.73 217.731C475.379 217.477 475.089 217.149 474.88 216.77L473.4 214.09C473.039 213.435 472.442 212.942 471.729 212.714C471.017 212.485 470.245 212.537 469.57 212.86L459.98 217.47L449.37 222.95C449.024 223.128 448.645 223.235 448.257 223.264C447.869 223.293 447.479 223.244 447.11 223.12L438.66 220.32C438.28 220.195 437.879 220.147 437.48 220.18L421.12 221.58C420.565 221.637 420.037 221.848 419.595 222.189C419.154 222.53 418.816 222.988 418.62 223.51L416.25 230.13C416.107 230.528 415.879 230.89 415.583 231.191C415.287 231.493 414.929 231.727 414.533 231.877C414.138 232.027 413.715 232.09 413.293 232.061C412.872 232.032 412.461 231.912 412.09 231.71L411.99 231.66C411.383 231.323 410.675 231.214 409.994 231.354C409.314 231.493 408.706 231.871 408.28 232.42L406.42 234.8C405.926 235.42 405.207 235.819 404.42 235.91L399.3 236.46C399.011 236.489 398.728 236.56 398.46 236.67L390.35 240.14C389.985 240.29 389.595 240.368 389.2 240.37H385.3C384.823 240.37 384.353 240.253 383.931 240.03C383.51 239.807 383.149 239.484 382.88 239.09L382.32 238.27C381.969 237.757 381.464 237.37 380.878 237.163C380.292 236.956 379.655 236.941 379.06 237.12L369.97 239.87C369.346 240.058 368.678 240.033 368.07 239.8L363.85 238.18C363.531 238.054 363.193 237.987 362.85 237.98H353.79C353.397 237.979 353.009 238.061 352.65 238.22L343.65 242.04C343.018 242.313 342.309 242.352 341.65 242.15L337.2 240.82C336.767 240.691 336.309 240.663 335.864 240.739C335.418 240.816 334.996 240.994 334.63 241.26L332.68 242.69C332.09 243.122 331.359 243.317 330.632 243.238C329.904 243.158 329.233 242.809 328.75 242.26L328.46 241.93C328.067 241.481 327.546 241.163 326.967 241.018C326.388 240.873 325.778 240.909 325.22 241.12L317.97 243.89C317.324 244.125 316.616 244.125 315.97 243.89L312.79 242.75C312.209 242.549 311.581 242.532 310.99 242.7L307.99 243.57C307.333 243.759 306.631 243.713 306.004 243.439C305.378 243.165 304.867 242.681 304.56 242.07L303.44 239.82C303.196 239.334 302.822 238.925 302.359 238.639C301.897 238.353 301.364 238.201 300.82 238.2H298.22C297.88 238.206 297.541 238.151 297.22 238.04L287.13 234.5C286.767 234.37 286.383 234.314 285.998 234.335C285.613 234.355 285.237 234.452 284.89 234.62L277.52 238.16C277.123 238.348 276.689 238.447 276.25 238.45H266.94C266.545 238.452 266.155 238.53 265.79 238.68L263.89 239.5C263.296 239.752 262.635 239.802 262.009 239.641C261.384 239.48 260.829 239.118 260.43 238.61C260.157 238.258 259.807 237.973 259.406 237.777C259.006 237.581 258.566 237.479 258.12 237.48H253.42C252.742 237.479 252.085 237.712 251.56 238.14L248.83 240.38C248.269 240.845 247.554 241.082 246.826 241.045C246.098 241.008 245.411 240.699 244.9 240.18L244.28 239.56C243.879 239.157 243.37 238.879 242.815 238.76C242.259 238.641 241.68 238.686 241.15 238.89L238.43 239.94C237.686 240.217 236.863 240.189 236.14 239.86L226.57 235.42C226.401 235.339 226.223 235.279 226.04 235.24L218.53 233.39C217.938 233.242 217.314 233.284 216.747 233.51C216.18 233.736 215.698 234.135 215.37 234.65L210.65 242.01C210.469 242.293 210.338 242.604 210.26 242.93L208.83 249.18C208.659 249.894 208.232 250.52 207.63 250.94L204.51 253.08C204.13 253.342 203.694 253.509 203.236 253.568C202.779 253.627 202.314 253.576 201.88 253.42L195.46 251.14C194.789 250.903 194.054 250.918 193.394 251.183C192.733 251.448 192.191 251.945 191.87 252.58L188.49 258.9C188.268 259.326 188.151 259.799 188.15 260.28V263.13C188.147 263.77 187.936 264.392 187.548 264.901C187.16 265.41 186.616 265.778 186 265.95L180.38 267.51C179.784 267.679 179.149 267.651 178.57 267.43L173.67 265.58C173.256 265.421 172.811 265.359 172.37 265.4L163.92 266.17C163.47 266.214 163.015 266.151 162.594 265.988C162.172 265.825 161.794 265.565 161.49 265.23L160.49 264.12C160.074 263.653 159.515 263.337 158.9 263.22L155.05 262.44C154.656 262.365 154.252 262.37 153.86 262.454C153.469 262.538 153.098 262.7 152.77 262.93L147.7 266.54C147.246 266.859 146.713 267.046 146.16 267.08L138.39 267.49C138.096 267.508 137.807 267.569 137.53 267.67L124.04 272.67C123.662 272.813 123.258 272.875 122.855 272.851C122.452 272.827 122.058 272.717 121.7 272.53L117.8 270.53C117.388 270.32 116.932 270.21 116.47 270.21H101.97C101.3 270.21 100.651 269.98 100.13 269.56L96.62 266.75C96.1225 266.352 95.5088 266.126 94.8718 266.108C94.2348 266.09 93.6092 266.28 93.09 266.65L89.33 269.33C88.9497 269.602 88.6398 269.96 88.4259 270.376C88.212 270.792 88.1003 271.252 88.1 271.72" stroke="rgba(0,0,0,0.74)" stroke-miterlimit="10"></path>
<path opacity="0.2" d="M642.93 343.79H57.93V343.89H642.93V343.79Z" fill="#F2F2F2"></path>
<path opacity="0.3" d="M147.93 348.84C150.691 348.84 152.93 346.602 152.93 343.84C152.93 341.079 150.691 338.84 147.93 338.84C145.169 338.84 142.93 341.079 142.93 343.84C142.93 346.602 145.169 348.84 147.93 348.84Z" fill="rgba(0,0,0,0.74)"></path>
<path opacity="0.3" d="M220.93 348.84C223.691 348.84 225.93 346.602 225.93 343.84C225.93 341.079 223.691 338.84 220.93 338.84C218.169 338.84 215.93 341.079 215.93 343.84C215.93 346.602 218.169 348.84 220.93 348.84Z" fill="rgba(0,0,0,0.74)"></path>
<path opacity="0.3" d="M293.93 348.84C296.691 348.84 298.93 346.602 298.93 343.84C298.93 341.079 296.691 338.84 293.93 338.84C291.169 338.84 288.93 341.079 288.93 343.84C288.93 346.602 291.169 348.84 293.93 348.84Z" fill="rgba(0,0,0,0.74)"></path>
<path opacity="0.3" d="M366.93 348.84C369.691 348.84 371.93 346.602 371.93 343.84C371.93 341.079 369.691 338.84 366.93 338.84C364.169 338.84 361.93 341.079 361.93 343.84C361.93 346.602 364.169 348.84 366.93 348.84Z" fill="rgba(0,0,0,0.74)"></path>
<path opacity="0.3" d="M439.93 348.84C442.691 348.84 444.93 346.602 444.93 343.84C444.93 341.079 442.691 338.84 439.93 338.84C437.169 338.84 434.93 341.079 434.93 343.84C434.93 346.602 437.169 348.84 439.93 348.84Z" fill="rgba(0,0,0,0.74)"></path>
<path opacity="0.3" d="M512.93 348.84C515.691 348.84 517.93 346.602 517.93 343.84C517.93 341.079 515.691 338.84 512.93 338.84C510.169 338.84 507.93 341.079 507.93 343.84C507.93 346.602 510.169 348.84 512.93 348.84Z" fill="rgba(0,0,0,0.74)"></path>
<path opacity="0.3" d="M585.93 348.84C588.691 348.84 590.93 346.602 590.93 343.84C590.93 341.079 588.691 338.84 585.93 338.84C583.169 338.84 580.93 341.079 580.93 343.84C580.93 346.602 583.169 348.84 585.93 348.84Z" fill="rgba(0,0,0,0.74)"></path>
</svg>