<svg width="84" height="63" viewBox="0 0 84 63" fill="none" xmlns="http://www.w3.org/2000/svg">
<path d="M82.8248 17.6829C82.8328 16.7355 82.6187 15.7994 82.1999 14.9498C81.781 14.1002 81.1691 13.3608 80.4132 12.791C80.404 11.1162 79.8041 9.49862 78.7195 8.22377C77.635 6.94893 76.1355 6.09888 74.4859 5.82367C74.231 4.6063 73.6609 3.47746 72.8327 2.55051C72.0045 1.62355 70.9473 0.931055 69.7674 0.542549V0.542549C69.481 0.452835 69.1882 0.384728 68.8916 0.338745H68.8052H68.651H68.5277H68.392H68.2255H67.8492C66.2103 0.376707 64.6376 0.994019 63.4095 2.08149C62.1813 3.16895 61.3769 4.65646 61.1386 6.28074C58.9736 5.78042 56.9938 6.42895 56.6298 7.80018C56.5387 8.16446 56.5602 8.5479 56.6915 8.89965C57.0616 9.96205 58.2643 10.9812 59.8742 11.4815L60.0839 11.5433L60.3984 11.6236H60.4663C60.1225 12.3558 59.9455 13.1554 59.9482 13.9646C59.9431 14.9575 60.2116 15.9326 60.7242 16.7826C61.2367 17.6326 61.9734 18.3246 62.8532 18.7824L62.7114 18.8689C62.5108 19.0516 62.3511 19.2747 62.2426 19.5236C61.8532 20.2131 61.5488 20.9473 61.3359 21.7101C61.1817 22.3649 61.1571 23.0443 60.9659 23.6929C60.6081 24.885 59.6953 25.8918 59.5904 27.1333C59.5411 27.6892 59.6336 28.3686 59.2389 28.7269C59.1417 28.8114 59.0363 28.8859 58.9243 28.9493C58.6509 29.1428 58.4182 29.3883 58.2397 29.6719C58.1214 29.9292 57.9585 30.1634 57.7586 30.3637C57.4008 30.6293 56.8149 30.6046 56.6422 31.0184C56.4695 31.4323 56.9197 31.9202 56.8149 32.3711C56.71 32.822 56.3276 32.9085 56.0501 33.1617C55.7272 33.5095 55.4998 33.9351 55.3901 34.3971C54.8065 34.5086 54.2055 34.4901 53.6299 34.3428C53.0543 34.1954 52.5181 33.923 52.0594 33.5447C52.2167 33.9435 52.3324 34.3575 52.4048 34.7801C51.8681 34.3698 51.2593 34.0639 50.61 33.8783C49.8794 33.5456 49.2277 33.0614 48.698 32.4576L49.7218 32.3155L45.2008 25.4038L43.8623 25.1259L45.0589 27.4298C44.9589 27.4754 44.8704 27.5429 44.7999 27.6274C44.7295 27.7119 44.6789 27.8111 44.6518 27.9177C44.5881 28.1741 44.5735 28.4403 44.6086 28.7022C44.67 29.3261 44.773 29.9451 44.917 30.5552L45.2624 32.1735C45.2933 32.3217 45.3303 32.4761 45.3735 32.6244C44.9223 32.6022 44.4705 32.6523 44.035 32.7726C43.1384 32.4388 42.2041 32.2168 41.2533 32.1117C41.0498 32.0701 40.84 32.0701 40.6365 32.1117C40.4061 32.2212 40.2052 32.3842 40.0506 32.5873C39.2719 33.4919 38.58 34.4681 37.9843 35.5027C35.5172 39.74 32.3037 43.4398 29.263 47.2694C27.1659 48.1217 25.0503 48.9309 22.9347 49.74L18.3828 51.4819C17.4953 51.8852 16.5325 52.0957 15.5579 52.0996C15.1262 52.0996 14.5896 52.0069 14.3243 52.3775C14.2053 52.5704 14.112 52.7781 14.0468 52.9952L13.578 53.0446C13.3622 52.3029 12.9899 51.6162 12.4863 51.031C12.3752 51.0501 12.2705 51.0961 12.1813 51.165C12.0921 51.2339 12.021 51.3236 11.9744 51.4263C11.8634 51.6301 11.7955 51.8525 11.666 52.0439C11.4254 52.4022 10.9998 52.5752 10.6976 52.8778C10.3954 53.1805 10.2042 53.6499 9.87113 53.9587C9.41703 54.2951 8.88365 54.5079 8.32298 54.5764C7.47776 54.774 6.66259 55.0835 5.89901 55.4967C5.61954 55.672 5.31903 55.811 5.00466 55.9106C4.65723 55.9785 4.30128 55.991 3.94996 55.9476L1.54449 55.7685C1.32844 55.7416 1.10938 55.752 0.896866 55.7994C0.65536 55.8979 0.45124 56.0706 0.313827 56.2925C0.176414 56.5145 0.112765 56.7743 0.132035 57.0347C0.163069 57.2964 0.246862 57.5491 0.378333 57.7773C0.509803 58.0056 0.686223 58.2048 0.896866 58.3627C1.31297 58.6704 1.77512 58.9102 2.26614 59.073C4.34781 59.8846 6.49344 60.521 8.68073 60.9755V61.4634C10.2111 62.236 11.9012 62.638 13.615 62.637C13.7421 62.6456 13.8693 62.6222 13.9851 62.5691C14.1427 62.4511 14.2522 62.2799 14.2935 62.0873C14.8051 60.5552 15.1282 58.9664 15.2557 57.3559V57.3559C15.5567 57.3357 15.8515 57.2603 16.1254 57.1336C16.9518 56.905 17.7783 57.4733 18.6357 57.5659C19.6904 57.6833 20.6649 57.0656 21.6641 56.6888L22.0959 56.5468C21.8114 56.9132 21.4747 57.2357 21.0967 57.5042C20.6834 57.8007 20.2208 58.023 19.8199 58.3318C19.4805 58.6397 19.1175 58.9206 18.7344 59.1719C18.4641 59.2971 18.186 59.4043 17.9017 59.4931C17.4812 59.6495 17.0814 59.857 16.7113 60.1107C16.3833 60.3065 16.1063 60.5775 15.9033 60.9014C15.802 61.067 15.7428 61.2549 15.7309 61.4488C15.7191 61.6427 15.755 61.8364 15.8355 62.0132C15.9208 62.1573 16.0359 62.2816 16.1732 62.3775C16.3104 62.4733 16.4666 62.5387 16.6311 62.5691C16.9562 62.6186 17.2868 62.6186 17.6118 62.5691C18.9194 62.4703 20.2208 62.3529 21.5222 62.2355C22.0724 62.2006 22.619 62.1221 23.1568 62.0008C23.4405 61.9329 23.7242 61.8402 24.0079 61.7599C24.4948 61.6368 24.9928 61.5623 25.4944 61.5375C25.6397 61.5263 25.7859 61.5409 25.9261 61.5808C26.2284 61.6796 26.4442 61.9885 26.7526 62.0502C26.9617 62.0767 27.174 62.049 27.3694 61.9699C28.32 61.7649 29.2897 61.6613 30.2621 61.6611C30.6877 61.6611 31.1873 61.5561 31.3847 61.1608C31.5821 60.7655 31.2243 60.1293 31.064 59.6043C30.9817 59.2684 30.9362 58.9246 30.9283 58.5789C30.8539 57.7281 30.6106 56.9007 30.2128 56.1453C29.9983 55.793 29.8186 55.4207 29.6762 55.0335C31.5415 54.3239 33.3259 53.417 34.9991 52.3281C35.9156 51.6633 36.9433 51.1676 38.0337 50.8642C39.3215 50.7104 40.6274 50.8628 41.8454 51.3089C44.8109 52.1695 47.7283 53.188 50.5853 54.3602C51.9484 54.9223 53.3054 55.5153 54.7116 55.9414C55.1218 56.4924 55.6174 56.9741 56.1796 57.3683C57.1509 57.9154 58.2419 58.2146 59.3561 58.2392C60.8426 58.3751 62.3353 58.4307 63.8278 58.406C64.9704 58.4556 66.1093 58.2444 67.1584 57.7883C67.4088 57.663 67.6429 57.5074 67.8554 57.3251C68.2582 57.3593 68.6636 57.3045 69.043 57.1647C69.4224 57.0249 69.7666 56.8034 70.0512 56.5159C70.8599 55.822 71.4421 54.9011 71.7227 53.8723C72.0866 52.464 71.809 50.7839 72.6725 49.6597C72.9007 49.3509 73.203 49.1039 73.4312 48.795C73.7075 48.372 73.8455 47.8733 73.8259 47.3682C73.836 47.3483 73.8485 47.3296 73.8629 47.3126C74.0523 46.8588 74.1769 46.3806 74.233 45.892C74.3389 45.5079 74.4729 45.1322 74.6339 44.7678C75.0723 43.6782 75.4552 42.567 75.7811 41.4385C76.0037 40.6881 76.1808 39.9249 76.3116 39.1532C76.4041 38.5355 76.4596 37.9178 76.5089 37.3001C76.5742 36.3269 76.7628 35.3659 77.0702 34.4403C77.8423 32.237 78.279 29.93 78.3655 27.5966V27.4607C79.5019 27.3299 80.5483 26.7784 81.2993 25.9143C82.0502 25.0503 82.4514 23.9362 82.4239 22.7911C82.4242 22.1034 82.2792 21.4235 81.9983 20.796C82.5439 19.8498 82.8291 18.7755 82.8248 17.6829ZM60.7562 44.5331C60.824 44.774 60.9042 45.0087 60.9844 45.2434C60.6205 44.8913 60.2689 44.5269 59.905 44.1686C60.0469 44.2181 60.1949 44.2613 60.3306 44.3169C60.4732 44.3752 60.6095 44.4476 60.7377 44.5331H60.7562ZM59.0107 43.3472C56.8766 41.4942 54.4094 40.055 52.226 38.2575C53.4164 38.8443 54.5759 39.53 55.7232 40.1847C57.0842 40.963 58.4638 41.7103 59.8618 42.4268C59.6322 42.7856 59.3372 43.0978 58.9921 43.3472H59.0107ZM59.9173 38.6776L60.0222 38.5725C60.0222 38.8381 60.0222 39.079 60.0222 39.3076L59.4486 39.1099C59.6073 38.9751 59.7577 38.8308 59.8988 38.6776H59.9173ZM41.1485 43.6807C42.0239 42.6883 42.7853 41.6005 43.4182 40.4379C44.2632 41.9142 45.6387 42.9827 46.8044 44.2243C44.9232 43.9834 43.0358 43.7795 41.1485 43.6807Z" fill="url(#ustqcuwxlo)"></path>
<path d="M44.1831 25.6942L45.5277 25.9659L50.1104 32.7541L48.0935 33.0259L44.1831 25.6942Z" fill="rgba(76,74,131,1)"></path>
<path d="M11.5796 53.2299C11.9444 54.4278 12.3937 55.5981 12.9242 56.7321C14.4427 56.4108 15.9369 55.9835 17.3959 55.4535C17.1082 55.025 16.7973 54.6126 16.4646 54.2182C16.1026 53.8238 15.6747 53.4956 15.2001 53.2484C14.6946 53.1339 14.1699 53.1339 13.6643 53.2484C12.9735 53.2299 12.2766 53.2423 11.5796 53.2299Z" fill="rgba(109,77,77,1)"></path>
<path d="M15.2064 55.0397C14.8416 54.8761 14.5163 54.6359 14.2524 54.3354C13.9885 54.0349 13.7922 53.681 13.6768 53.2979C13.4418 52.5283 13.0442 51.8184 12.511 51.2163C12.3987 51.2317 12.2922 51.2755 12.2016 51.3436C12.1109 51.4117 12.0391 51.5018 11.9929 51.6054C11.8819 51.8031 11.814 52.0255 11.6907 52.2231C11.444 52.5752 11.0122 52.7481 10.7038 53.0446C10.3954 53.3411 10.2104 53.8043 9.87733 54.107C9.41942 54.4448 8.88168 54.6577 8.31686 54.7247C7.45856 54.9186 6.62918 55.2239 5.8497 55.6326C5.56441 55.8035 5.26011 55.9403 4.94302 56.0403C4.59134 56.0929 4.23381 56.0929 3.88214 56.0403L1.45199 55.8673C1.24777 55.8337 1.03942 55.8337 0.835201 55.8673C0.58715 55.9571 0.376345 56.1277 0.236558 56.3516C0.0967706 56.5756 0.0360888 56.8401 0.064215 57.1027C0.0929666 57.3631 0.17654 57.6145 0.30944 57.8402C0.442339 58.066 0.621543 58.2609 0.835201 58.4121C1.25737 58.7157 1.72324 58.9532 2.2168 59.1163C4.33266 59.9143 6.51131 60.5341 8.73009 60.9693V61.4511C10.2754 62.2106 11.9739 62.6057 13.6953 62.6061C13.8217 62.6138 13.9482 62.5927 14.0653 62.5443C14.2229 62.4263 14.3324 62.2552 14.3737 62.0626C14.9584 60.3565 15.3009 58.5768 15.3914 56.7753C15.431 56.3176 15.3956 55.8565 15.2866 55.4103C15.1509 54.9717 15.6073 55.157 15.1879 54.9841" fill="rgba(76,74,131,1)"></path>
<path d="M61.8108 45.8673C54.6067 46.2996 47.489 44.1872 40.2726 43.9649C39.3769 43.9058 38.4773 43.9618 37.5957 44.1316C36.6778 44.3808 35.7888 44.7266 34.9435 45.1631C31.0763 46.9667 27.0733 48.4615 23.0765 49.9501L18.4814 51.661C17.5877 52.0653 16.6187 52.2758 15.6381 52.2787C15.2001 52.2787 14.6635 52.186 14.4045 52.5505C13.6582 53.6623 14.0097 55.2868 14.5032 56.5345C14.6635 56.9359 14.9349 57.3745 15.3667 57.4177C15.6696 57.3973 15.9664 57.3219 16.2425 57.1954C17.0752 56.973 17.9078 57.5351 18.7713 57.6278C19.8322 57.7389 20.8191 57.1336 21.8244 56.763C23.4898 56.1453 25.3031 56.1453 27.0548 55.8735C29.9845 55.3856 32.7046 54.0205 35.2458 52.4702C36.1697 51.8108 37.2036 51.3214 38.2989 51.0248C39.5964 50.8716 40.9117 51.0217 42.1415 51.4634C45.1302 52.3079 48.0722 53.31 50.9554 54.4653C52.4542 55.1185 53.9907 55.6816 55.5566 56.1515C58.9746 57.047 62.5884 56.8307 65.8755 55.5338C67.0289 55.0768 68.2809 54.2985 68.3426 53.0261C68.3858 52.3158 67.8307 51.6919 67.4668 51.0804C67.2324 50.6913 66.9919 50.3021 66.739 49.9254C65.5054 48.1341 64.0004 45.7375 61.8108 45.8673Z" fill="rgba(76,74,131,1)"></path>
<path opacity="0.1" d="M61.8108 45.8673C54.6067 46.2996 47.489 44.1872 40.2726 43.9649C39.3769 43.9058 38.4773 43.9618 37.5957 44.1316C36.6778 44.3808 35.7888 44.7266 34.9435 45.1631C31.0763 46.9667 27.0733 48.4615 23.0765 49.9501L18.4814 51.661C17.5877 52.0653 16.6187 52.2758 15.6381 52.2787C15.2001 52.2787 14.6635 52.186 14.4045 52.5505C13.6582 53.6623 14.0097 55.2868 14.5032 56.5345C14.6635 56.9359 14.9349 57.3745 15.3667 57.4177C15.6696 57.3973 15.9664 57.3219 16.2425 57.1954C17.0752 56.973 17.9078 57.5351 18.7713 57.6278C19.8322 57.7389 20.8191 57.1336 21.8244 56.763C23.4898 56.1453 25.3031 56.1453 27.0548 55.8735C29.9845 55.3856 32.7046 54.0205 35.2458 52.4702C36.1697 51.8108 37.2036 51.3214 38.2989 51.0248C39.5964 50.8716 40.9117 51.0217 42.1415 51.4634C45.1302 52.3079 48.0722 53.31 50.9554 54.4653C52.4542 55.1185 53.9907 55.6816 55.5566 56.1515C58.9746 57.047 62.5884 56.8307 65.8755 55.5338C67.0289 55.0768 68.2809 54.2985 68.3426 53.0261C68.3858 52.3158 67.8307 51.6919 67.4668 51.0804C67.2324 50.6913 66.9919 50.3021 66.739 49.9254C65.5054 48.1341 64.0004 45.7375 61.8108 45.8673Z" fill="black"></path>
<path d="M25.4142 53.5635C26.5409 53.9464 27.6778 54.3005 28.825 54.6258C29.4418 53.5696 30.6754 52.8346 30.9406 51.624C30.956 51.5715 30.956 51.5158 30.9406 51.4634C30.9102 51.4121 30.8651 51.3712 30.8111 51.346C29.9864 50.8926 29.0729 50.6249 28.1342 50.5616C27.3941 50.5183 27.0548 51.2904 26.7218 51.834C26.5922 52.0749 25.7164 53.6808 25.4142 53.5635Z" fill="rgba(109,77,77,1)"></path>
<path d="M26.9932 52.8099C26.6561 52.7528 26.3345 52.626 26.0489 52.4378C25.7633 52.2496 25.5198 52.0041 25.334 51.7166C25.1798 51.4387 25.0071 51.0619 24.6864 51.099C24.3657 51.136 24.2608 51.4696 24.193 51.7599C23.9795 52.8543 23.6678 53.9273 23.2616 54.9656C22.8546 56.0093 22.1646 56.9185 21.2694 57.5907C20.85 57.881 20.3874 58.0972 19.9741 58.406C19.632 58.7096 19.267 58.9863 18.8824 59.2337C18.6102 59.3558 18.33 59.459 18.0436 59.5425C17.6222 59.7013 17.2207 59.9086 16.847 60.1602C16.5143 60.3515 16.2328 60.6206 16.0267 60.9446C15.9248 61.1067 15.8656 61.2921 15.8548 61.4833C15.844 61.6745 15.882 61.8654 15.965 62.0379C16.0513 62.18 16.1669 62.3021 16.3042 62.3958C16.4414 62.4896 16.597 62.5528 16.7607 62.5814C17.0899 62.6308 17.4245 62.6308 17.7537 62.5814C19.0675 62.4888 20.3812 62.3715 21.695 62.2541C22.2488 62.2183 22.7992 62.1419 23.3418 62.0256L24.1991 61.7908C24.6889 61.6612 25.1916 61.5867 25.6979 61.5685C25.8453 61.5549 25.9939 61.5696 26.1358 61.6117C26.4381 61.7106 26.654 62.0132 26.9685 62.075C27.1775 62.0951 27.3884 62.0676 27.5853 61.9947C28.5441 61.7889 29.5222 61.6874 30.5027 61.692C30.9345 61.692 31.4402 61.5808 31.6376 61.1979C31.8843 60.7161 31.4772 60.1787 31.3107 59.6599C31.2311 59.3298 31.1856 58.9924 31.175 58.6531C31.1014 57.8131 30.8557 56.9973 30.4534 56.2565C30.1203 55.6388 29.6639 54.9594 29.8983 54.3047C30.0149 54.0967 30.0902 53.868 30.1203 53.6314C30.0278 52.569 27.5976 52.9458 26.9932 52.8099Z" fill="rgba(76,74,131,1)"></path>
<path d="M51.0108 34.2921C49.7324 33.731 48.7079 32.7139 48.1366 31.4385C48.0194 31.1667 47.9207 30.8764 47.8035 30.6046C47.4272 29.6841 46.8398 28.8653 46.0888 28.2143C46.0096 28.1301 45.914 28.0632 45.8079 28.0175C45.7018 27.9718 45.5875 27.9484 45.472 27.9487C45.3574 27.9833 45.2541 28.0479 45.1728 28.1358C45.0915 28.2238 45.0351 28.3319 45.0095 28.449C44.9405 28.7003 44.9237 28.963 44.9601 29.2211C45.0228 29.8285 45.1258 30.431 45.2685 31.0247L45.6201 32.6183C45.6666 32.862 45.739 33.1001 45.8359 33.3286C45.9863 33.5956 46.185 33.8323 46.4219 34.0265C46.7426 34.323 47.0695 34.6072 47.3964 34.8913C47.5855 35.056 47.7923 35.199 48.0132 35.3175C48.3577 35.4821 48.7263 35.5905 49.1049 35.6386C50.5766 35.8305 51.981 36.3727 53.2004 37.2199C53.2004 37.2199 53.2004 36.1513 53.2004 36.034C53.1848 35.7235 53.0775 35.4247 52.892 35.1754C52.327 34.7633 51.6885 34.4635 51.0108 34.2921V34.2921Z" fill="rgba(109,77,77,1)"></path>
<path opacity="0.1" d="M51.0108 34.2921C49.7324 33.731 48.7079 32.7139 48.1366 31.4385C48.0194 31.1667 47.9207 30.8764 47.8035 30.6046C47.4272 29.6841 46.8398 28.8653 46.0888 28.2143C46.0096 28.1301 45.914 28.0632 45.8079 28.0175C45.7018 27.9718 45.5875 27.9484 45.472 27.9487C45.3574 27.9833 45.2541 28.0479 45.1728 28.1358C45.0915 28.2238 45.0351 28.3319 45.0095 28.449C44.9405 28.7003 44.9237 28.963 44.9601 29.2211C45.0228 29.8285 45.1258 30.431 45.2685 31.0247L45.6201 32.6183C45.6666 32.862 45.739 33.1001 45.8359 33.3286C45.9863 33.5956 46.185 33.8323 46.4219 34.0265C46.7426 34.323 47.0695 34.6072 47.3964 34.8913C47.5855 35.056 47.7923 35.199 48.0132 35.3175C48.3577 35.4821 48.7263 35.5905 49.1049 35.6386C50.5766 35.8305 51.981 36.3727 53.2004 37.2199C53.2004 37.2199 53.2004 36.1513 53.2004 36.034C53.1848 35.7235 53.0775 35.4247 52.892 35.1754C52.327 34.7633 51.6885 34.4635 51.0108 34.2921V34.2921Z" fill="black"></path>
<path d="M65.6781 22.0993C66.6455 22.0993 67.4297 21.3084 67.4297 20.3328C67.4297 19.3571 66.6455 18.5662 65.6781 18.5662C64.7107 18.5662 63.9264 19.3571 63.9264 20.3328C63.9264 21.3084 64.7107 22.0993 65.6781 22.0993Z" fill="rgba(76,74,131,1)"></path>
<path d="M64.5926 19.2703C64.1237 19.1577 63.6296 19.2284 63.211 19.468C63.0087 19.6482 62.8469 19.8692 62.736 20.1165C62.3439 20.7923 62.0372 21.5144 61.8232 22.2661C61.669 22.8837 61.6443 23.5817 61.4469 24.2179C61.0892 25.3915 60.1702 26.3859 60.0653 27.6089C60.016 28.1586 60.1085 28.801 59.7076 29.1716C59.6094 29.2567 59.5042 29.3331 59.393 29.4002C59.1154 29.5856 58.88 29.8276 58.7022 30.1105C58.5815 30.3624 58.4164 30.5904 58.215 30.7837C57.8572 31.0493 57.2651 31.0246 57.0924 31.4014C56.9197 31.7782 57.37 32.2909 57.2651 32.7356C57.1602 33.1803 56.7717 33.2668 56.4941 33.5138C56.1671 33.8596 55.9373 34.2858 55.828 34.7492C55.2418 34.8623 54.638 34.8463 54.0586 34.7024C53.4792 34.5584 52.938 34.2898 52.4727 33.9153C52.8796 35.1533 53.0573 36.4553 52.9969 37.7572C53.0276 37.9655 53.0161 38.1779 52.9631 38.3816C52.9102 38.5854 52.8168 38.7763 52.6885 38.9432C54.0799 39.0469 55.4578 39.2869 56.8025 39.6597C57.385 39.8542 58.0148 39.8542 58.5974 39.6597C58.9093 39.492 59.1891 39.2703 59.4239 39.0049C60.164 38.2514 60.9412 37.4299 61.12 36.386C61.1643 35.7962 61.1746 35.2043 61.1509 34.6133C61.2212 33.8803 61.3722 33.1574 61.6011 32.4576C61.9916 31.0052 62.2537 29.5212 62.3844 28.0228C62.4646 27.0963 63.2665 26.3551 63.6859 25.5521C64.4754 23.9894 65.2895 22.3649 65.345 20.6107C65.3697 20.0425 65.1723 19.3321 64.5926 19.2703Z" fill="rgba(76,74,131,1)"></path>
<path opacity="0.1" d="M64.5926 19.2703C64.1237 19.1577 63.6296 19.2284 63.211 19.468C63.0087 19.6482 62.8469 19.8692 62.736 20.1165C62.3439 20.7923 62.0372 21.5144 61.8232 22.2661C61.669 22.8837 61.6443 23.5817 61.4469 24.2179C61.0892 25.3915 60.1702 26.3859 60.0653 27.6089C60.016 28.1586 60.1085 28.801 59.7076 29.1716C59.6094 29.2567 59.5042 29.3331 59.393 29.4002C59.1154 29.5856 58.88 29.8276 58.7022 30.1105C58.5815 30.3624 58.4164 30.5904 58.215 30.7837C57.8572 31.0493 57.2651 31.0246 57.0924 31.4014C56.9197 31.7782 57.37 32.2909 57.2651 32.7356C57.1602 33.1803 56.7717 33.2668 56.4941 33.5138C56.1671 33.8596 55.9373 34.2858 55.828 34.7492C55.2418 34.8623 54.638 34.8463 54.0586 34.7024C53.4792 34.5584 52.938 34.2898 52.4727 33.9153C52.8796 35.1533 53.0573 36.4553 52.9969 37.7572C53.0276 37.9655 53.0161 38.1779 52.9631 38.3816C52.9102 38.5854 52.8168 38.7763 52.6885 38.9432C54.0799 39.0469 55.4578 39.2869 56.8025 39.6597C57.385 39.8542 58.0148 39.8542 58.5974 39.6597C58.9093 39.492 59.1891 39.2703 59.4239 39.0049C60.164 38.2514 60.9412 37.4299 61.12 36.386C61.1643 35.7962 61.1746 35.2043 61.1509 34.6133C61.2212 33.8803 61.3722 33.1574 61.6011 32.4576C61.9916 31.0052 62.2537 29.5212 62.3844 28.0228C62.4646 27.0963 63.2665 26.3551 63.6859 25.5521C64.4754 23.9894 65.2895 22.3649 65.345 20.6107C65.3697 20.0425 65.1723 19.3321 64.5926 19.2703Z" fill="black"></path>
<path d="M62.9519 47.3867C61.4531 46.6703 60.3552 45.3423 59.1402 44.1996C56.8272 42.0192 53.9962 40.4936 51.5598 38.4367C49.9439 37.084 48.4759 35.5089 46.7304 34.3724C45.1669 33.3797 43.3963 32.7605 41.5555 32.5627C41.3526 32.5159 41.1417 32.5159 40.9388 32.5627C40.7056 32.6619 40.5033 32.8219 40.3528 33.0259C39.5662 33.9145 38.8661 34.8763 38.2619 35.8981C35.178 41.1483 30.7926 45.5584 27.1597 50.438C27.0763 50.5393 27.0153 50.6572 26.9808 50.7839C26.9655 50.9732 27.0132 51.1621 27.1165 51.3213L27.8567 52.7667C28.2699 53.582 28.9361 54.527 29.8242 54.3664C30.2242 54.2505 30.582 54.0209 30.8543 53.7055L34.1726 50.5245L37.6513 47.1953C39.6867 45.2496 41.7591 43.2545 43.0913 40.7592C44.1275 42.5628 45.9718 43.7425 47.23 45.3917C47.7111 46.0094 48.1058 46.7073 48.5376 47.3744C49.2222 48.4368 50.0055 49.4374 50.7827 50.4627L54.7733 55.5585C55.279 56.2782 55.905 56.9051 56.6237 57.4115C57.6076 57.9479 58.7049 58.2422 59.8248 58.2701C61.3238 58.4039 62.8288 58.4575 64.3335 58.4307C65.4859 58.4771 66.6342 58.2662 67.695 57.813C68.2238 57.5802 68.6755 57.2017 68.9977 56.7216C69.3198 56.2415 69.4991 55.6797 69.5146 55.1014C69.4531 54.5032 69.257 53.9266 68.9409 53.4152C67.4976 50.8395 65.6349 48.6653 62.9519 47.3867Z" fill="rgba(76,74,131,1)"></path>
<path d="M66.7575 22.9146C67.5035 22.9146 68.1082 22.3062 68.1082 21.5558C68.1082 20.8053 67.5035 20.1969 66.7575 20.1969C66.0115 20.1969 65.4067 20.8053 65.4067 21.5558C65.4067 22.3062 66.0115 22.9146 66.7575 22.9146Z" fill="#E8E8F0"></path>
<path d="M66.4615 20.5366C66.7628 21.1431 66.8159 21.8433 66.6095 22.4884C66.3965 23.1219 66.1043 23.7259 65.7398 24.2858C65.4264 24.8628 65.0476 25.4016 64.6111 25.8918C66.6958 25.9906 68.7127 25.1753 70.5446 24.187C72.0249 23.3902 73.499 22.4081 74.2885 20.9196C74.0529 20.9757 73.8082 20.9817 73.5702 20.937C73.3321 20.8923 73.1061 20.7979 72.9069 20.6601C72.5092 20.3862 72.1539 20.0553 71.8522 19.678L70.8098 18.5045C70.5734 18.2463 70.3665 17.9625 70.193 17.6582C69.9639 17.2421 69.8671 16.7659 69.9155 16.2932C69.4998 16.7272 69.0363 17.1127 68.5339 17.4421C67.7875 17.93 66.9672 18.2821 66.2147 18.7639C65.9557 18.9368 65.3636 19.2086 65.5178 19.5545C65.672 19.9004 66.2517 20.166 66.4615 20.5366Z" fill="rgba(109,77,77,1)"></path>
<path opacity="0.1" d="M66.4615 20.5366C66.7628 21.1431 66.8159 21.8433 66.6095 22.4884C66.3965 23.1219 66.1043 23.7259 65.7398 24.2858C65.4264 24.8628 65.0476 25.4016 64.6111 25.8918C66.6958 25.9906 68.7127 25.1753 70.5446 24.187C72.0249 23.3902 73.499 22.4081 74.2885 20.9196C74.0529 20.9757 73.8082 20.9817 73.5702 20.937C73.3321 20.8923 73.1061 20.7979 72.9069 20.6601C72.5092 20.3862 72.1539 20.0553 71.8522 19.678L70.8098 18.5045C70.5734 18.2463 70.3665 17.9625 70.193 17.6582C69.9639 17.2421 69.8671 16.7659 69.9155 16.2932C69.4998 16.7272 69.0363 17.1127 68.5339 17.4421C67.7875 17.93 66.9672 18.2821 66.2147 18.7639C65.9557 18.9368 65.3636 19.2086 65.5178 19.5545C65.672 19.9004 66.2517 20.166 66.4615 20.5366Z" fill="black"></path>
<path d="M66.4861 20.7404C66.2749 21.0382 66.1615 21.3944 66.1615 21.7596C66.1615 22.1248 66.2749 22.4809 66.4861 22.7787C66.5478 22.8528 66.7698 23.3161 66.8623 23.3223C66.9076 23.3185 66.9518 23.3056 66.992 23.2844C67.0323 23.2632 67.0679 23.2341 67.0967 23.1988C67.571 22.7036 68.0119 22.1774 68.4166 21.6237C68.8297 21.0714 69.4235 20.6822 70.0943 20.5243C70.9252 20.4925 71.7418 20.7476 72.4072 21.2469C72.7166 21.3883 72.989 21.5998 73.2029 21.8646C73.3518 22.1369 73.4401 22.4382 73.462 22.7478C73.6635 24.6122 73.7418 26.4878 73.6963 28.3625C73.7318 29.7164 73.643 31.0706 73.4311 32.4082C73.2954 33.0938 73.0981 33.7671 73.0055 34.4651C72.9331 35.0799 72.9043 35.6991 72.9192 36.3181V38.8999C72.9027 39.3736 72.9358 39.8476 73.0178 40.3144C73.1412 40.8765 73.4064 41.4015 73.5853 41.9512C73.7698 42.5827 73.8957 43.2299 73.9616 43.8845L74.3131 46.5529C74.4241 47.3929 74.5105 48.3133 73.9986 49.0236C73.7703 49.3262 73.4681 49.5733 73.2337 49.876C72.3641 51.0125 72.617 52.6369 72.2777 54.0267C71.992 55.0439 71.4023 55.9492 70.5877 56.6209C70.2973 56.9087 69.9474 57.1291 69.5627 57.2668C69.178 57.4044 68.7678 57.456 68.3611 57.4177C67.2755 57.2139 66.6279 56.0835 66.3319 55.0149C66.0358 53.9464 65.931 52.7852 65.2895 51.8834C64.7008 51.2008 64.005 50.6187 63.2294 50.1601C62.4447 49.6945 61.8684 48.9449 61.6196 48.0662C61.5518 47.677 61.6196 47.2755 61.5518 46.8802C61.4938 46.3827 61.3035 45.91 61.0008 45.5112C60.6981 45.1125 60.2941 44.8024 59.8309 44.6134C59.2758 44.3972 58.5973 44.3169 58.2766 43.8104C59.0707 43.3125 59.6495 42.5345 59.8988 41.63C60.1442 40.7318 60.2768 39.8063 60.2935 38.8752L60.4785 35.7869C60.5649 34.3971 60.6019 33.0259 61.2125 31.7782C61.4839 31.2223 61.8293 30.6973 62.1069 30.1476C62.4831 29.3751 62.8026 28.5761 63.0629 27.7571C63.507 26.4847 63.9511 25.2124 64.3458 23.9276C64.4998 23.3039 64.7362 22.7036 65.0489 22.1425C65.382 21.5619 65.8631 20.864 66.4861 20.7404Z" fill="#E8E8F0"></path>
<path d="M59.6089 40.9012H60.4292L60.6019 39.6659C60.6243 39.4179 60.6825 39.1745 60.7746 38.9432C60.9101 38.6977 61.0692 38.466 61.2495 38.2514C62.0514 37.1087 61.9959 35.5954 62.1932 34.2056C62.5509 32.3695 63.1568 30.5907 63.9943 28.9184L65.5856 25.3668C65.7304 25.0763 65.8461 24.7722 65.931 24.4588C65.9977 24.1128 66.0307 23.7612 66.0297 23.4088C66.0297 22.859 66.2024 20.8578 66.2209 20.3204C66.2209 20.1166 65.7706 20.2278 65.6781 20.0486C65.4807 19.6533 65.2093 20.7219 64.8331 20.9566C64.4796 21.2268 64.2223 21.6036 64.0991 22.0314C63.7537 22.9208 63.544 23.8844 63.2233 24.7676C62.9444 25.6895 62.4323 26.5236 61.7368 27.1889C61.4099 27.473 61.0337 27.7016 60.7253 28.0104C59.7384 28.9863 59.6397 30.5367 59.6089 31.9326C59.5842 32.785 59.4238 40.9012 59.6089 40.9012Z" fill="rgba(76,74,131,1)"></path>
<path d="M71.4143 19.2642C71.033 19.4638 70.7028 19.7488 70.4493 20.097C70.1958 20.4451 70.0258 20.847 69.9525 21.2716C69.8117 22.1233 69.5629 22.9536 69.2124 23.7423C68.2132 25.4841 65.6658 25.9906 64.9565 27.8745C64.7782 28.508 64.6828 29.1621 64.6728 29.8202C64.5494 31.1729 64.1053 32.4762 63.9697 33.8227C63.9018 34.8708 63.9266 35.9229 64.0437 36.9666L64.938 47.6029C65.1092 49.1675 65.0196 50.7497 64.6728 52.2849C65.5895 52.4158 66.5243 52.2605 67.3497 51.8402C68.1823 51.4572 68.9471 50.9322 69.7551 50.4875C71.1367 49.7215 72.6664 49.1842 73.8815 48.165C74.0993 47.9912 74.2869 47.7825 74.4366 47.5473C74.6225 47.1009 74.7469 46.6313 74.8066 46.1514C74.9116 45.7751 75.0457 45.4074 75.2076 45.0519C75.6527 43.9782 76.0398 42.8813 76.3671 41.766C76.5897 41.0281 76.7668 40.2772 76.8976 39.5176C76.9962 38.9 77.0517 38.2823 77.1011 37.6646C77.1655 36.7068 77.3563 35.7618 77.6685 34.8542C78.4425 32.6853 78.8813 30.4108 78.97 28.1092C78.9939 27.7783 78.9711 27.4456 78.9021 27.121C78.7666 26.724 78.5844 26.3445 78.3593 25.9906C77.9893 25.2927 77.7425 24.5268 77.4218 23.8165C76.5471 22.252 75.2936 20.933 73.7766 19.9807C73.0611 19.4928 72.2223 18.9739 71.4143 19.2642Z" fill="rgba(76,74,131,1)"></path>
<path d="M52.7811 36.6208C52.148 36.2878 51.5747 35.8515 51.0849 35.3298C50.8629 35.0704 50.6779 34.7801 50.4681 34.5207C49.8962 33.9044 49.1528 33.4741 48.334 33.2853C47.5241 33.107 46.6959 33.0262 45.8669 33.0445C45.3104 33.0071 44.7519 33.0741 44.2201 33.2421C43.9548 33.331 43.716 33.485 43.5253 33.69C43.3347 33.895 43.1982 34.1444 43.1284 34.4157C43.1059 34.7514 43.1709 35.0873 43.3168 35.3904C43.4627 35.6936 43.6847 35.9536 43.961 36.1451C44.4425 36.5409 45.0113 36.8162 45.6202 36.9481C46.116 37.0363 46.6164 37.0961 47.119 37.1272C50.0672 37.4361 52.7009 39.042 55.2853 40.5059C57.5551 41.7989 59.8701 43.0013 62.2303 44.1131C62.3218 43.4066 62.3609 42.6944 62.3475 41.9821C62.3475 41.4509 62.3043 40.6356 61.8047 40.3206C61.0941 40.0227 60.3539 39.8012 59.5966 39.6597C58.0745 39.1618 56.5887 38.5592 55.1496 37.8561C54.3354 37.504 53.5521 37.0717 52.7811 36.6208Z" fill="rgba(109,77,77,1)"></path>
<path d="M65.6781 19.9313C68.5804 19.9313 70.9332 17.5613 70.9332 14.6378C70.9332 11.7143 68.5804 9.34439 65.6781 9.34439C62.7759 9.34439 60.4231 11.7143 60.4231 14.6378C60.4231 17.5613 62.7759 19.9313 65.6781 19.9313Z" fill="rgba(109,77,77,1)"></path>
<path d="M72.913 25.2618C72.4934 25.8516 72.1514 26.4931 71.8954 27.1704C71.2786 28.5046 70.23 29.6411 69.7181 31.0555C69.2061 32.47 69.2 34.2859 68.1453 35.441C67.9342 35.6178 67.7744 35.8482 67.6827 36.1081C67.6785 36.2697 67.6619 36.4308 67.6333 36.5899C67.4791 37.0099 66.7945 37.0284 66.665 37.4608C66.628 37.5843 66.665 37.7202 66.6033 37.8437C66.4984 38.1217 66.1284 38.1649 65.8878 38.3317C65.3759 38.6776 65.4807 39.4806 65.1168 39.9809C64.958 40.1672 64.7529 40.3082 64.5222 40.3895C64.2915 40.4709 64.0434 40.4897 63.8031 40.4441C63.3245 40.3464 62.8645 40.1733 62.44 39.9315C62.2873 39.8478 62.1196 39.7953 61.9465 39.777C61.7418 39.7842 61.5441 39.8531 61.3791 39.9747C60.9139 40.3178 60.5409 40.771 60.2934 41.2938C60.0458 41.8165 59.9314 42.3926 59.9605 42.9704C60.0312 44.1279 60.3069 45.2635 60.7746 46.3244C60.8266 46.5081 60.917 46.6786 61.0399 46.8247C61.2235 46.9691 61.4458 47.0555 61.6786 47.0731C61.9115 47.0907 62.1442 47.0386 62.3474 46.9235C62.7499 46.6841 63.1782 46.4914 63.6242 46.3491C64.4384 46.2008 65.234 46.7629 66.0605 46.7135C66.6623 46.6245 67.229 46.3749 67.7012 45.9908C68.5311 45.4949 69.2766 44.8694 69.9093 44.1378C70.267 43.6622 70.5261 43.1248 70.8468 42.6184C71.2549 42.0027 71.6976 41.4108 72.1729 40.8456L75.2075 37.1396C75.5089 36.7876 75.7812 36.4117 76.0216 36.0155C76.2912 35.4747 76.4982 34.9048 76.6384 34.3169C76.9628 33.3381 77.1698 32.3242 77.2552 31.2964C77.274 30.4467 77.1996 29.5974 77.0332 28.764C76.9411 27.9341 76.7335 27.1212 76.4164 26.3489C75.7564 24.953 74.1528 23.8164 72.913 25.2618Z" fill="rgba(76,74,131,1)"></path>
<path d="M83.4725 18.3562C83.477 17.4179 83.2591 16.4919 82.8366 15.6544C82.4141 14.8168 81.7992 14.0916 81.0424 13.5384C81.0176 11.8715 80.4035 10.2673 79.3093 9.01087C78.215 7.75447 76.7114 6.92723 75.0657 6.6761C74.7493 5.09556 73.8856 3.67776 72.6269 2.673C71.3682 1.66824 69.7954 1.1411 68.1863 1.18469C66.5773 1.22828 65.0353 1.83978 63.8327 2.91122C62.63 3.98266 61.8441 5.44515 61.6135 7.0405C59.4301 6.54637 57.4317 7.18873 57.0678 8.53525C56.7039 9.88178 58.2459 11.6236 60.5465 12.2413C61.2722 12.4448 62.0278 12.5201 62.7793 12.4637C63.3148 13.2541 64.0097 13.9235 64.8191 14.4288C65.6286 14.9341 66.5347 15.2641 67.4792 15.3976C67.759 16.6709 68.3873 17.8411 69.2936 18.7771C70.2 19.7131 71.3486 20.3779 72.6109 20.6972C72.9624 21.5413 73.5051 22.292 74.196 22.89C74.196 23.0567 74.196 23.2296 74.196 23.4026C74.196 23.9874 74.3111 24.5665 74.5345 25.1068C74.758 25.6472 75.0856 26.1381 75.4985 26.5516C75.9115 26.9652 76.4017 27.2932 76.9413 27.517C77.4808 27.7408 78.059 27.856 78.643 27.856C79.227 27.856 79.8053 27.7408 80.3449 27.517C80.8844 27.2932 81.3746 26.9652 81.7876 26.5516C82.2005 26.1381 82.5281 25.6472 82.7516 25.1068C82.9751 24.5665 83.0901 23.9874 83.0901 23.4026C83.0905 22.7229 82.9453 22.051 82.6645 21.4322C83.2074 20.4992 83.4867 19.436 83.4725 18.3562V18.3562Z" fill="rgba(22,3,3,1)"></path>
<path opacity="0.1" d="M58.548 8.81938C58.9119 7.47286 60.9103 6.83049 63.0938 7.32463C63.3528 5.70377 64.176 4.22689 65.4176 3.15528C66.6593 2.08367 68.2394 1.48637 69.8785 1.46909H70.3287C69.7009 1.27765 69.0483 1.17986 68.392 1.1788C66.7529 1.19608 65.1728 1.79334 63.9312 2.86496C62.6895 3.93657 61.8663 5.41345 61.6073 7.03431C59.4239 6.54017 57.4255 7.18257 57.0616 8.5291C56.6977 9.87562 58.2396 11.6174 60.5403 12.2351C60.9716 12.3547 61.4138 12.4313 61.8602 12.4637C59.6583 11.8027 58.1841 10.1968 58.548 8.81938Z" fill="black"></path>
<path opacity="0.1" d="M75.6516 23.662C75.6424 23.4933 75.6424 23.3242 75.6516 23.1555C74.957 22.5609 74.4137 21.8092 74.0665 20.9628C72.8024 20.645 71.6522 19.9798 70.7455 19.0423C69.8387 18.1049 69.2116 16.9324 68.9348 15.657C67.9894 15.5262 67.0819 15.1979 66.2712 14.6936C65.4606 14.1892 64.7647 13.52 64.2287 12.7293C63.7907 12.7658 63.3501 12.7533 62.9149 12.6922C63.4551 13.4197 64.1338 14.0328 64.9119 14.496C65.69 14.9593 66.5521 15.2637 67.4483 15.3914C67.7282 16.6647 68.3564 17.8349 69.2627 18.7709C70.1691 19.7069 71.3177 20.3718 72.58 20.691C72.9315 21.5351 73.4742 22.2858 74.1652 22.8837C74.1652 23.0505 74.1652 23.2234 74.1652 23.3964C74.1453 24.5936 74.5991 25.7501 75.4277 26.6134C76.2562 27.4766 77.3922 27.9766 78.5875 28.0042C77.7154 27.6652 76.9671 27.0679 76.4426 26.2921C75.918 25.5163 75.6421 24.5989 75.6516 23.662V23.662Z" fill="black"></path>
<defs>
<linearGradient id="ustqcuwxlo" x1="38281.1" y1="41160.7" x2="38281.1" y2="34869" gradientUnits="userSpaceOnUse">
<stop stop-color="#808080" stop-opacity="0.25"></stop>
<stop offset="0.54" stop-color="#808080" stop-opacity="0.12"></stop>
<stop offset="1" stop-color="#808080" stop-opacity="0.1"></stop>
</linearGradient>
</defs>
</svg>