<svg preserveAspectRatio="none" xmlns="http://www.w3.org/2000/svg" viewBox="-0.0 -0.0 208.9 209.0">
<g><path d="m0 120.9v-5.7l115.2-115.2h5.7l-120.9 120.9zm132.4-120.9h-5.7l-126.7 126.6v5.7l132.4-132.3zm-22.9 0h-5.7l-103.8 103.8v5.7l109.5-109.5zm-11.4 0h-5.7l-92.4 92.4v5.7l98.1-98.1zm45.7 0h-5.7l-138.1 138.1v5.7l143.8-143.8zm34.2 0h-5.7l-172.3 172.3v5.7l178-178zm22.9 0h-5.7l-195.2 195.2v5.7l200.9-200.9zm-11.5 0h-5.7l-183.7 183.7v5.7l189.4-189.4zm-22.8 0h-5.7l-160.9 160.9v5.7l166.6-166.6zm-137 0h-5.7l-23.9 23.9v5.7l29.6-29.6zm57.1 0h-5.7l-81 81v5.7l86.7-86.7zm122.2 0h-2.3l-206.6 206.6v2.3h3.4l205.5-205.5v-3.4zm-167.9 0h-5.7l-35.3 35.3v5.7l41-41zm-34.3 0h-5.7l-1 1v5.7l6.7-6.7zm11.5 0h-5.7l-12.5 12.4v5.7l18.2-18.1zm-18.2 75.3l75.3-75.3h-5.7l-69.6 69.5v5.8zm52.4-75.3h-5.7l-46.7 46.7v5.7l52.4-52.4zm11.4 0h-5.7l-58.1 58.1v5.7l63.8-63.8zm91.4 0h-5.7l-149.5 149.5v5.7l155.2-155.2zm53.7 140.4v-5.7l-74.2 74.2h5.7l68.5-68.5zm0 11.4v-5.7l-62.8 62.8h5.7l57.1-57.1zm0 11.4v-5.7l-51.4 51.4h5.7l45.7-45.7zm0-34.2v-5.7l-85.7 85.7h5.7l80-80zm-34.3 79.9l34.3-34.3v-5.7l-40 40h5.7zm34.3-5.7l-5.7 5.7h5.7v-5.7zm0-5.7v-5.7l-17.1 17.1h5.7l11.4-11.4zm0-11.4v-5.7l-28.5 28.5h5.7l22.8-22.8zm0-68.6v-5.7l-97.1 97.1h5.7l91.4-91.4zm0-102.7v-5.7l-199.8 199.8h5.7l194.1-194.1zm0 34.2v-5.7l-165.6 165.6h5.7l159.9-159.9zm0-11.4v-5.7l-177 177h5.7l171.3-171.3zm0 68.5v-5.7l-108.5 108.5h5.7l102.8-102.8zm0-45.7v-5.7l-154.2 154.2h5.7l148.5-148.5zm0-34.2v-5.7l-188.4 188.4h5.7l182.7-182.7zm0 68.5v-5.7l-119.9 119.9h5.7l114.2-114.2zm0-22.8v-5.7l-142.7 142.7h5.7l137-137zm0 11.4v-5.7l-131.3 131.3h5.7l125.6-125.6z" fill="rgba(253,250,250,1)"></path></g>
</svg>