<svg width="112" height="349" viewBox="0 0 112 349" fill="none" xmlns="http://www.w3.org/2000/svg">
<path d="M18 203.479H0V235.566H18V203.479Z" fill="#3F3D56"/>
<path d="M9 215.609C10.945 215.609 12.5217 214.033 12.5217 212.088C12.5217 210.143 10.945 208.566 9 208.566C7.055 208.566 5.47827 210.143 5.47827 212.088C5.47827 214.033 7.055 215.609 9 215.609Z" fill="#F2F2F2"/>
<path d="M11.1824 176.059C11.1824 176.059 5.70392 207.834 15.5651 208.93C25.4263 210.025 16.6608 174.963 16.6608 174.963L11.1824 176.059Z" fill="#FFB9B9"/>
<path d="M17.7564 67.5858C17.7564 67.5858 6.2517 176.607 9.53876 178.25C12.8258 179.894 21.5913 182.085 23.2349 180.442C24.8784 178.798 31.4525 111.413 31.4525 111.413L26.5219 76.3513L17.7564 67.5858Z" fill="#575A89"/>
<path opacity="0.1" d="M17.7564 67.5858C17.7564 67.5858 6.2517 176.607 9.53876 178.25C12.8258 179.894 21.5913 182.085 23.2349 180.442C24.8784 178.798 31.4525 111.413 31.4525 111.413L26.5219 76.3513L17.7564 67.5858Z" fill="black"/>
<path d="M73.3625 18.5538H38.8484V55.8072H73.3625V18.5538Z" fill="#2F2E41"/>
<path d="M46.7921 35.263C46.7921 35.263 45.6964 59.3682 38.0266 61.0117C30.3568 62.6552 45.1486 90.5953 45.1486 90.5953L68.1581 88.4039L73.6365 55.5332C73.6365 55.5332 61.0361 53.3419 65.4188 36.3587L46.7921 35.263Z" fill="#FFB9B9"/>
<path opacity="0.1" d="M46.7921 35.263C46.7921 35.263 45.6964 59.3682 38.0266 61.0117C30.3568 62.6552 45.1486 90.5953 45.1486 90.5953L68.1581 88.4039L73.6365 55.5332C73.6365 55.5332 61.0361 53.3419 65.4188 36.3587L46.7921 35.263Z" fill="black"/>
<path d="M47.8879 310.829L49.5309 320.142L59.3929 317.951L57.2009 308.637L47.8879 310.829Z" fill="#FFB9B9"/>
<path d="M79.115 296.585L75.828 306.446L86.237 311.924L86.785 303.707L79.115 296.585Z" fill="#FFB9B9"/>
<path d="M36.3831 148.667C36.3831 148.667 23.2348 187.016 25.9741 205.095C28.7133 223.174 39.6702 309.185 39.6702 309.185C39.6702 309.185 52.2706 317.403 59.9404 308.089L54.4619 234.678C54.4619 234.678 55.5576 190.303 59.9404 194.686C64.3231 199.068 81.3064 250.566 81.3064 250.566L78.0192 297.133C78.0192 297.133 79.6628 311.377 89.524 305.35L103.22 253.853C103.22 253.853 98.8373 184.824 96.646 182.085C94.4546 179.346 80.2107 147.571 80.2107 147.571L36.3831 148.667Z" fill="#2F2E41"/>
<path d="M58.0229 45.946C66.7974 45.946 73.9105 38.8329 73.9105 30.0585C73.9105 21.2841 66.7974 14.171 58.0229 14.171C49.2485 14.171 42.1355 21.2841 42.1355 30.0585C42.1355 38.8329 49.2485 45.946 58.0229 45.946Z" fill="#FFB9B9"/>
<path d="M41.8616 69.2294C41.8616 69.2294 47.8879 77.9948 55.5577 71.9686C63.2275 65.9423 67.6102 65.3944 67.6102 65.3944L76.9236 70.8729L74.7322 92.2388L78.0193 151.406C78.0193 151.406 38.0266 154.693 35.8353 150.31C33.6439 145.928 38.5745 127.301 38.5745 127.301L31.4525 87.3082V69.2294H41.8616Z" fill="#6C63FF"/>
<path d="M54.462 85.1168C54.462 85.1168 44.6008 54.9854 41.3137 54.4376C38.0267 53.8897 28.7133 60.4638 28.7133 60.4638C28.7133 60.4638 15.0172 64.8466 15.0172 67.5858C15.0172 70.3251 17.2086 70.3251 17.2086 70.3251L24.8784 85.1169C24.8784 85.1169 28.1655 98.2651 27.0698 107.031C26.409 112.299 26.2257 117.617 26.522 122.918C26.522 122.918 14.4694 195.234 20.4957 197.425C26.522 199.616 26.522 201.808 26.522 201.808C26.522 201.808 35.2875 206.738 36.931 204.547C38.5745 202.356 54.462 108.126 54.462 108.126C54.462 108.126 62.6796 92.2388 54.462 85.1168Z" fill="#575A89"/>
<path d="M56.6533 85.1169C56.6533 85.1169 61.5839 73.6121 58.8447 65.9423C58.8447 65.9423 61.5839 65.3945 62.6796 63.7509C63.7753 62.1074 62.6796 53.8897 65.4188 53.3419C68.158 52.7941 88.4282 53.3419 89.5239 54.4376C90.6196 55.5333 93.9067 63.2031 93.9067 63.2031H92.2632L80.2106 82.9255C80.2106 82.9255 86.2369 120.179 85.1412 126.205C84.0455 132.231 101.029 157.432 103.22 159.076C105.411 160.719 115.273 187.016 110.89 189.755C106.507 192.494 68.1581 210.025 66.5145 201.26C64.871 192.494 53.3662 139.901 53.3662 139.901C53.3662 139.901 52.8184 110.866 54.4619 103.744C56.1054 96.6216 56.6533 85.1169 56.6533 85.1169Z" fill="#575A89"/>
<path d="M82.402 172.772C82.402 172.772 70.8973 210.573 82.402 208.93C93.9068 207.286 91.1675 171.676 91.1675 171.676L82.402 172.772Z" fill="#FFB9B9"/>
<path d="M58.3212 317.97C58.3212 317.97 67.4041 320.565 66.7553 326.404C66.5526 328.101 65.906 329.714 64.8808 331.081C63.8557 332.447 62.4882 333.52 60.9163 334.189C59.9655 334.808 59.2142 335.688 58.7536 336.724C58.293 337.761 58.1428 338.908 58.3212 340.028C58.97 343.921 53.131 349.76 43.3994 347.165C33.6677 344.57 35.6141 341.975 35.6141 341.975C36.1436 339.096 37.7724 336.537 40.1555 334.838C44.0482 332.243 48.5896 323.16 48.5896 322.511C48.5896 321.863 49.8872 317.321 49.8872 317.321C49.8872 317.321 55.0774 314.077 58.3212 317.97Z" fill="#2F2E41"/>
<path d="M77.4714 305.35C77.4714 305.35 67.6103 309.733 69.8016 315.211C71.993 320.69 79.115 328.36 80.2106 336.577C81.3063 344.795 90.6196 351.917 97.1938 347.534C103.768 343.151 96.0981 334.386 96.0981 334.386C96.0981 334.386 87.8804 319.046 87.3326 315.759C86.7847 312.472 88.4283 309.185 85.1412 308.089C81.8542 306.994 77.4714 305.35 77.4714 305.35Z" fill="#2F2E41"/>
<path opacity="0.1" d="M91.9894 68.9554C91.9894 68.9554 90.6198 62.6552 92.2633 66.4901C93.9068 70.325 105.959 116.892 95.0025 144.832C95.0025 144.832 93.9068 179.346 92.8111 179.346C91.7155 179.346 78.5672 178.798 79.115 174.963C79.6629 171.128 80.7585 109.222 80.7585 105.387C80.7585 101.552 82.676 76.6252 82.676 76.6252L91.9894 68.9554Z" fill="black"/>
<path d="M89.524 59.3682C91.2799 61.5475 92.7526 63.9405 93.9067 66.4901C95.5503 70.3251 107.603 116.892 96.646 144.832C96.646 144.832 95.5503 179.346 94.4546 179.346C93.3589 179.346 80.2106 178.798 80.7585 174.963C81.3064 171.128 82.402 109.222 82.402 105.387C82.402 101.552 79.115 75.8035 79.115 75.8035L89.524 59.3682Z" fill="#575A89"/>
<path d="M49.0667 2.08769C43.3185 3.88489 39.0265 8.58103 35.0264 13.0832C33.4707 14.6751 32.1511 16.4816 31.1079 18.4478C30.0915 20.9541 29.5547 23.6291 29.5255 26.3335C29.2586 30.5251 29.1733 34.7229 29.2697 38.9271C29.3621 42.9544 29.6086 47.0828 28.3707 50.9162C27.1739 54.6224 24.6824 57.7553 22.971 61.2538C20.2409 66.8348 19.6109 73.6071 22.131 79.286C23.5181 82.4117 25.7629 85.0723 27.4403 88.0523C30.4061 93.3597 31.5047 99.5089 30.5602 105.515L38.4492 95.2953C43.5019 88.7498 48.7145 81.8528 50.136 73.707C52.1979 61.8919 45.8953 50.3195 44.6516 38.3904C44.3048 35.064 44.4214 31.4718 46.3041 28.7077C49.0832 24.6275 55.128 23.1861 56.7991 18.5408C57.0408 20.4863 68.6937 26.6816 70.0972 25.4765C70.9605 27.8056 71.2115 30.3173 70.826 32.7711C70.4405 35.225 69.4316 37.5388 67.8958 39.491C66.7679 40.8915 65.3814 42.0699 64.2813 43.4923C61.4321 47.1763 60.7838 52.1436 61.186 56.7834C61.5882 61.4233 62.924 65.9293 63.6301 70.5327C64.2271 75.1161 64.5122 79.7348 64.4834 84.3569C64.5358 87.5564 64.448 91.1269 62.2042 93.4084C65.8839 92.1186 69.2458 90.0582 72.0653 87.3648C73.5954 85.6994 75.2387 84.1417 76.9835 82.7028C80.5125 80.157 85.2938 79.4018 88.1727 76.1388C90.7431 73.2254 91.1526 68.9515 90.549 65.1135C89.9453 61.2755 88.4733 57.6239 87.7325 53.81C86.7963 48.959 87.058 43.9528 88.4948 39.2258C89.5428 35.7927 91.2152 32.4833 91.4197 28.8996C91.8368 21.59 86.2009 15.4759 80.7821 10.5525C72.6642 3.17663 60.092 -1.35944 49.0667 2.08769Z" fill="#2F2E41"/>
</svg>
