<svg width="314" height="513" viewBox="0 0 314 513" fill="none" xmlns="http://www.w3.org/2000/svg">
<path d="M124.628 512.497C170.304 512.497 207.331 504.642 207.331 494.952C207.331 485.262 170.304 477.406 124.628 477.406C78.9523 477.406 41.9248 485.262 41.9248 494.952C41.9248 504.642 78.9523 512.497 124.628 512.497Z" fill="#E6E6E6"></path>
<path d="M8.83963 87.9826L2.91306 89.9398L2.09177 95.0656C2.03724 95.4061 2.08693 95.7551 2.23429 96.0668C2.38164 96.3786 2.61981 96.6385 2.91752 96.8124C3.21522 96.9864 3.55857 97.0663 3.9025 97.0417C4.24643 97.017 4.57484 96.889 4.8447 96.6743L8.6312 93.6624L8.83963 87.9826Z" fill="#2F2E41"></path>
<path d="M26.9786 65.4799L8.63123 93.6624L2.91309 89.9397L21.2604 61.7573C21.7547 60.9998 22.5293 60.4693 23.4142 60.2823C24.2992 60.0952 25.2222 60.2669 25.9808 60.7595C26.7356 61.256 27.2639 62.0305 27.4507 62.9145C27.6376 63.7984 27.4679 64.7204 26.9786 65.4799Z" fill="#6C63FF"></path>
<path d="M26.9786 65.4799L25.1864 68.2328C23.9632 68.291 22.7526 67.9627 21.7263 67.2946C20.7 66.6264 19.91 65.6523 19.4682 64.5102L21.2604 61.7573C21.7547 60.9998 22.5293 60.4693 23.4142 60.2823C24.2992 60.0952 25.2222 60.2669 25.9808 60.7595C26.7356 61.256 27.2639 62.0305 27.4507 62.9145C27.6376 63.7984 27.4679 64.7204 26.9786 65.4799Z" fill="#2F2E41"></path>
<path d="M106.838 118.26L76.0949 130.725L28.4788 96.7111C28.4788 96.7111 16.333 71.2049 1.75798 83.3507C-3.23367 87.5104 16.8624 103.699 18.7622 105.213C23.5116 108.998 66.9558 152.329 73.0973 150.079C79.2388 147.829 106.09 143.755 106.09 143.755L106.838 118.26Z" fill="#FFB8B8"></path>
<path d="M166.941 83.3507C140.62 73.5154 115.581 68.8619 95.2809 83.3507V36.5892C95.2809 27.0865 99.0558 17.973 105.775 11.2535C112.495 4.53403 121.608 0.759072 131.111 0.759064H131.111C140.614 0.759066 149.727 4.53403 156.447 11.2535C163.166 17.973 166.941 27.0865 166.941 36.5892V83.3507Z" fill="#2F2E41"></path>
<path d="M118.358 57.8445C118.358 57.8445 132.933 88.2091 129.289 94.282L159.654 78.4924C159.654 78.4924 143.864 57.8445 143.864 54.2007L118.358 57.8445Z" fill="#FFB8B8"></path>
<path d="M184.553 85.1726C184.553 85.1726 169.683 70.5976 156.47 74.2414C143.257 77.8851 146.293 84.5654 129.289 88.2091L127.467 96.1038C127.467 96.1038 117.833 100.046 114.107 103.391C109.947 107.127 107.056 135.762 112.285 159.869C115.722 175.715 107.904 191.525 111.678 198.129L179.694 189.627C179.694 189.627 185.767 183.554 182.124 179.91C178.48 176.266 184.553 149.546 184.553 149.546L184.553 85.1726Z" fill="rgba(174,156,194,1)"></path>
<path d="M144.471 431.329L143.257 460.479L154.188 475.054L167.549 462.908L166.334 430.114L144.471 431.329Z" fill="#FFB8B8"></path>
<path d="M262.286 407.037C262.286 407.037 270.788 424.041 272.003 427.685C273.217 431.329 290.221 430.114 290.221 430.114L296.294 414.325L275.646 394.891L262.286 407.037Z" fill="#FFB8B8"></path>
<path d="M111.07 192.663L114.107 252.785C114.107 252.785 123.824 339.02 127.467 353.595C131.111 368.17 144.471 438.616 144.471 438.616L177.265 433.758L167.549 335.377L168.763 315.943L186.982 343.879L256.213 416.754L282.934 394.891L213.703 313.514L195.484 240.639C195.484 240.639 197.913 202.987 177.265 188.412L111.07 192.663Z" fill="#2F2E41"></path>
<path d="M151.759 465.337C151.759 465.337 149.33 454.53 143.257 458.112C137.184 461.693 122.609 479.912 122.609 479.912C122.609 479.912 84.9569 505.418 101.961 507.848C118.965 510.277 135.969 500.56 135.969 500.56C135.969 500.56 149.33 493.272 151.759 493.272C154.188 493.272 174.836 487.2 174.836 482.341C174.836 477.483 167.447 460.169 167.447 460.169C167.447 460.169 159.046 467.766 151.759 465.337Z" fill="#2F2E41"></path>
<path d="M285.589 424.136C285.589 424.136 279.045 415.2 274.909 420.909C270.772 426.618 264.688 449.142 264.688 449.142C264.688 449.142 240.359 487.566 256.918 483C273.477 478.435 285.184 462.734 285.184 462.734C285.184 462.734 294.521 450.717 296.748 449.746C298.975 448.776 315.478 434.961 313.538 430.507C311.597 426.053 297.907 413.132 297.907 413.132C297.907 413.132 293.24 423.452 285.589 424.136Z" fill="#2F2E41"></path>
<path d="M127.467 66.9539C142.225 66.9539 154.188 54.9905 154.188 40.233C154.188 25.4755 142.225 13.5122 127.467 13.5122C112.71 13.5122 100.746 25.4755 100.746 40.233C100.746 54.9905 112.71 66.9539 127.467 66.9539Z" fill="#FFB8B8"></path>
<path d="M128.075 95.4966C128.075 95.4966 114.107 99.7476 110.463 105.821C106.819 111.894 95.8882 119.181 95.8882 119.181L104.39 153.189L117.751 137.4L128.075 95.4966Z" fill="rgba(174,156,194,1)"></path>
<path d="M153.581 9.90276V9.26116L152.818 9.30358C148.486 6.00474 143.46 3.73577 138.121 2.66881C132.781 1.60185 127.269 1.76491 122.002 3.14562C127.051 4.4799 131.745 6.90552 135.755 10.2515L109.856 11.6903L98.9246 35.982H106.323L112.285 25.0507V35.982H137.305L139.006 27.4799L143.729 35.982H148.645C148.676 36.5882 148.723 37.1901 148.723 37.8038L143.864 84.5653L166.941 74.8487V37.8038C166.945 32.4496 165.747 27.1627 163.435 22.3336C161.122 17.5044 157.755 13.2563 153.581 9.90276V9.90276Z" fill="#2F2E41"></path>
<path d="M149.57 43.2695C151.247 43.2695 152.606 40.8225 152.606 37.8039C152.606 34.7853 151.247 32.3383 149.57 32.3383C147.893 32.3383 146.533 34.7853 146.533 37.8039C146.533 40.8225 147.893 43.2695 149.57 43.2695Z" fill="#FFB8B8"></path>
<path d="M171.665 124.078L184.13 154.821L150.116 202.438C150.116 202.438 124.61 214.583 136.756 229.158C140.915 234.15 157.104 214.054 158.618 212.154C162.403 207.405 205.734 163.961 203.484 157.819C201.234 151.678 197.16 124.826 197.16 124.826L171.665 124.078Z" fill="#FFB8B8"></path>
<path d="M159.047 88.8164L168.763 136.185C168.763 136.185 188.196 122.825 202.771 137.4L184.553 85.1726L159.047 88.8164Z" fill="rgba(174,156,194,1)"></path>
<path d="M163.24 217.184L134.42 204.273L124.489 226.442L153.308 239.353L163.24 217.184Z" fill="#2F2E41"></path>
<path opacity="0.2" d="M145.008 246.911L142.72 247.728L167.012 315.745L169.3 314.928L145.008 246.911Z" fill="black"></path>
</svg>