<svg width="111" height="349" viewBox="0 0 111 349" fill="none" xmlns="http://www.w3.org/2000/svg">
<path d="M33.0289 53.1488H32.0958V61.7808H33.0289V53.1488Z" fill="#F2F2F2"></path>
<path d="M91.3436 74.1456H90.4105V82.7776H91.3436V74.1456Z" fill="#F2F2F2"></path>
<path d="M84.8123 290.646H83.8793V299.278H84.8123V290.646Z" fill="#F2F2F2"></path>
<path d="M98.3413 219.257H97.4083V227.889H98.3413V219.257Z" fill="#F2F2F2"></path>
<path d="M37.7697 28.8711C37.7697 28.8711 44.5895 48.2844 40.3927 51.271C36.1959 54.2577 54.5568 78.6487 54.5568 78.6487L76.5898 72.6754L64.5241 52.2666C64.5241 52.2666 62.9503 31.8577 62.9503 28.871C62.9503 25.8844 37.7697 28.8711 37.7697 28.8711Z" fill="rgba(165,113,121,1)"></path>
<path opacity="0.1" d="M37.7697 28.8711C37.7697 28.8711 44.5895 48.2844 40.3927 51.271C36.1959 54.2577 54.5568 78.6487 54.5568 78.6487L76.5898 72.6754L64.5241 52.2666C64.5241 52.2666 62.9503 31.8577 62.9503 28.871C62.9503 25.8844 37.7697 28.8711 37.7697 28.8711Z" fill="black"></path>
<path d="M26.3227 167.253C26.3227 167.253 24.332 192.142 26.3227 205.084C28.3135 218.026 31.2997 253.866 31.2997 253.866C31.2997 253.866 31.2997 321.564 42.249 322.559C53.1982 323.555 61.1613 324.55 62.1567 320.568C63.1521 316.586 57.1798 314.595 60.1659 312.604C63.1521 310.613 64.1475 303.644 60.1659 295.679C56.1844 287.715 60.1659 207.075 60.1659 207.075L79.0783 257.848C79.0783 257.848 81.0691 299.662 83.0598 305.635C85.0506 311.608 81.0691 322.559 88.0368 323.555C95.0045 324.55 102.968 318.577 106.949 316.586C110.931 314.595 100.977 314.595 102.968 313.599C104.958 312.604 110.931 309.617 108.94 308.622C106.949 307.626 104.958 259.839 104.958 259.839C104.958 259.839 99.4837 157.795 92.516 153.813C85.5483 149.831 81.0691 156.69 81.0691 156.69L26.3227 167.253Z" fill="#2F2E41"></path>
<path d="M44.2397 318.577V326.542C44.2397 326.542 35.2812 348.191 44.2397 348.191C53.1982 348.191 60.166 350.435 60.166 347.448V320.568L44.2397 318.577Z" fill="#2F2E41"></path>
<path d="M102.968 318.563V326.527C102.968 326.527 111.926 348.177 102.968 348.177C94.0092 348.177 87.0414 350.421 87.0414 347.434V320.554L102.968 318.563Z" fill="#2F2E41"></path>
<path d="M51.7052 43.3066C61.6004 43.3066 69.6221 35.2836 69.6221 25.3866C69.6221 15.4897 61.6004 7.46667 51.7052 7.46667C41.8099 7.46667 33.7881 15.4897 33.7881 25.3866C33.7881 35.2836 41.8099 43.3066 51.7052 43.3066Z" fill="rgba(165,113,121,1)"></path>
<path d="M46.2305 58.7377C46.2305 58.7377 51.2074 73.671 59.1705 70.6843L67.1337 67.6976L81.0691 163.271C81.0691 163.271 70.1198 179.2 54.1936 169.244C38.2674 159.289 46.2305 58.7377 46.2305 58.7377Z" fill="rgba(180,176,240,1)"></path>
<path d="M60.166 55.751L64.6452 46.2933C64.6452 46.2933 91.023 58.7377 95.0045 62.7199C98.9861 66.7021 98.9861 72.6754 98.9861 72.6754L92.0184 97.5643C92.0184 97.5643 94.0091 152.32 94.0091 154.311C94.0091 156.302 100.977 167.253 95.9999 163.271C91.023 159.289 90.0276 155.306 86.046 161.28C82.0645 167.253 73.106 174.222 73.106 174.222L60.166 55.751Z" fill="rgba(97,97,119,1)"></path>
<path d="M95.0045 127.431L92.0183 155.306C92.0183 155.306 74.1013 171.235 78.0829 172.231C82.0644 173.226 84.0552 169.244 84.0552 169.244C84.0552 169.244 91.0229 176.213 95.0045 172.231C98.9861 168.249 108.94 130.418 108.94 130.418L95.0045 127.431Z" fill="rgba(165,113,121,1)"></path>
<path d="M52.0868 0.0605972C48.1148 -0.0814204 43.8642 -0.151671 40.5153 1.98913C38.9744 3.06351 37.6229 4.38671 36.5162 5.90458C33.2545 10.0286 30.4362 15.2175 31.6478 20.3342L33.055 19.7853C33.0549 21.1511 32.7513 22.4999 32.1662 23.7339C32.3643 23.1576 33.0279 24.0892 32.8503 24.6722L31.3002 29.7584C33.8484 28.8241 37.0181 30.7158 37.406 33.4023C37.5832 27.4947 38.196 20.7205 42.9875 17.2613C45.4038 15.5168 48.4619 14.9843 51.4042 14.5114C54.1185 14.0751 56.9641 13.6591 59.564 14.5529C62.1638 15.4466 64.3778 18.106 63.7884 20.7917C64.9872 20.3786 66.328 21.2142 66.9204 22.3354C67.5128 23.4566 67.5439 24.7792 67.5618 26.0472C68.8396 26.9505 70.2939 25.1569 70.8146 23.6811C72.0371 20.2169 73.1236 16.5294 72.4651 12.9153C71.8066 9.30124 68.862 5.84745 65.1891 5.83519C65.6349 5.34542 65.8728 4.70141 65.8524 4.03938L62.825 3.78355C63.5936 3.67471 64.3004 3.302 64.8244 2.72926C63.6089 4.06695 54.0524 0.130871 52.0868 0.0605972Z" fill="#2F2E41"></path>
<path d="M51.2075 52.7643C51.2075 52.7643 43.1044 44.8225 40.1882 45.3089C37.272 45.7954 33.2905 52.7643 33.2905 52.7643C33.2905 52.7643 9.40115 60.7287 10.3965 68.6932C11.3919 76.6576 22.3412 115.484 22.3412 115.484C22.3412 115.484 31.2997 162.275 23.3366 167.253C15.3735 172.231 61.1613 185.173 62.1567 179.2C63.1521 173.226 65.1429 113.493 62.1567 104.533C59.1705 95.5731 51.2075 52.7643 51.2075 52.7643Z" fill="rgba(97,97,119,1)"></path>
<path d="M86.0461 68.6932H98.354C98.354 68.6932 106.949 106.524 107.945 110.506C108.94 114.489 110.931 133.404 109.935 133.404C108.94 133.404 89.0322 129.422 89.0322 132.409L86.0461 68.6932Z" fill="rgba(97,97,119,1)"></path>
<path d="M85.6295 162.375H38.5112C33.9131 141.22 33.5289 120.78 38.5112 101.251H85.6295C78.0256 120.429 77.5504 140.728 85.6295 162.375Z" fill="#F2F2F2"></path>
<path d="M19.355 136.391L33.2905 142.364C33.2905 142.364 60.166 146.346 60.166 135.395C60.166 124.444 33.2905 130.418 33.2905 130.418L24.3314 127.553L19.355 136.391Z" fill="rgba(165,113,121,1)"></path>
<path d="M22.3412 62.7198L10.3965 65.7065L1.43805 118.471C1.43805 118.471 -1.54814 132.409 3.42881 133.404C8.40576 134.4 22.3412 142.364 22.3412 142.364C22.3412 142.364 24.3319 127.431 28.3135 127.431L18.3596 119.466L24.3319 84.622L22.3412 62.7198Z" fill="rgba(97,97,119,1)"></path>
</svg>