<svg width="189" height="628" viewBox="0 0 189 628" fill="none" xmlns="http://www.w3.org/2000/svg">
<g opacity="0.1">
<path opacity="0.1" d="M124.04 554.36V559.51C124.04 564.629 122.007 569.538 118.387 573.157C114.768 576.777 109.859 578.81 104.74 578.81C99.6213 578.81 94.7122 576.777 91.0928 573.157C87.4733 569.538 85.4399 564.629 85.4399 559.51V554.36C85.4399 549.241 87.4733 544.332 91.0928 540.713C94.7122 537.093 99.6213 535.06 104.74 535.06C109.859 535.06 114.768 537.093 118.387 540.713C122.007 544.332 124.04 549.241 124.04 554.36Z" fill="#3F3D56"></path>
<path opacity="0.1" d="M85.44 472V466.89C85.44 461.771 87.4734 456.862 91.0928 453.243C94.7123 449.623 99.6213 447.59 104.74 447.59C109.859 447.59 114.768 449.623 118.387 453.243C122.007 456.862 124.04 461.771 124.04 466.89V472.03C124.041 473.921 123.762 475.801 123.21 477.61C121.881 482.051 118.996 485.865 115.085 488.354C111.174 490.843 106.497 491.839 101.911 491.162C97.3245 490.484 93.1357 488.178 90.1111 484.664C87.0864 481.151 85.4282 476.666 85.44 472.03V472Z" fill="#3F3D56"></path>
<path opacity="0.1" d="M124.04 510.61V515.76C124.04 520.879 122.007 525.788 118.387 529.407C114.768 533.027 109.859 535.06 104.74 535.06C99.6213 535.06 94.7122 533.027 91.0928 529.407C87.4733 525.788 85.4399 520.879 85.4399 515.76V510.61C85.4399 505.491 87.4733 500.582 91.0928 496.963C94.7122 493.343 99.6213 491.31 104.74 491.31C109.859 491.31 114.768 493.343 118.387 496.963C122.007 500.582 124.04 505.491 124.04 510.61V510.61Z" fill="#3F3D56"></path>
<path opacity="0.1" d="M104.74 578.81C109.855 578.826 114.757 580.866 118.373 584.484C121.989 588.102 124.027 593.004 124.04 598.12V603.26C124.04 608.379 122.007 613.288 118.387 616.907C114.768 620.527 109.859 622.56 104.74 622.56C99.6213 622.56 94.7122 620.527 91.0928 616.907C87.4733 613.288 85.4399 608.379 85.4399 603.26V598.12C85.4531 593.004 87.4904 588.102 91.1068 584.484C94.7231 580.866 99.6244 578.826 104.74 578.81V578.81Z" fill="#3F3D56"></path>
<path opacity="0.1" d="M85.44 467.35V472C85.4282 476.636 87.0864 481.121 90.1111 484.634C93.1357 488.148 97.3245 490.454 101.911 491.132C106.497 491.81 111.174 490.813 115.085 488.324C118.996 485.835 121.881 482.021 123.21 477.58L85.44 467.35Z" fill="black"></path>
<path opacity="0.1" d="M85.4399 511.1V515.76C85.4445 520.387 87.1109 524.858 90.1357 528.359C93.1604 531.86 97.3423 534.158 101.919 534.834C106.496 535.51 111.164 534.519 115.072 532.043C118.98 529.566 121.868 525.768 123.21 521.34L85.4399 511.1Z" fill="black"></path>
<path opacity="0.1" d="M85.4399 554.89V559.54C85.4445 564.167 87.1109 568.638 90.1357 572.139C93.1604 575.64 97.3423 577.938 101.919 578.614C106.496 579.29 111.164 578.299 115.072 575.823C118.98 573.346 121.868 569.548 123.21 565.12L85.4399 554.89Z" fill="black"></path>
<path opacity="0.1" d="M85.44 598.61V603.26C85.416 607.9 87.0656 612.394 90.0862 615.916C93.1068 619.439 97.2961 621.755 101.886 622.439C106.475 623.123 111.158 622.13 115.075 619.641C118.991 617.153 121.88 613.336 123.21 608.89L85.44 598.61Z" fill="black"></path>
<path opacity="0.1" d="M45.14 516.09L46.6799 517.27C48.0646 518.329 49.7828 518.856 51.5229 518.757C53.263 518.657 54.91 517.938 56.1652 516.728C57.4204 515.519 58.2008 513.9 58.365 512.165C58.5291 510.43 58.0661 508.693 57.0599 507.27C56.6498 506.686 56.1542 506.167 55.5899 505.73L54.05 504.55C53.2916 503.965 52.4254 503.535 51.5008 503.285C50.5763 503.034 49.6115 502.969 48.6616 503.091C47.7116 503.214 46.7951 503.522 45.9644 503.999C45.1337 504.476 44.405 505.112 43.8199 505.87C43.2349 506.628 42.805 507.495 42.5547 508.419C42.3044 509.344 42.2387 510.308 42.3612 511.258C42.4838 512.208 42.7923 513.125 43.2691 513.956C43.7458 514.786 44.3816 515.515 45.14 516.1V516.09Z" fill="#3F3D56"></path>
<path opacity="0.1" d="M67.1399 514.63L68.6799 515.82C69.4383 516.405 70.074 517.134 70.5508 517.964C71.0276 518.795 71.336 519.712 71.4586 520.662C71.5812 521.612 71.5155 522.576 71.2652 523.501C71.0149 524.425 70.5849 525.292 69.9999 526.05C69.4149 526.808 68.6862 527.444 67.8554 527.921C67.0247 528.398 66.1082 528.706 65.1583 528.829C64.2084 528.951 63.2436 528.886 62.319 528.635C61.3945 528.385 60.5283 527.955 59.7699 527.37L58.2299 526.18C57.4715 525.595 56.8358 524.866 56.359 524.036C55.8823 523.205 55.5738 522.288 55.4512 521.338C55.3286 520.388 55.3944 519.424 55.6447 518.499C55.8949 517.575 56.3249 516.708 56.9099 515.95C57.495 515.192 58.2236 514.556 59.0544 514.079C59.8851 513.602 60.8016 513.294 61.7515 513.171C62.7015 513.049 63.6663 513.114 64.5908 513.365C65.5153 513.615 66.3815 514.045 67.1399 514.63V514.63Z" fill="#3F3D56"></path>
<path opacity="0.1" d="M80.2199 524.73L81.7599 525.92C82.5183 526.505 83.154 527.234 83.6307 528.064C84.1075 528.895 84.416 529.812 84.5386 530.762C84.6611 531.712 84.5954 532.676 84.3452 533.601C84.0949 534.525 83.6649 535.392 83.0799 536.15C82.4949 536.908 81.7662 537.544 80.9354 538.021C80.1047 538.498 79.1882 538.806 78.2383 538.929C77.2883 539.051 76.3235 538.986 75.399 538.735C74.4744 538.485 73.6082 538.055 72.8499 537.47L71.3099 536.28C69.7783 535.098 68.7787 533.357 68.5312 531.438C68.2836 529.52 68.8083 527.582 69.9899 526.05C71.1714 524.518 72.913 523.519 74.8315 523.271C76.75 523.024 78.6883 523.548 80.2199 524.73V524.73Z" fill="#3F3D56"></path>
<path opacity="0.1" d="M93.3099 534.83L94.8499 536.02C95.6083 536.605 96.244 537.334 96.7208 538.164C97.1976 538.995 97.5061 539.912 97.6286 540.862C97.7512 541.812 97.6854 542.776 97.4352 543.701C97.1849 544.625 96.7549 545.492 96.1699 546.25C95.5849 547.008 94.8562 547.644 94.0255 548.121C93.1948 548.598 92.2782 548.906 91.3283 549.029C90.3783 549.151 89.4136 549.086 88.4891 548.835C87.5645 548.585 86.6983 548.155 85.9399 547.57L84.3799 546.38C83.6215 545.795 82.9858 545.066 82.509 544.236C82.0322 543.405 81.7238 542.488 81.6012 541.538C81.4787 540.588 81.5444 539.624 81.7947 538.699C82.0449 537.775 82.4749 536.908 83.0599 536.15C83.645 535.392 84.3737 534.756 85.2044 534.279C86.0351 533.802 86.9516 533.494 87.9015 533.371C88.8515 533.249 89.8163 533.314 90.7408 533.565C91.6654 533.815 92.5315 534.245 93.2899 534.83H93.3099Z" fill="#3F3D56"></path>
<path opacity="0.1" d="M45.2799 516.2L46.6799 517.27C48.0646 518.329 49.7828 518.856 51.5229 518.757C53.263 518.657 54.91 517.938 56.1652 516.729C57.4204 515.519 58.2008 513.9 58.365 512.165C58.5291 510.43 58.0661 508.693 57.0599 507.27L45.2799 516.2Z" fill="black"></path>
<path opacity="0.1" d="M58.3799 526.3L59.7799 527.37C61.1646 528.429 62.8827 528.956 64.6228 528.857C66.363 528.757 68.0099 528.038 69.2651 526.828C70.5204 525.619 71.3008 524 71.4649 522.265C71.629 520.53 71.1661 518.793 70.1599 517.37L58.3799 526.3Z" fill="black"></path>
<path opacity="0.1" d="M71.46 536.4L72.8499 537.47C74.2339 538.536 75.9548 539.07 77.6993 538.974C79.4438 538.879 81.0958 538.159 82.3546 536.948C83.6134 535.736 84.3952 534.113 84.5577 532.373C84.7202 530.634 84.2526 528.894 83.2399 527.47L71.46 536.4Z" fill="black"></path>
<path opacity="0.1" d="M51.98 276.4C49.068 276.338 46.1729 276.858 43.4644 277.929C40.7559 279 38.2885 280.602 36.207 282.639C34.1256 284.676 32.4718 287.109 31.3428 289.794C30.2138 292.479 29.6323 295.362 29.6323 298.275C29.6323 301.188 30.2138 304.071 31.3428 306.756C32.4718 309.441 34.1256 311.874 36.207 313.911C38.2885 315.948 40.7559 317.55 43.4644 318.621C46.1729 319.693 49.068 320.212 51.98 320.15C49.068 320.088 46.1729 320.608 43.4644 321.679C40.7559 322.75 38.2885 324.352 36.207 326.389C34.1256 328.426 32.4718 330.859 31.3428 333.544C30.2138 336.229 29.6323 339.112 29.6323 342.025C29.6323 344.938 30.2138 347.821 31.3428 350.506C32.4718 353.191 34.1256 355.624 36.207 357.661C38.2885 359.698 40.7559 361.3 43.4644 362.371C46.1729 363.443 49.068 363.962 51.98 363.9C46.1771 363.9 40.6118 366.205 36.5085 370.309C32.4052 374.412 30.1 379.977 30.1 385.78C30.1 391.583 32.4052 397.148 36.5085 401.252C40.6118 405.355 46.1771 407.66 51.98 407.66C49.068 407.598 46.1729 408.118 43.4644 409.189C40.7559 410.26 38.2885 411.862 36.207 413.899C34.1256 415.936 32.4718 418.369 31.3428 421.054C30.2138 423.739 29.6323 426.622 29.6323 429.535C29.6323 432.448 30.2138 435.331 31.3428 438.016C32.4718 440.701 34.1256 443.134 36.207 445.171C38.2885 447.208 40.7559 448.81 43.4644 449.881C46.1729 450.953 49.068 451.472 51.98 451.41H157.5C160.412 451.472 163.307 450.953 166.016 449.881C168.724 448.81 171.191 447.208 173.273 445.171C175.354 443.134 177.008 440.701 178.137 438.016C179.266 435.331 179.848 432.448 179.848 429.535C179.848 426.622 179.266 423.739 178.137 421.054C177.008 418.369 175.354 415.936 173.273 413.899C171.191 411.862 168.724 410.26 166.016 409.189C163.307 408.118 160.412 407.598 157.5 407.66C163.303 407.66 168.868 405.355 172.971 401.252C177.075 397.148 179.38 391.583 179.38 385.78C179.38 379.977 177.075 374.412 172.971 370.309C168.868 366.205 163.303 363.9 157.5 363.9C160.412 363.962 163.307 363.443 166.016 362.371C168.724 361.3 171.191 359.698 173.273 357.661C175.354 355.624 177.008 353.191 178.137 350.506C179.266 347.821 179.848 344.938 179.848 342.025C179.848 339.112 179.266 336.229 178.137 333.544C177.008 330.859 175.354 328.426 173.273 326.389C171.191 324.352 168.724 322.75 166.016 321.679C163.307 320.608 160.412 320.088 157.5 320.15C160.412 320.212 163.307 319.693 166.016 318.621C168.724 317.55 171.191 315.948 173.273 313.911C175.354 311.874 177.008 309.441 178.137 306.756C179.266 304.071 179.848 301.188 179.848 298.275C179.848 295.362 179.266 292.479 178.137 289.794C177.008 287.109 175.354 284.676 173.273 282.639C171.191 280.602 168.724 279 166.016 277.929C163.307 276.858 160.412 276.338 157.5 276.4C163.303 276.4 168.868 274.095 172.971 269.992C177.075 265.888 179.38 260.323 179.38 254.52C179.38 248.717 177.075 243.152 172.971 239.049C168.868 234.945 163.303 232.64 157.5 232.64C160.412 232.702 163.307 232.182 166.016 231.111C168.724 230.04 171.191 228.438 173.273 226.401C175.354 224.364 177.008 221.931 178.137 219.246C179.266 216.561 179.848 213.678 179.848 210.765C179.848 207.852 179.266 204.969 178.137 202.284C177.008 199.599 175.354 197.166 173.273 195.129C171.191 193.092 168.724 191.49 166.016 190.419C163.307 189.348 160.412 188.828 157.5 188.89H152.68C149.91 170.07 128.68 155.43 102.81 155.43C76.94 155.43 55.71 170.07 52.94 188.89H51.94C49.028 188.828 46.1328 189.348 43.4243 190.419C40.7158 191.49 38.2485 193.092 36.167 195.129C34.0855 197.166 32.4318 199.599 31.3028 202.284C30.1738 204.969 29.5923 207.852 29.5923 210.765C29.5923 213.678 30.1738 216.561 31.3028 219.246C32.4318 221.931 34.0855 224.364 36.167 226.401C38.2485 228.438 40.7158 230.04 43.4243 231.111C46.1328 232.182 49.028 232.702 51.94 232.64C46.1371 232.64 40.5718 234.945 36.4685 239.049C32.3652 243.152 30.06 248.717 30.06 254.52C30.06 260.323 32.3652 265.888 36.4685 269.992C40.5718 274.095 46.1371 276.4 51.94 276.4H51.98Z" fill="#6C63FF"></path>
<path opacity="0.1" d="M30.1 210.76C30.1158 216.558 32.4261 222.114 36.526 226.214C40.6258 230.314 46.1819 232.624 51.98 232.64H157.5L52.62 188.89H51.98C46.1836 188.906 40.6291 191.215 36.5295 195.312C32.4299 199.41 30.1184 204.964 30.1 210.76V210.76Z" fill="black"></path>
<path opacity="0.1" d="M178.74 254.52C178.708 260.313 176.393 265.86 172.297 269.957C168.2 274.053 162.653 276.369 156.86 276.4H51.3799L156.27 232.64H156.91C162.694 232.685 168.229 235.006 172.314 239.101C176.4 243.196 178.708 248.735 178.74 254.52V254.52Z" fill="black"></path>
<path opacity="0.1" d="M178.74 342.03C178.719 347.825 176.406 353.376 172.307 357.471C168.208 361.567 162.654 363.874 156.86 363.89H51.3799L156.27 320.14H156.91C162.701 320.169 168.246 322.487 172.335 326.587C176.425 330.688 178.727 336.239 178.74 342.03V342.03Z" fill="black"></path>
<path opacity="0.1" d="M178.74 429.54C178.721 435.336 176.41 440.89 172.31 444.988C168.211 449.085 162.656 451.394 156.86 451.41H51.3799L156.27 407.66H156.91C162.699 407.689 168.243 410.005 172.332 414.104C176.421 418.202 178.724 423.751 178.74 429.54V429.54Z" fill="black"></path>
<path opacity="0.1" d="M30.1 298.27C30.1158 304.068 32.4261 309.624 36.526 313.724C40.6258 317.824 46.1819 320.134 51.98 320.15H157.5L52.62 276.4H51.98C46.1836 276.416 40.6291 278.725 36.5295 282.822C32.4299 286.92 30.1184 292.474 30.1 298.27V298.27Z" fill="black"></path>
<path opacity="0.1" d="M30.1 385.78C30.1315 391.573 32.4468 397.12 36.5433 401.217C40.6398 405.313 46.1868 407.629 51.98 407.66H157.5L52.62 363.89H51.98C46.185 363.922 40.6366 366.238 36.5398 370.337C32.443 374.436 30.1289 379.985 30.1 385.78V385.78Z" fill="black"></path>
<path opacity="0.1" d="M42.1899 538.67L76.9399 519.96C78.8508 518.931 80.2746 517.185 80.8982 515.106C81.5218 513.027 81.294 510.786 80.265 508.875C79.2359 506.964 77.4899 505.54 75.4111 504.917C73.3322 504.293 71.0908 504.521 69.1799 505.55C70.1261 505.041 70.9628 504.351 71.6422 503.519C72.3216 502.686 72.8305 501.729 73.1397 500.7C73.4489 499.671 73.5525 498.591 73.4444 497.522C73.3364 496.453 73.0188 495.416 72.51 494.47C72.0011 493.524 71.3108 492.687 70.4786 492.008C69.6464 491.328 68.6885 490.819 67.6596 490.51C66.6307 490.201 65.551 490.098 64.4822 490.206C63.4133 490.314 62.3761 490.631 61.4299 491.14L59.8399 492C55.5899 486.29 45.99 485.24 37.48 489.82C28.97 494.4 24.5699 502.99 26.9899 509.68L26.6799 509.85C25.7338 510.359 24.8971 511.049 24.2177 511.881C23.5383 512.714 23.0294 513.672 22.7202 514.7C22.411 515.729 22.3075 516.809 22.4155 517.878C22.5236 518.947 22.8411 519.984 23.35 520.93C23.8588 521.876 24.5491 522.713 25.3813 523.392C26.2135 524.072 27.1714 524.581 28.2003 524.89C29.2292 525.199 30.3089 525.303 31.3778 525.194C32.4466 525.086 33.4838 524.769 34.4299 524.26C32.5191 525.289 31.0952 527.035 30.4717 529.114C29.8481 531.193 30.0759 533.434 31.105 535.345C32.134 537.256 33.88 538.68 35.9588 539.303C38.0376 539.927 40.2791 539.699 42.1899 538.67V538.67Z" fill="#6C63FF"></path>
<path opacity="0.1" d="M23.3799 520.89C24.4132 522.795 26.158 524.214 28.2337 524.838C30.3094 525.462 32.5475 525.24 34.4599 524.22L69.2099 505.51L26.9199 509.7L26.7099 509.81C24.8047 510.843 23.3854 512.588 22.7616 514.664C22.1378 516.739 22.3601 518.978 23.3799 520.89Z" fill="black"></path>
<path opacity="0.1" d="M80.05 508.99C81.0733 510.901 81.2985 513.139 80.6764 515.215C80.0542 517.291 78.6354 519.037 76.7299 520.07L41.98 538.78L68.76 505.78L68.97 505.66C70.8824 504.64 73.1205 504.418 75.1962 505.042C77.2719 505.666 79.0166 507.085 80.05 508.99V508.99Z" fill="black"></path>
</g>
<path d="M65.4399 291.58C63.6599 291.58 61.9199 292.108 60.4398 293.097C58.9598 294.086 57.8062 295.491 57.125 297.136C56.4438 298.78 56.2656 300.59 56.6129 302.336C56.9601 304.082 57.8173 305.685 59.076 306.944C60.3347 308.203 61.9383 309.06 63.6841 309.407C65.43 309.754 67.2396 309.576 68.8841 308.895C70.5286 308.214 71.9342 307.06 72.9232 305.58C73.9121 304.1 74.4399 302.36 74.4399 300.58C74.4399 298.193 73.4917 295.904 71.8039 294.216C70.1161 292.528 67.8269 291.58 65.4399 291.58V291.58ZM66.6499 294.83C66.802 294.833 66.9496 294.882 67.0742 294.969C67.1987 295.056 67.2947 295.178 67.3499 295.32C67.4831 295.637 67.5516 295.977 67.5516 296.32C67.5516 296.663 67.4831 297.003 67.3499 297.32C67.2425 297.668 67.0984 298.003 66.9199 298.32C66.9199 298.32 66.8099 298.48 67.1699 298.48H69.4799C69.5779 298.486 69.6737 298.512 69.761 298.557C69.8484 298.602 69.9256 298.664 69.9876 298.74C70.0496 298.816 70.0952 298.905 70.1215 298.999C70.1477 299.094 70.154 299.193 70.1399 299.29C70.1455 299.448 70.1011 299.603 70.0131 299.734C69.9251 299.865 69.7981 299.965 69.65 300.02V300.07C69.7829 300.134 69.897 300.231 69.9812 300.352C70.0653 300.472 70.1166 300.613 70.1299 300.76C70.1497 300.926 70.1029 301.093 69.9998 301.224C69.8966 301.355 69.7457 301.44 69.58 301.46C69.58 301.46 69.58 301.46 69.58 301.51C69.6982 301.575 69.795 301.673 69.8589 301.792C69.9228 301.911 69.9509 302.046 69.9399 302.18C69.9429 302.315 69.8985 302.447 69.8145 302.553C69.7305 302.659 69.6122 302.732 69.4799 302.76V302.81C69.5639 302.873 69.6302 302.957 69.6722 303.053C69.7143 303.15 69.7308 303.255 69.72 303.36C69.7218 303.495 69.6757 303.626 69.59 303.73C69.5336 303.797 69.4632 303.85 69.3836 303.887C69.304 303.923 69.2174 303.941 69.1299 303.94H64.1299C64.1299 303.94 63.8699 303.94 63.8699 303.59V300.33C63.8662 299.527 64.0917 298.739 64.52 298.06C64.8623 297.552 65.2506 297.077 65.6799 296.64C65.7499 296.56 66.0099 296.34 66.0099 296.21C66.0099 296.08 66.0099 295.8 66.0099 295.32C66.0156 295.244 66.0373 295.17 66.0735 295.103C66.1098 295.036 66.1597 294.978 66.2201 294.932C66.2806 294.885 66.3501 294.852 66.4242 294.835C66.4983 294.817 66.5752 294.816 66.6499 294.83ZM60.9599 299.59H62.9599C63.0334 299.593 63.1032 299.623 63.1552 299.675C63.2072 299.727 63.2374 299.797 63.2399 299.87V304.42C63.2413 304.457 63.2351 304.494 63.2215 304.529C63.2079 304.563 63.1873 304.595 63.161 304.621C63.1348 304.647 63.1033 304.668 63.0687 304.682C63.0341 304.695 62.9971 304.701 62.9599 304.7H60.9599C60.8857 304.7 60.8145 304.671 60.762 304.618C60.7094 304.566 60.6799 304.494 60.6799 304.42V299.89C60.6786 299.852 60.6848 299.814 60.6981 299.778C60.7115 299.743 60.7317 299.71 60.7577 299.682C60.7838 299.654 60.815 299.632 60.8497 299.616C60.8844 299.6 60.9218 299.591 60.9599 299.59Z" fill="rgba(52,54,58,1)"></path>
<path d="M52.81 287.37C52.717 287.464 52.6064 287.538 52.4846 287.589C52.3627 287.64 52.232 287.666 52.1 287.666C51.968 287.666 51.8373 287.64 51.7154 287.589C51.5935 287.538 51.4829 287.464 51.39 287.37L50.84 286.88C46.39 282.79 43.84 280.14 43.84 276.83C43.84 274.13 45.54 272.04 48.23 272.04C48.9723 272.045 49.7046 272.211 50.3763 272.527C51.048 272.843 51.643 273.301 52.12 273.87C52.5969 273.301 53.1919 272.843 53.8636 272.527C54.5353 272.211 55.2677 272.045 56.01 272.04C58.69 272.04 60.4 274.13 60.4 276.83C60.4 280.14 57.83 282.83 53.4 286.88L52.81 287.37Z" fill="rgba(151,33,230,1)"></path>
<path d="M177.99 299.79C175.67 294.15 173.303 288.533 170.89 282.94C168.59 277.61 166.18 272.18 162.21 267.94C160.766 266.316 158.998 265.011 157.02 264.11C154.893 263.337 152.661 262.896 150.4 262.8C146.938 262.359 143.441 262.262 139.96 262.51C138.62 262.1 137.09 261.59 135.57 260.97C143.099 258.99 149.793 254.647 154.67 248.579C159.546 242.511 162.347 235.038 162.66 227.26C162.66 226.74 162.66 226.26 162.66 225.69C162.7 216.072 158.918 206.833 152.146 200.003C145.375 193.173 136.168 189.312 126.55 189.27C119.832 189.255 113.246 191.137 107.55 194.7C105.052 194.12 102.495 193.828 99.93 193.83C93.5403 193.859 87.2875 195.683 81.8854 199.096C76.4834 202.509 72.15 207.372 69.38 213.13C61.5 220.23 56.38 231.6 56.38 244.42C56.38 244.96 56.38 245.5 56.38 246.03C57.05 265.78 69.83 281.73 85.95 283.24C84.2314 284.024 82.651 285.081 81.27 286.37C76.33 291.14 75.52 298.68 75 305.56L74.61 310.68L66.18 313.68C65.9125 313.78 65.6772 313.952 65.4992 314.175C65.3212 314.399 65.2072 314.666 65.1693 314.949C65.1313 315.233 65.1708 315.521 65.2837 315.783C65.3965 316.046 65.5784 316.273 65.81 316.44L73.98 322.27C73.98 322.76 73.98 323.27 74.04 323.74C74.1 324.21 74.14 324.83 74.2 325.38C72.8094 326.608 71.7386 328.156 71.08 329.89C70.08 332.5 70.21 335.36 70.33 338.14L70.63 345.26C70.86 350.59 71.1 356 72.8 361.05C73.87 364.22 78.5 371.82 81.85 371.86C78.76 385.86 77.94 415.37 77.94 415.37C77.56 415.75 78.62 416.11 80.58 416.37C82.43 430.43 88.39 469.84 99.01 487.14C100.682 492.786 102.018 498.526 103.01 504.33C103.01 504.33 106.01 541.76 110.01 552.89C113.42 562.35 116.11 585.72 116.84 592.49C116.149 592.662 115.52 593.022 115.022 593.53C114.524 594.039 114.177 594.676 114.02 595.37C112.02 601.44 99.02 610.54 99.02 610.54C99.02 610.54 91.57 614.3 87.78 617.74C83.69 621.44 83.78 624.74 102.03 622.68C137.13 618.68 143.15 607.51 143.15 607.51C143.15 607.51 142.58 605.63 141.75 603.18C140.4 599.18 138.37 593.59 137.13 592.34C136.63 591.83 136.13 592.65 135.5 593.93C132.871 577.724 132.069 561.275 133.11 544.89C133.11 544.89 134.11 527.7 129.11 515.56C129.11 515.56 127.11 504.43 129.11 496.34C131.11 488.25 121.11 448.8 121.11 448.8L115.19 419.7C115.974 420.69 116.521 421.846 116.79 423.08C116.837 423.273 116.887 423.473 116.94 423.68C116.99 423.95 117.05 424.22 117.1 424.52C117.156 424.818 117.299 425.092 117.51 425.31C121.43 441.59 132.15 486.69 132.15 493.31C132.15 501.41 142.15 521.64 142.15 521.64C142.15 521.64 146.15 555.02 153.15 568.17C158.48 578.17 158.61 592.83 158.36 599.29C158.36 599.29 157.17 607.62 155.16 609.64C153.54 611.28 151.91 614.91 151.36 616.24C151.22 616.54 151.15 616.72 151.15 616.72C151.15 616.72 148.15 622.79 150.15 623.8C150.15 623.8 162.15 628.86 174.22 626.8C174.22 626.8 178.22 621.74 178.22 619.72C178.134 618.513 177.987 617.312 177.78 616.12C177.04 611.34 175.65 603.79 175.64 603.71C176.48 600.46 173.21 591.39 173.21 591.39L172.21 563.07C175.21 530.7 165.21 506.42 165.21 506.42C165.21 506.42 160.21 488.22 161.21 483.16C162.21 478.1 159.21 424.49 159.21 424.49L158.92 423.72C158.73 422.55 158.6 419.64 159.21 412.35C160.21 400.21 156.21 374.92 155.21 373.91C154.69 373.39 154.21 369.33 153.79 365.54C154.02 363.43 154.7 357.25 155.64 349.54C165.535 349.189 175.405 348.321 185.21 346.94C185.625 346.988 186.045 346.942 186.439 346.804C186.834 346.667 187.192 346.442 187.487 346.147C187.782 345.852 188.007 345.494 188.144 345.099C188.282 344.705 188.328 344.285 188.28 343.87C189.38 328.69 183.77 313.89 177.99 299.79ZM157.93 331.89C158.93 324.63 160.09 317.6 161.19 312.39L161.37 312.86C163.282 318.097 164.895 323.439 166.2 328.86C163.526 330.083 160.761 331.096 157.93 331.89Z" fill="url(#zkrdeephmp)"></path>
<path d="M79.88 413.79C79.88 413.79 85.88 467.79 98.88 488.79C100.55 494.372 101.885 500.049 102.88 505.79C102.88 505.79 105.88 542.79 109.88 553.79C113.88 564.79 116.88 594.79 116.88 594.79C116.88 594.79 130.88 610.79 135.88 597.79C132.739 580.647 131.731 563.181 132.88 545.79C132.88 545.79 133.88 528.79 128.88 516.79C128.88 516.79 126.88 505.79 128.88 497.79C130.88 489.79 120.88 450.79 120.88 450.79L112.88 411.79L79.88 413.79Z" fill="#BE6F72"></path>
<path d="M142.88 607.79C142.88 607.79 136.88 618.79 101.88 622.79C83.7301 624.86 83.6001 621.56 87.6801 617.9C91.4601 614.5 98.8801 610.79 98.8801 610.79C98.8801 610.79 111.88 601.79 113.88 595.79C115.88 589.79 122.88 594.79 122.88 594.79C132.88 609.79 134.88 590.79 136.88 592.79C138.12 594.03 140.14 599.53 141.49 603.51C142.31 605.89 142.88 607.79 142.88 607.79Z" fill="rgba(133,84,141,1)"></path>
<path opacity="0.1" d="M142.88 607.79C142.88 607.79 136.88 618.79 101.88 622.79C83.7301 624.86 83.6001 621.56 87.6801 617.9C90.5401 619.72 96.3001 620.53 107.88 615.79C124.54 608.97 136.61 605.03 141.49 603.51C142.31 605.89 142.88 607.79 142.88 607.79Z" fill="black"></path>
<path opacity="0.1" d="M132.88 545.79C132.88 545.79 133.88 528.79 128.88 516.79C128.88 516.79 126.88 505.79 128.88 497.79C130.88 489.79 120.88 450.79 120.88 450.79L112.88 411.79L105.97 412.21L113.88 450.79C113.88 450.79 123.88 489.79 121.88 497.79C119.88 505.79 121.88 516.79 121.88 516.79C126.88 528.79 125.88 545.79 125.88 545.79C124.731 563.181 125.739 580.647 128.88 597.79C128.346 599.427 127.336 600.869 125.98 601.93C129.71 603.62 133.67 603.53 135.88 597.79C132.739 580.647 131.731 563.181 132.88 545.79V545.79Z" fill="black"></path>
<path d="M126.38 194.29C119.702 194.282 113.156 196.142 107.48 199.66C100.004 197.948 92.1684 198.819 85.25 202.129C78.3316 205.439 72.7379 210.995 69.38 217.89C61.52 224.89 56.38 236.15 56.38 248.82C56.38 270.09 70.71 287.32 88.38 287.32C101.2 287.32 112.25 278.26 117.38 265.17C122.33 266.452 127.495 266.665 132.534 265.795C137.572 264.925 142.367 262.991 146.6 260.123C150.832 257.255 154.406 253.519 157.082 249.162C159.758 244.805 161.475 239.929 162.119 234.857C162.764 229.784 162.32 224.633 160.819 219.746C159.317 214.859 156.791 210.347 153.41 206.512C150.029 202.677 145.869 199.606 141.209 197.504C136.548 195.402 131.493 194.316 126.38 194.32V194.29Z" fill="#3F3D56"></path>
<path d="M155.88 418.79L158.88 426.79C158.88 426.79 161.88 479.79 160.88 484.79C159.88 489.79 164.88 507.79 164.88 507.79C164.88 507.79 174.88 531.79 171.88 563.79L172.88 591.79C172.88 591.79 176.88 602.79 174.88 604.79C172.88 606.79 157.88 602.79 157.88 602.79C157.88 602.79 159.88 581.79 152.88 568.79C145.88 555.79 141.88 522.79 141.88 522.79C141.88 522.79 131.88 502.79 131.88 494.79C131.88 486.79 115.88 421.79 115.88 421.79L155.88 418.79Z" fill="#BE6F72"></path>
<path d="M77.88 417.79C77.88 417.79 78.88 381.79 82.88 370.79C86.88 359.79 87.38 354.89 87.38 354.89C87.38 354.89 147.93 365.83 152.93 361.83C152.93 361.83 153.93 375.83 154.93 376.83C155.93 377.83 159.93 402.83 158.93 414.83C157.93 426.83 158.93 426.83 158.93 426.83C158.93 426.83 117.93 432.83 116.93 426.83C115.93 420.83 112.93 420.83 112.93 420.83C112.93 420.83 75.88 419.79 77.88 417.79Z" fill="#3F3D56"></path>
<g opacity="0.1">
<path opacity="0.1" d="M110.88 417.79C110.88 417.79 85.57 417.11 77.95 415.79C77.9 417.09 77.88 417.79 77.88 417.79C75.88 419.79 112.88 420.79 112.88 420.79C113.385 420.843 113.864 421.041 114.26 421.36C112.99 417.81 110.88 417.79 110.88 417.79Z" fill="black"></path>
<path opacity="0.1" d="M154.88 376.79C153.88 375.79 152.88 361.79 152.88 361.79C152.366 362.124 151.78 362.333 151.17 362.4C151.54 366.62 152.17 373.12 152.88 373.79C153.88 374.79 157.88 399.79 156.88 411.79C155.88 423.79 156.88 423.79 156.88 423.79C156.88 423.79 124.45 428.54 116.57 425.37C116.69 425.81 116.79 426.27 116.88 426.79C117.88 432.79 158.88 426.79 158.88 426.79C158.88 426.79 157.88 426.79 158.88 414.79C159.88 402.79 155.88 377.79 154.88 376.79Z" fill="black"></path>
</g>
<path d="M121.93 257.28C122.79 259.225 124.099 260.939 125.75 262.28C126.818 263.058 128.049 263.585 129.35 263.82C127.1 265.11 124.67 266.08 122.42 267.38C118.74 269.49 115.61 272.38 112.17 274.89C108.73 277.4 104.74 279.43 100.5 279.41C101.991 277.393 102.926 275.02 103.212 272.528C103.498 270.036 103.125 267.513 102.13 265.21C101.41 263.59 100.36 262.02 100.33 260.21C100.33 257.35 102.87 255.21 105.24 253.6C107.167 252.3 109.117 251.04 111.09 249.82C112.65 248.82 114.99 246.82 116.95 246.89C119.14 246.97 119.14 248.7 119.54 250.48C120.055 252.836 120.857 255.12 121.93 257.28V257.28Z" fill="#BE6F72"></path>
<path opacity="0.1" d="M121.93 257.28C122.79 259.225 124.099 260.939 125.75 262.28C126.818 263.058 128.049 263.585 129.35 263.82C127.1 265.11 124.67 266.08 122.42 267.38C118.74 269.49 115.61 272.38 112.17 274.89C108.73 277.4 104.74 279.43 100.5 279.41C101.991 277.393 102.926 275.02 103.212 272.528C103.498 270.036 103.125 267.513 102.13 265.21C101.41 263.59 100.36 262.02 100.33 260.21C100.33 257.35 102.87 255.21 105.24 253.6C107.167 252.3 109.117 251.04 111.09 249.82C112.65 248.82 114.99 246.82 116.95 246.89C119.14 246.97 119.14 248.7 119.54 250.48C120.055 252.836 120.857 255.12 121.93 257.28V257.28Z" fill="black"></path>
<path d="M145.38 316.3C158.083 316.3 168.38 306.003 168.38 293.3C168.38 280.597 158.083 270.3 145.38 270.3C132.677 270.3 122.38 280.597 122.38 293.3C122.38 306.003 132.677 316.3 145.38 316.3Z" fill="#BE6F72"></path>
<path d="M177.88 619.79C177.88 621.79 173.88 626.79 173.88 626.79C161.88 628.79 149.88 623.79 149.88 623.79C147.88 622.79 150.88 616.79 150.88 616.79C150.88 616.79 150.95 616.61 151.09 616.31C151.64 615 153.26 611.41 154.88 609.79C156.88 607.79 158.07 599.56 158.07 599.56C164.27 589.33 175.3 603.96 175.3 603.96C175.3 603.96 176.7 611.48 177.44 616.23C177.647 617.408 177.794 618.597 177.88 619.79V619.79Z" fill="rgba(133,84,141,1)"></path>
<path opacity="0.1" d="M177.88 619.79C177.88 621.79 173.88 626.79 173.88 626.79C161.88 628.79 149.88 623.79 149.88 623.79C147.88 622.79 150.88 616.79 150.88 616.79C150.88 616.79 150.95 616.61 151.09 616.31C155.69 618.31 164.53 621.49 172.88 620.79L177.44 616.23C177.647 617.408 177.794 618.597 177.88 619.79Z" fill="black"></path>
<path d="M99.38 267.8C111.806 267.8 121.88 257.726 121.88 245.3C121.88 232.874 111.806 222.8 99.38 222.8C86.9536 222.8 76.88 232.874 76.88 245.3C76.88 257.726 86.9536 267.8 99.38 267.8Z" fill="#BE6F72"></path>
<path d="M81.2201 290.27C76.3001 294.98 75.4901 302.44 74.9701 309.27L74.2201 319.21C73.9455 321.887 73.8753 324.582 74.0101 327.27C74.1401 328.95 74.4301 330.61 74.5901 332.27C74.7801 334.27 74.79 336.27 74.8 338.27L74.8901 352.98C74.8901 355.98 74.9701 359.2 76.5101 361.81C78.0501 364.42 81.6001 366.1 84.2001 364.55C85.9001 363.55 86.6901 361.55 87.3701 359.68C89.5701 353.62 91.7901 347.47 92.3701 341.05C92.5801 338.84 92.6 336.62 92.8 334.41C93 332.2 93.3801 329.89 93.7201 327.64C95.1401 318.27 95.7801 308.81 96.4101 299.37C96.6001 296.57 99.1201 285.56 95.4601 284.37C93.6701 283.77 89.9701 285.61 88.2801 286.23C85.6761 287.082 83.2737 288.456 81.2201 290.27V290.27Z" fill="#BE6F72"></path>
<path opacity="0.1" d="M81.2201 290.27C76.3001 294.98 75.4901 302.44 74.9701 309.27L74.2201 319.21C73.9455 321.887 73.8753 324.582 74.0101 327.27C74.1401 328.95 74.4301 330.61 74.5901 332.27C74.7801 334.27 74.79 336.27 74.8 338.27L74.8901 352.98C74.8901 355.98 74.9701 359.2 76.5101 361.81C78.0501 364.42 81.6001 366.1 84.2001 364.55C85.9001 363.55 86.6901 361.55 87.3701 359.68C89.5701 353.62 91.7901 347.47 92.3701 341.05C92.5801 338.84 92.6 336.62 92.8 334.41C93 332.2 93.3801 329.89 93.7201 327.64C95.1401 318.27 95.7801 308.81 96.4101 299.37C96.6001 296.57 99.1201 285.56 95.4601 284.37C93.6701 283.77 89.9701 285.61 88.2801 286.23C85.6761 287.082 83.2737 288.456 81.2201 290.27V290.27Z" fill="black"></path>
<path d="M127.88 259.79C127.88 259.79 110.88 272.79 100.88 275.79C100.88 275.79 94.9501 282.56 93.8801 284.18C92.8101 285.8 90.8801 303.79 88.8801 307.79C86.8801 311.79 81.8801 320.79 88.8801 329.79C88.8801 329.79 90.8801 338.79 89.8801 341.79C88.8801 344.79 85.2501 355.79 88.5701 356.3C91.8901 356.81 101.88 363.79 110.88 361.79C119.88 359.79 153.38 369.29 153.38 369.29C153.38 369.29 158.88 317.79 162.88 308.79L153.88 305.79C153.88 305.79 128.88 290.79 143.88 267.79C143.88 267.79 129.88 264.79 127.88 259.79Z" fill="rgba(133,84,141,1)"></path>
<path d="M65.8101 320.02L86.4601 334.64C86.7247 334.832 87.0432 334.935 87.3701 334.935C87.6969 334.935 88.0155 334.832 88.2801 334.64L93.86 330.45C94.0455 330.314 94.1981 330.139 94.3063 329.936C94.4146 329.733 94.4758 329.509 94.4854 329.279C94.495 329.05 94.4528 328.821 94.3618 328.61C94.2709 328.399 94.1336 328.211 93.9601 328.06L78.0701 313.89C77.8612 313.708 77.6078 313.584 77.3355 313.531C77.0633 313.478 76.7819 313.499 76.5201 313.59L66.1801 317.29C65.9145 317.388 65.6806 317.557 65.5035 317.778C65.3264 317.998 65.2128 318.263 65.1748 318.544C65.1368 318.824 65.1758 319.11 65.2877 319.37C65.3996 319.63 65.5802 319.855 65.8101 320.02Z" fill="#3F3D56"></path>
<path d="M72.7501 364.1C71.0501 359.1 70.8101 353.76 70.5901 348.49L70.2901 341.49C70.1701 338.75 70.0701 335.91 71.0301 333.34C72.4101 329.66 75.8601 327.03 79.6001 325.83C83.4021 324.776 87.3763 324.49 91.2901 324.99C91.8138 324.983 92.3282 325.129 92.7701 325.41C93.1696 325.782 93.4541 326.261 93.5901 326.79C94.4401 329.17 95.2701 331.91 94.0601 334.14C93.4661 335.106 92.6631 335.926 91.7101 336.54C88.9401 338.54 85.7101 339.86 83.0801 342.02C82.5581 342.316 82.1616 342.792 81.9647 343.358C81.7678 343.925 81.7839 344.544 82.0101 345.1C82.3402 346.502 82.7885 347.874 83.3501 349.2C83.5781 349.864 83.9702 350.459 84.4901 350.93C84.9801 351.32 85.6201 351.49 86.1101 351.87C87.2101 352.75 89.4801 353.93 89.3801 355.33C89.0001 360.51 85.9401 366.11 84.7301 371.15C82.3801 380.97 74.2201 368.39 72.7501 364.1Z" fill="#BE6F72"></path>
<g opacity="0.1">
<path opacity="0.1" d="M104.88 361.79C104.698 361.83 104.515 361.86 104.33 361.88C106.499 362.27 108.723 362.24 110.88 361.79L111.5 361.69C109.299 361.419 107.072 361.453 104.88 361.79V361.79Z" fill="black"></path>
<path opacity="0.1" d="M157.38 307.29C153.8 315.36 148.51 359.04 147.55 367.72C151.09 368.64 153.38 369.29 153.38 369.29C153.38 369.29 158.88 317.79 162.88 308.79L157.38 307.29Z" fill="black"></path>
</g>
<path d="M146.16 294C146.23 296.05 147.91 297.62 149.45 299C151.571 300.78 153.517 302.759 155.26 304.91C157.778 308.44 159.732 312.34 161.05 316.47C162.96 321.653 164.569 326.942 165.87 332.31C153.01 338.21 138.67 337.93 125.07 341.83C119.208 343.346 113.883 346.462 109.69 350.83C105.69 355.3 103.27 361.44 104.07 367.41C104.094 367.762 104.196 368.104 104.37 368.41C104.596 368.655 104.874 368.846 105.184 368.969C105.494 369.092 105.828 369.144 106.16 369.12C109.543 369.124 112.83 367.998 115.5 365.92C118.141 363.868 120.536 361.519 122.64 358.92C123.962 357.22 125.732 355.921 127.75 355.17C135.12 352.92 142.97 353.06 150.68 352.92C162.09 352.701 173.477 351.799 184.78 350.22C185.703 350.208 186.588 349.852 187.26 349.22C187.646 348.625 187.847 347.929 187.84 347.22C188.96 332.22 183.39 317.54 177.62 303.62C175.307 298.047 172.95 292.493 170.55 286.96C168.26 281.69 165.85 276.32 161.9 272.15C160.455 270.541 158.691 269.25 156.72 268.36C154.596 267.604 152.372 267.169 150.12 267.07C146.409 266.585 142.656 266.515 138.93 266.86C138.52 268.86 137.79 270.64 137.86 272.65C138.07 279.52 141.07 285.95 144.02 292.16C144.49 293.06 145.57 293.09 146.16 294Z" fill="#BE6F72"></path>
<path opacity="0.1" d="M105.44 306.89C103.709 309.837 102.823 313.203 102.88 316.62C102.89 317.978 103.106 319.327 103.52 320.62C104.76 324.24 108.03 326.9 111.64 328.17" stroke="black" stroke-miterlimit="10"></path>
<path d="M118.38 223.29C117.124 223.295 115.876 223.494 114.68 223.88C111.35 218.88 103.52 215.29 94.38 215.29C82.23 215.29 72.38 221.56 72.38 229.29C72.38 237.02 82.23 243.29 94.38 243.29C98.9315 243.34 103.438 242.388 107.58 240.5C108.511 242.432 109.943 244.079 111.727 245.27C113.511 246.461 115.581 247.152 117.722 247.271C119.864 247.391 121.998 246.934 123.903 245.949C125.808 244.963 127.414 243.485 128.554 241.669C129.694 239.852 130.327 237.763 130.385 235.619C130.444 233.475 129.927 231.354 128.889 229.478C127.85 227.602 126.327 226.038 124.479 224.95C122.631 223.861 120.525 223.288 118.38 223.29V223.29Z" fill="#3F3D56"></path>
<path opacity="0.1" d="M119.38 244.29C117.124 244.288 114.913 243.65 113.003 242.449C111.093 241.248 109.56 239.533 108.58 237.5C104.438 239.388 99.9315 240.34 95.38 240.29C83.23 240.29 73.38 234.03 73.38 226.29C73.3815 225.828 73.4182 225.367 73.49 224.91C72.7694 226.258 72.3884 227.761 72.38 229.29C72.38 237.03 82.23 243.29 94.38 243.29C98.9315 243.34 103.438 242.388 107.58 240.5C108.682 242.768 110.471 244.63 112.692 245.824C114.913 247.017 117.453 247.481 119.953 247.149C122.452 246.817 124.783 245.706 126.615 243.974C128.448 242.242 129.688 239.977 130.16 237.5C129.182 239.53 127.652 241.243 125.745 242.444C123.839 243.645 121.633 244.284 119.38 244.29V244.29Z" fill="black"></path>
<path opacity="0.1" d="M69.38 223.89C72.7447 216.99 78.3485 211.434 85.2771 208.129C92.2057 204.823 100.05 203.964 107.53 205.69C112.767 202.461 118.743 200.627 124.89 200.365C131.037 200.102 137.148 201.419 142.641 204.19C148.134 206.961 152.825 211.094 156.266 216.193C159.708 221.293 161.785 227.189 162.3 233.32C162.38 232.32 162.43 231.32 162.43 230.32C162.428 223.913 160.716 217.622 157.471 212.097C154.226 206.572 149.565 202.014 143.97 198.892C138.375 195.77 132.047 194.198 125.641 194.338C119.236 194.479 112.983 196.326 107.53 199.69C100.05 197.964 92.2057 198.823 85.2771 202.129C78.3485 205.434 72.7447 210.99 69.38 217.89C61.52 224.89 56.38 236.15 56.38 248.82C56.38 249.82 56.38 250.82 56.49 251.82C57.22 240.36 62.1 230.32 69.38 223.89Z" fill="black"></path>
<path d="M39.4399 244.58C37.6599 244.58 35.9199 245.108 34.4398 246.097C32.9598 247.086 31.8062 248.491 31.125 250.136C30.4438 251.78 30.2656 253.59 30.6129 255.336C30.9601 257.082 31.8173 258.685 33.076 259.944C34.3347 261.203 35.9383 262.06 37.6841 262.407C39.43 262.754 41.2396 262.576 42.8841 261.895C44.5286 261.214 45.9342 260.06 46.9232 258.58C47.9121 257.1 48.4399 255.36 48.4399 253.58V253.58C48.4399 251.193 47.4917 248.904 45.8039 247.216C44.1161 245.528 41.8269 244.58 39.4399 244.58V244.58ZM40.6499 247.83C40.802 247.833 40.9496 247.882 41.0742 247.969C41.1987 248.056 41.2947 248.178 41.3499 248.32C41.4831 248.637 41.5516 248.977 41.5516 249.32C41.5516 249.663 41.4831 250.003 41.3499 250.32C41.2425 250.668 41.0984 251.003 40.9199 251.32C40.9199 251.32 40.8099 251.48 41.1699 251.48H43.4799C43.578 251.486 43.6737 251.512 43.7611 251.557C43.8485 251.602 43.9256 251.664 43.9876 251.74C44.0496 251.816 44.0952 251.905 44.1214 251.999C44.1476 252.094 44.154 252.193 44.1399 252.29C44.1455 252.448 44.1011 252.603 44.0131 252.734C43.9251 252.865 43.798 252.965 43.6499 253.02V253.07C43.7829 253.134 43.897 253.231 43.9812 253.352C44.0653 253.472 44.1166 253.613 44.1299 253.76C44.1497 253.926 44.1029 254.093 43.9998 254.224C43.8966 254.355 43.7457 254.44 43.58 254.46C43.58 254.46 43.58 254.46 43.58 254.51C43.6982 254.575 43.795 254.673 43.8589 254.792C43.9228 254.911 43.9509 255.046 43.9399 255.18C43.9429 255.315 43.8985 255.447 43.8145 255.553C43.7305 255.659 43.6122 255.732 43.4799 255.76V255.81C43.564 255.873 43.6302 255.957 43.6722 256.053C43.7143 256.15 43.7307 256.255 43.7199 256.36C43.7217 256.495 43.6757 256.626 43.5899 256.73C43.5336 256.797 43.4631 256.85 43.3836 256.887C43.304 256.923 43.2174 256.941 43.1299 256.94H38.1299C38.1299 256.94 37.8699 256.94 37.8699 256.59V253.33C37.8662 252.527 38.0917 251.739 38.52 251.06C38.8623 250.552 39.2506 250.077 39.6799 249.64C39.7499 249.56 40.0099 249.34 40.0099 249.21C40.0099 249.08 40.0099 248.8 40.0099 248.32C40.0156 248.244 40.0373 248.17 40.0735 248.103C40.1098 248.036 40.1597 247.978 40.2201 247.932C40.2806 247.885 40.3501 247.852 40.4242 247.835C40.4983 247.817 40.5752 247.816 40.6499 247.83ZM34.9599 252.59H36.9599C37.0334 252.593 37.1032 252.623 37.1552 252.675C37.2072 252.727 37.2374 252.797 37.2399 252.87V257.42C37.2413 257.457 37.2351 257.494 37.2215 257.529C37.2079 257.563 37.1873 257.595 37.161 257.621C37.1348 257.647 37.1033 257.668 37.0687 257.682C37.0341 257.695 36.9971 257.701 36.9599 257.7H34.9599C34.8857 257.7 34.8145 257.671 34.762 257.618C34.7094 257.566 34.6799 257.494 34.6799 257.42V252.89C34.6786 252.852 34.6848 252.814 34.6981 252.778C34.7115 252.743 34.7317 252.71 34.7577 252.682C34.7838 252.654 34.815 252.632 34.8497 252.616C34.8844 252.6 34.9218 252.591 34.9599 252.59V252.59Z" fill="rgba(52,54,58,1)"></path>
<path d="M60.81 243.37C60.717 243.464 60.6064 243.538 60.4846 243.589C60.3627 243.64 60.232 243.666 60.1 243.666C59.968 243.666 59.8373 243.64 59.7154 243.589C59.5935 243.538 59.4829 243.464 59.39 243.37L58.84 242.88C54.39 238.79 51.84 236.14 51.84 232.83C51.84 230.13 53.54 228.04 56.23 228.04C56.9723 228.045 57.7046 228.211 58.3763 228.527C59.048 228.843 59.643 229.301 60.12 229.87C60.5969 229.301 61.1919 228.843 61.8636 228.527C62.5353 228.211 63.2677 228.045 64.01 228.04C66.69 228.04 68.4 230.13 68.4 232.83C68.4 236.14 65.83 238.83 61.4 242.88L60.81 243.37Z" fill="rgba(151,33,230,1)"></path>
<path d="M40.8299 132.29C37.6354 132.288 34.5119 133.234 31.8548 135.007C29.1976 136.78 27.126 139.302 25.9022 142.253C24.6783 145.204 24.357 148.451 24.979 151.585C25.601 154.718 27.1384 157.597 29.3966 159.856C31.6548 162.116 34.5325 163.655 37.6656 164.279C40.7986 164.903 44.0463 164.584 46.9979 163.362C49.9496 162.14 52.4724 160.07 54.2475 157.414C56.0225 154.757 56.9699 151.635 56.9699 148.44C56.9712 146.32 56.5547 144.22 55.7442 142.26C54.9337 140.301 53.745 138.521 52.2462 137.021C50.7473 135.521 48.9676 134.331 47.0088 133.52C45.0499 132.708 42.9503 132.29 40.8299 132.29ZM42.9899 138.1C43.2623 138.111 43.5257 138.2 43.7477 138.359C43.9698 138.517 44.1408 138.736 44.2399 138.99C44.7255 140.12 44.7435 141.397 44.2899 142.54C44.0922 143.157 43.8343 143.753 43.52 144.32C43.52 144.32 43.3199 144.62 43.9699 144.61H48.0999C48.2762 144.623 48.4479 144.673 48.6042 144.755C48.7606 144.837 48.8984 144.951 49.0091 145.089C49.1197 145.227 49.2008 145.386 49.2474 145.556C49.294 145.727 49.3051 145.905 49.2799 146.08C49.2887 146.359 49.2094 146.634 49.0532 146.865C48.8971 147.097 48.672 147.274 48.4099 147.37C48.4036 147.376 48.3985 147.383 48.395 147.39C48.3914 147.398 48.3896 147.406 48.3896 147.415C48.3896 147.424 48.3914 147.432 48.395 147.44C48.3985 147.447 48.4036 147.454 48.4099 147.46C48.6482 147.575 48.8527 147.749 49.0034 147.967C49.1542 148.184 49.246 148.437 49.27 148.7C49.2866 148.848 49.274 148.997 49.2327 149.14C49.1914 149.283 49.1223 149.416 49.0294 149.533C48.9365 149.649 48.8216 149.745 48.6913 149.817C48.561 149.889 48.4178 149.934 48.27 149.95C48.2531 149.955 48.2387 149.966 48.2294 149.98C48.2202 149.995 48.2168 150.013 48.2199 150.03V150.03C48.4315 150.143 48.6062 150.314 48.7232 150.523C48.8402 150.732 48.8947 150.971 48.8799 151.21C48.878 151.452 48.7954 151.687 48.6451 151.877C48.4948 152.068 48.2854 152.202 48.0499 152.26C48.0324 152.267 48.0177 152.279 48.0085 152.296C47.9994 152.312 47.9963 152.332 47.9999 152.35V152.35C48.1605 152.457 48.2866 152.609 48.3629 152.786C48.4392 152.964 48.4625 153.16 48.4299 153.35C48.4302 153.487 48.4025 153.622 48.3485 153.747C48.2945 153.872 48.2155 153.986 48.1162 154.079C48.0169 154.173 47.8994 154.245 47.7711 154.292C47.6427 154.338 47.5062 154.358 47.3699 154.35H38.5099C38.5099 154.35 38.0299 154.35 38.0299 153.7V147.88C38.0334 146.445 38.4349 145.04 39.1899 143.82C39.82 142.923 40.5152 142.075 41.27 141.28C41.4 141.15 41.8699 140.74 41.8699 140.52C41.8699 140.3 41.8699 139.78 41.8699 138.93C41.9119 138.673 42.0523 138.443 42.2615 138.288C42.4706 138.133 42.7319 138.065 42.9899 138.1ZM32.8199 146.62H36.3799C36.5152 146.62 36.6449 146.674 36.7406 146.769C36.8362 146.865 36.8899 146.995 36.8899 147.13V155.26C36.8899 155.395 36.8362 155.525 36.7406 155.621C36.6449 155.716 36.5152 155.77 36.3799 155.77H32.8299C32.7634 155.77 32.6976 155.757 32.6363 155.731C32.5749 155.705 32.5194 155.668 32.4728 155.62C32.4262 155.573 32.3896 155.516 32.3651 155.454C32.3405 155.393 32.3286 155.326 32.3299 155.26V147.12C32.3299 146.989 32.3812 146.863 32.4728 146.77C32.5644 146.676 32.6891 146.623 32.8199 146.62V146.62Z" fill="rgba(52,54,58,1)"></path>
<path d="M26.27 0.890015C21.1277 0.890015 16.1009 2.41489 11.8252 5.2718C7.54951 8.12872 4.21704 12.1894 2.24917 16.9402C0.281288 21.6911 -0.233603 26.9189 0.769613 31.9624C1.77283 37.0059 4.24908 41.6386 7.88524 45.2748C11.5214 48.911 16.1542 51.3872 21.1977 52.3904C26.2412 53.3936 31.4689 52.8788 36.2198 50.9109C40.9707 48.943 45.0313 45.6105 47.8882 41.3348C50.7451 37.0592 52.27 32.0323 52.27 26.89V26.89C52.27 19.9944 49.5308 13.3812 44.6548 8.50523C39.7789 3.62929 33.1657 0.890015 26.27 0.890015V0.890015ZM29.75 10.25C30.1877 10.2682 30.6104 10.4143 30.9659 10.6702C31.3213 10.9262 31.594 11.2807 31.75 11.69C32.5367 13.5094 32.5691 15.5667 31.84 17.41C31.5184 18.407 31.1032 19.3712 30.6 20.29C30.6 20.29 30.26 20.77 31.32 20.75H37.97C38.2544 20.7691 38.5318 20.8468 38.7847 20.9781C39.0377 21.1094 39.2609 21.2916 39.4402 21.5131C39.6195 21.7347 39.7511 21.9909 39.8268 22.2656C39.9025 22.5404 39.9206 22.8279 39.88 23.11C39.8934 23.5622 39.7646 24.0071 39.5116 24.3821C39.2586 24.757 38.8943 25.0431 38.47 25.2C38.4562 25.2043 38.4434 25.2115 38.4327 25.2212C38.4219 25.2309 38.4134 25.2428 38.4077 25.2561C38.402 25.2695 38.3992 25.2839 38.3996 25.2983C38.4 25.3128 38.4036 25.327 38.41 25.34C38.41 25.34 38.41 25.39 38.46 25.4C38.8436 25.5864 39.1729 25.8683 39.4162 26.2185C39.6596 26.5687 39.809 26.9755 39.85 27.4C39.898 27.8764 39.7573 28.3527 39.4582 28.7266C39.1591 29.1005 38.7253 29.3422 38.25 29.4C38.2217 29.4092 38.1978 29.4287 38.183 29.4546C38.1682 29.4805 38.1636 29.5109 38.17 29.54C38.1743 29.5542 38.1821 29.5671 38.1925 29.5775C38.203 29.588 38.2159 29.5957 38.23 29.6C38.5634 29.7903 38.8349 30.0726 39.0123 30.413C39.1896 30.7535 39.2652 31.1378 39.23 31.52C39.2247 31.9087 39.0915 32.2847 38.8511 32.5902C38.6107 32.8956 38.2765 33.1134 37.9 33.21C37.8853 33.2135 37.8714 33.2199 37.8593 33.2289C37.8471 33.238 37.837 33.2494 37.8295 33.2626C37.822 33.2757 37.8173 33.2903 37.8156 33.3053C37.814 33.3203 37.8155 33.3356 37.82 33.35C37.8311 33.3741 37.8483 33.3948 37.87 33.41C38.1093 33.5889 38.2985 33.8264 38.4193 34.0997C38.5401 34.3729 38.5886 34.6726 38.56 34.97C38.5652 35.3667 38.4307 35.7525 38.18 36.06C38.0162 36.2551 37.8109 36.4111 37.579 36.5166C37.3472 36.6222 37.0947 36.6746 36.84 36.67H22.57C22.57 36.67 21.79 36.67 21.79 35.67V26.28C21.7897 23.9649 22.4375 21.696 23.66 19.73C24.6701 18.2831 25.7937 16.9188 27.02 15.65C27.22 15.42 28.02 14.77 28.02 14.42C28.02 14.07 28.07 13.22 28.09 11.85C28.0912 11.636 28.1355 11.4245 28.2203 11.228C28.3052 11.0316 28.4288 10.8543 28.5838 10.7068C28.7388 10.5592 28.922 10.4445 29.1224 10.3695C29.3228 10.2944 29.5362 10.2606 29.75 10.27V10.25ZM13.38 24.01H19.1C19.3158 24.01 19.5229 24.095 19.6764 24.2466C19.8298 24.3983 19.9174 24.6043 19.92 24.82V37.94C19.92 38.1575 19.8336 38.3661 19.6799 38.5198C19.5261 38.6736 19.3175 38.76 19.1 38.76H13.38C13.1625 38.76 12.954 38.6736 12.8002 38.5198C12.6464 38.3661 12.56 38.1575 12.56 37.94V24.82C12.5626 24.6043 12.6502 24.3983 12.8037 24.2466C12.9572 24.095 13.1643 24.01 13.38 24.01V24.01Z" fill="rgba(52,54,58,1)"></path>
<path d="M23.38 214.44C23.0312 214.753 22.5789 214.927 22.11 214.927C21.6411 214.927 21.1888 214.753 20.84 214.44L19.84 213.56C11.84 206.25 7.27002 201.5 7.27002 195.56C7.27002 190.73 10.32 187 15.12 187C16.454 187 17.7719 187.291 18.9812 187.854C20.1905 188.418 21.2618 189.239 22.12 190.26C22.9791 189.24 24.0506 188.419 25.2597 187.856C26.4688 187.293 27.7862 187.001 29.12 187C33.92 187 36.97 190.73 36.97 195.56C36.97 201.47 32.37 206.22 24.4 213.56L23.38 214.44Z" fill="rgba(151,33,230,1)"></path>
<path d="M75.5399 128.53C74.9846 129.047 74.2539 129.335 73.495 129.335C72.736 129.335 72.0053 129.047 71.45 128.53L69.88 127.11C57.03 115.32 49.61 107.66 49.61 98.11C49.61 90.32 54.54 84.3 62.27 84.3C64.4119 84.3122 66.5256 84.7898 68.4646 85.6998C70.4037 86.6097 72.1218 87.9303 73.5 89.57C74.8762 87.9305 76.5925 86.6101 78.5299 85.7001C80.4674 84.7901 82.5795 84.3123 84.72 84.3C92.46 84.3 97.38 90.3 97.38 98.11C97.38 107.64 89.96 115.3 77.11 127.11L75.5399 128.53Z" fill="rgba(151,33,230,1)"></path>
<defs>
<linearGradient id="zkrdeephmp" x1="122.38" y1="627.27" x2="122.38" y2="189.29" gradientUnits="userSpaceOnUse">
<stop stop-color="#808080" stop-opacity="0.25"></stop>
<stop offset="0.54" stop-color="#808080" stop-opacity="0.12"></stop>
<stop offset="1" stop-color="#808080" stop-opacity="0.1"></stop>
</linearGradient>
</defs>
</svg>