<svg width="225" height="224" viewBox="0 0 225 224" fill="none" xmlns="http://www.w3.org/2000/svg">
<path d="M154.093 88.4625C161.142 88.4625 166.856 82.7344 166.856 75.6683C166.856 68.6023 161.142 62.8741 154.093 62.8741C147.044 62.8741 141.33 68.6023 141.33 75.6683C141.33 82.7344 147.044 88.4625 154.093 88.4625Z" fill="#2F2E41"/>
<path d="M157.649 63.2263C159.857 63.2266 162.028 63.8015 163.949 64.8947C165.87 65.9879 167.475 67.562 168.607 69.4632C169.739 71.3644 170.36 73.5276 170.408 75.7412C170.457 77.9549 169.932 80.1433 168.884 82.0925C169.99 80.7047 170.796 79.101 171.25 77.3837C171.704 75.6664 171.797 73.873 171.521 72.118C171.245 70.363 170.608 68.6847 169.65 67.1902C168.692 65.6957 167.433 64.4177 165.955 63.4376C164.477 62.4576 162.811 61.797 161.064 61.4979C159.317 61.1989 157.527 61.2679 155.808 61.7007C154.089 62.1334 152.479 62.9204 151.081 64.0114C149.682 65.1024 148.525 66.4736 147.684 68.0375C148.877 66.536 150.393 65.3236 152.118 64.4906C153.843 63.6576 155.734 63.2255 157.649 63.2263V63.2263Z" fill="#2F2E41"/>
<path d="M130.244 75.6412C150.949 75.6412 167.734 58.8148 167.734 38.0583C167.734 17.3019 150.949 0.475433 130.244 0.475433C109.538 0.475433 92.7529 17.3019 92.7529 38.0583C92.7529 58.8148 109.538 75.6412 130.244 75.6412Z" fill="#2F2E41"/>
<path d="M100.82 14.7399C107.28 7.45699 116.309 2.97492 126.004 2.23968C135.698 1.50445 145.298 4.57357 152.777 10.7993C152.47 10.5072 152.167 10.2127 151.849 9.92877C144.417 3.30626 134.666 -0.0856995 124.74 0.499092C114.814 1.08388 105.526 5.59751 98.9199 13.047C92.3137 20.4966 88.93 30.2718 89.5134 40.2222C90.0967 50.1727 94.5993 59.4832 102.031 66.1057C102.349 66.3896 102.676 66.6571 103.002 66.9281C95.9579 60.2111 91.7929 51.0134 91.3857 41.2763C90.9786 31.5391 94.3612 22.0243 100.82 14.7399V14.7399Z" fill="#2F2E41"/>
<path d="M129.926 75.3227C143.262 75.3227 154.072 64.4854 154.072 51.1168C154.072 37.7482 143.262 26.9109 129.926 26.9109C116.59 26.9109 105.779 37.7482 105.779 51.1168C105.779 64.4854 116.59 75.3227 129.926 75.3227Z" fill="#A0616A"/>
<path d="M112.769 58.7608C112.769 58.7608 115.946 88.0627 110.863 91.2477C105.779 94.4327 140.093 98.8917 140.093 98.8917C140.093 98.8917 135.01 67.0418 147.718 58.7608L112.769 58.7608Z" fill="#A0616A"/>
<path d="M143.27 86.1517C143.27 86.1517 152.732 81.7224 139.105 83.3C125.478 84.8777 113.721 78.8262 113.721 78.8262C113.721 78.8262 109.592 74.6857 108.957 79.1447C108.321 83.6037 110.863 91.8847 96.8832 93.1587C82.9036 94.4327 70.1949 90.6107 65.1114 100.166C60.0279 109.721 62.5696 151.126 62.5696 151.126C62.5696 151.126 72.1012 185.523 79.7264 190.619C87.3517 195.715 154.073 188.708 154.073 188.708L173.136 154.311V114.18C173.136 114.18 170.594 100.166 152.802 103.988C152.802 103.988 141.364 101.44 141.999 95.7067C142.635 89.9737 143.27 86.1517 143.27 86.1517Z" fill="#D0CDE1"/>
<path d="M82.2482 214.962C82.641 213.247 82.904 212.276 82.904 212.276L82.7006 210.881L80.6071 196.63L79.7269 190.619C87.3504 187.434 89.2581 172.782 89.2581 172.782L89.5456 172.61L90.8466 171.829V171.826L95.5175 169.017L95.6122 168.961L97.4988 170.219L101.332 172.782C106.356 176.541 112.108 179.207 118.219 180.611C124.331 182.015 130.667 182.125 136.823 180.934C139.688 180.442 142.49 179.631 145.176 178.516L154.419 175.426L154.707 175.331L154.991 175.373L160.412 176.195L160.51 176.213L160.959 176.28L159.704 184.98L157.884 197.625C162.691 200.177 166.966 204.972 170.704 210.881C171.532 212.189 172.334 213.549 173.11 214.962C174.12 216.79 175.084 218.692 176.003 220.639C176.115 220.871 176.224 221.107 176.332 221.342C176.687 222.105 177.037 222.875 177.377 223.648H80.565C80.6913 222.872 80.8175 222.13 80.9402 221.416C80.9466 221.392 80.9513 221.367 80.9543 221.342C80.9998 221.103 81.0419 220.871 81.0805 220.639C81.5083 218.319 81.9221 216.382 82.2482 214.962Z" fill="#2F2E41"/>
<path d="M78.4556 92.5217C78.4556 92.5217 85.4454 105.262 82.9036 121.187C80.3619 137.112 90.5289 176.605 90.5289 176.605L98.1541 174.695C98.1541 174.695 93.0706 141.571 94.3415 133.927C95.6124 126.283 95.6124 96.3437 89.258 92.5217C82.9036 88.6997 78.4556 92.5217 78.4556 92.5217Z" fill="#2F2E41"/>
<path d="M152.355 105.761L155.026 176.287L160.109 179.472C160.109 179.472 167.417 102.077 163.604 102.077H155.846C155.372 102.077 154.903 102.173 154.467 102.361C154.031 102.548 153.638 102.823 153.312 103.168C152.985 103.512 152.732 103.92 152.567 104.366C152.403 104.812 152.33 105.286 152.355 105.761V105.761Z" fill="#2F2E41"/>
<path d="M94.0237 175.013C95.7784 175.013 97.2009 173.587 97.2009 171.828C97.2009 170.069 95.7784 168.643 94.0237 168.643C92.269 168.643 90.8466 170.069 90.8466 171.828C90.8466 173.587 92.269 175.013 94.0237 175.013Z" fill="#6C63FF"/>
<path d="M157.567 178.198C159.322 178.198 160.745 176.772 160.745 175.013C160.745 173.254 159.322 171.828 157.567 171.828C155.813 171.828 154.39 173.254 154.39 175.013C154.39 176.772 155.813 178.198 157.567 178.198Z" fill="#6C63FF"/>
<path d="M109.274 20.8591V45.0653H114.866L121.983 37.4213L121.03 45.0653H145.749L144.224 37.4213L147.274 45.0653H151.213V20.8591H109.274Z" fill="#2F2E41"/>
<path d="M105.462 49.5243C106.515 49.5243 107.368 47.9557 107.368 46.0208C107.368 44.0859 106.515 42.5173 105.462 42.5173C104.409 42.5173 103.555 44.0859 103.555 46.0208C103.555 47.9557 104.409 49.5243 105.462 49.5243Z" fill="#A0616A"/>
<path d="M154.39 49.5243C155.443 49.5243 156.297 47.9557 156.297 46.0208C156.297 44.0859 155.443 42.5173 154.39 42.5173C153.337 42.5173 152.484 44.0859 152.484 46.0208C152.484 47.9557 153.337 49.5243 154.39 49.5243Z" fill="#A0616A"/>
<path d="M167.417 174.694C167.417 174.694 138.504 169.28 136.598 178.835C134.692 188.39 168.688 184.249 168.688 184.249L167.417 174.694Z" fill="#A0616A"/>
<path d="M166.781 109.084C166.781 109.084 236.044 164.503 223.335 177.879C210.626 191.256 162.333 187.434 162.333 187.434L165.51 171.509L193.47 168.324L179.49 154.311L166.781 155.585V109.084Z" fill="#D0CDE1"/>
<path d="M64.476 201.448L73.3721 208.455C73.3721 208.455 79.7264 228.202 89.258 222.469C98.7895 216.736 80.3619 196.352 80.3619 196.352L69.5594 192.53L64.476 201.448Z" fill="#A0616A"/>
<path d="M73.3721 98.8917L64.5 101.568C64.5 101.568 2.83862 147.304 0.296876 160.043C-2.24487 172.783 12.3702 179.79 12.3702 179.79L67.6532 205.907L73.3721 190.619L47.3192 177.242C47.3192 177.242 49.2255 173.42 41.6003 172.783C33.975 172.146 32.7041 163.865 32.7041 163.865C32.7041 163.865 47.9546 140.297 56.2153 145.393C64.476 150.489 67.0177 154.311 67.0177 154.311L73.3721 98.8917Z" fill="#D0CDE1"/>
<path d="M199.915 217.145V219.279C199.916 219.865 199.808 220.445 199.596 220.991C199.501 221.234 199.388 221.469 199.255 221.694C198.838 222.397 198.245 222.979 197.535 223.384C196.824 223.788 196.022 224 195.205 224H38.6146C37.7981 224 36.9954 223.788 36.2854 223.384C35.5754 222.979 34.9823 222.397 34.5644 221.694C34.4322 221.469 34.3185 221.234 34.2243 220.991C34.0122 220.445 33.904 219.865 33.9052 219.279V217.145C33.905 216.525 34.0267 215.911 34.2633 215.338C34.4999 214.765 34.8468 214.245 35.2842 213.807C35.7215 213.368 36.2407 213.02 36.8122 212.783C37.3837 212.546 37.9961 212.424 38.6146 212.424H47.6408V211.429C47.6408 211.403 47.6458 211.378 47.6557 211.354C47.6655 211.33 47.68 211.308 47.6982 211.29C47.7165 211.272 47.7381 211.257 47.762 211.247C47.7858 211.238 47.8114 211.232 47.8372 211.232H52.5466C52.5724 211.232 52.598 211.238 52.6218 211.247C52.6457 211.257 52.6674 211.272 52.6856 211.29C52.7038 211.308 52.7183 211.33 52.7282 211.354C52.738 211.378 52.7431 211.403 52.743 211.429V212.424H55.6851V211.429C55.6851 211.403 55.6901 211.378 55.7 211.354C55.7098 211.33 55.7243 211.308 55.7425 211.29C55.7608 211.272 55.7825 211.257 55.8063 211.247C55.8301 211.238 55.8557 211.232 55.8815 211.232H60.591C60.6168 211.232 60.6423 211.238 60.6662 211.247C60.69 211.257 60.7117 211.272 60.7299 211.29C60.7482 211.308 60.7626 211.33 60.7725 211.354C60.7823 211.378 60.7874 211.403 60.7873 211.429V212.424H63.733V211.429C63.7329 211.403 63.738 211.378 63.7478 211.354C63.7577 211.33 63.7722 211.308 63.7904 211.29C63.8086 211.272 63.8303 211.257 63.8542 211.247C63.878 211.238 63.9036 211.232 63.9294 211.232H68.6388C68.6646 211.232 68.6902 211.238 68.714 211.247C68.7379 211.257 68.7595 211.272 68.7778 211.29C68.796 211.308 68.8105 211.33 68.8203 211.354C68.8302 211.378 68.8352 211.403 68.8352 211.429V212.424H71.7773V211.429C71.7773 211.403 71.7823 211.378 71.7922 211.354C71.802 211.33 71.8165 211.308 71.8347 211.29C71.853 211.272 71.8746 211.257 71.8985 211.247C71.9223 211.238 71.9479 211.232 71.9737 211.232H76.6831C76.7089 211.232 76.7345 211.238 76.7583 211.247C76.7822 211.257 76.8039 211.272 76.8221 211.29C76.8403 211.308 76.8548 211.33 76.8647 211.354C76.8745 211.378 76.8796 211.403 76.8795 211.429V212.424H79.8216V211.429C79.8216 211.403 79.8266 211.378 79.8365 211.354C79.8463 211.33 79.8608 211.308 79.879 211.29C79.8973 211.272 79.9189 211.257 79.9428 211.247C79.9666 211.238 79.9922 211.232 80.018 211.232H84.7275C84.7533 211.232 84.7788 211.238 84.8026 211.247C84.8265 211.257 84.8482 211.272 84.8664 211.29C84.8847 211.308 84.8991 211.33 84.909 211.354C84.9188 211.378 84.9239 211.403 84.9238 211.429V212.424H87.8694V211.429C87.8694 211.403 87.8744 211.378 87.8843 211.354C87.8941 211.33 87.9086 211.308 87.9268 211.29C87.9451 211.272 87.9667 211.257 87.9906 211.247C88.0144 211.238 88.04 211.232 88.0658 211.232H92.7753C92.8011 211.232 92.8266 211.238 92.8505 211.247C92.8743 211.257 92.896 211.272 92.9142 211.29C92.9325 211.308 92.9469 211.33 92.9568 211.354C92.9666 211.378 92.9717 211.403 92.9716 211.429V212.424H95.9138V211.429C95.9137 211.403 95.9188 211.378 95.9286 211.354C95.9385 211.33 95.9529 211.308 95.9712 211.29C95.9894 211.272 96.0111 211.257 96.0349 211.247C96.0588 211.238 96.0843 211.232 96.1101 211.232H133C133.026 211.232 133.052 211.238 133.076 211.247C133.099 211.257 133.121 211.272 133.139 211.29C133.158 211.308 133.172 211.33 133.182 211.354C133.192 211.378 133.197 211.403 133.197 211.429V212.424H136.142V211.429C136.142 211.403 136.147 211.378 136.157 211.354C136.167 211.33 136.182 211.308 136.2 211.29C136.218 211.272 136.24 211.257 136.264 211.247C136.287 211.238 136.313 211.232 136.339 211.232H141.048C141.1 211.233 141.15 211.254 141.186 211.291C141.223 211.328 141.244 211.377 141.245 211.429V212.424H144.187V211.429C144.187 211.403 144.192 211.378 144.202 211.354C144.211 211.33 144.226 211.308 144.244 211.29C144.262 211.272 144.284 211.257 144.308 211.247C144.332 211.238 144.357 211.232 144.383 211.232H149.092C149.118 211.232 149.144 211.238 149.168 211.247C149.192 211.257 149.213 211.272 149.231 211.29C149.25 211.308 149.264 211.33 149.274 211.354C149.284 211.378 149.289 211.403 149.289 211.429V212.424H152.231V211.429C152.231 211.403 152.236 211.378 152.246 211.354C152.256 211.33 152.27 211.308 152.288 211.29C152.307 211.272 152.328 211.257 152.352 211.247C152.376 211.238 152.402 211.232 152.427 211.232H157.137C157.163 211.232 157.188 211.238 157.212 211.247C157.236 211.257 157.258 211.272 157.276 211.29C157.294 211.308 157.308 211.33 157.318 211.354C157.328 211.378 157.333 211.403 157.333 211.429V212.424H160.279V211.429C160.279 211.403 160.284 211.378 160.294 211.354C160.304 211.33 160.318 211.308 160.336 211.29C160.354 211.272 160.376 211.257 160.4 211.247C160.424 211.238 160.449 211.232 160.475 211.232H165.185C165.236 211.233 165.285 211.254 165.322 211.291C165.358 211.328 165.378 211.378 165.378 211.429V212.424H168.323V211.429C168.323 211.403 168.328 211.378 168.338 211.354C168.348 211.33 168.362 211.308 168.381 211.29C168.399 211.272 168.42 211.257 168.444 211.247C168.468 211.238 168.494 211.232 168.519 211.232H173.229C173.255 211.232 173.28 211.238 173.304 211.247C173.328 211.257 173.35 211.272 173.368 211.29C173.386 211.308 173.401 211.33 173.41 211.354C173.42 211.378 173.425 211.403 173.425 211.429V212.424H176.367V211.429C176.367 211.403 176.372 211.378 176.382 211.354C176.392 211.33 176.407 211.308 176.425 211.29C176.443 211.272 176.465 211.257 176.489 211.247C176.512 211.238 176.538 211.232 176.564 211.232H181.273C181.299 211.232 181.325 211.238 181.348 211.247C181.372 211.257 181.394 211.272 181.412 211.29C181.43 211.308 181.445 211.33 181.455 211.354C181.465 211.378 181.47 211.403 181.47 211.429V212.424H195.205C195.824 212.424 196.436 212.546 197.008 212.783C197.579 213.02 198.098 213.368 198.536 213.807C198.973 214.245 199.32 214.765 199.557 215.338C199.793 215.911 199.915 216.525 199.915 217.145V217.145Z" fill="#3F3D56"/>
<path d="M187.306 127.282H128.939V126.076H102.474V127.282H43.8672C42.8201 127.282 41.8159 127.699 41.0755 128.441C40.3351 129.184 39.9192 130.19 39.9192 131.24V211.358C39.9192 212.407 40.3351 213.414 41.0755 214.156C41.8159 214.898 42.8201 215.315 43.8672 215.315H187.306C188.353 215.315 189.357 214.898 190.097 214.156C190.838 213.414 191.254 212.407 191.254 211.358V131.24C191.254 130.19 190.838 129.184 190.097 128.441C189.357 127.699 188.353 127.282 187.306 127.282V127.282Z" fill="#3F3D56"/>
<path d="M115.701 164.041C120.543 164.041 124.468 160.107 124.468 155.253C124.468 150.4 120.543 146.465 115.701 146.465C110.86 146.465 106.935 150.4 106.935 155.253C106.935 160.107 110.86 164.041 115.701 164.041Z" stroke="#D0CDE1" stroke-width="2" stroke-miterlimit="10"/>
<path d="M112.896 167.205C117.738 167.205 121.663 163.271 121.663 158.417C121.663 153.563 117.738 149.629 112.896 149.629C108.054 149.629 104.129 153.563 104.129 158.417C104.129 163.271 108.054 167.205 112.896 167.205Z" fill="#D0CDE1"/>
</svg>
