<svg  preserveAspectRatio="none" xmlns="http://www.w3.org/2000/svg" viewBox="0 0 500 500.4"><path d="M499.6,437.4C499.5,424.4 499.8,410.79999999999995 499,398.5 499.7,395.5 499,384.5 499.7,379.70000000000005 499.4,376.30000000000007 499.5,372.9 499,371.70000000000005V368.4C499.2,332.79999999999995 499.3,298.4 498.8,262.7 498.8,252.7 498.7,242.79999999999998 498.7,232.79999999999998 498.5,230.2 498.4,227.49999999999997 498.3,224.7 498.2,212.29999999999998 498.40000000000003,200.39999999999998 498.40000000000003,188.6 498.6,178.79999999999998 498.70000000000005,168.7 498.50000000000006,158.7 498.50000000000006,158.5 498.6000000000001,158.6 498.6000000000001,158.7 498.30000000000007,150.2 498.1000000000001,137.89999999999998 498.30000000000007,127.79999999999998L497.9000000000001,121.99999999999999V105.69999999999999C498.1000000000001,90.79999999999998 498.30000000000007,75.89999999999999 498.30000000000007,60.89999999999999 498.30000000000007,42.39999999999999 498.30000000000007,23.69999999999999 498.4000000000001,5.099999999999994V0.6H495.2000000000001V3.3000000000000003H495.7000000000001V5.1000000000000005C495.7000000000001,7.1000000000000005 495.8000000000001,9.2 495.8000000000001,11.3 495.8000000000001,14.3 495.8000000000001,17.4 495.90000000000015,20.5V39.2C495.90000000000015,51.300000000000004 496.00000000000017,63.400000000000006 496.40000000000015,75.2L496.00000000000017,74.4C496.20000000000016,77.4 496.20000000000016,80.60000000000001 496.3000000000002,83.80000000000001 496.3000000000002,85.60000000000001 496.4000000000002,87.4 496.4000000000002,89.30000000000001 496.5000000000002,100.70000000000002 496.1000000000002,112.60000000000001 496.4000000000002,124.00000000000001L496.2000000000002,122.90000000000002C496.1000000000002,139.00000000000003 496.2000000000002,154.60000000000002 496.30000000000024,170.00000000000003 496.30000000000024,177.30000000000004 496.2000000000002,184.60000000000002 496.30000000000024,191.90000000000003 496.2000000000002,208.00000000000003 496.5000000000002,218.80000000000004 496.5000000000002,235.00000000000003L496.10000000000025,235.40000000000003C497.5000000000002,262.6 494.90000000000026,292.50000000000006 496.40000000000026,320.80000000000007L495.90000000000026,318.80000000000007C496.7000000000003,323.20000000000005 495.60000000000025,335.9000000000001 496.90000000000026,334.30000000000007L496.5000000000003,339.30000000000007C498.2000000000003,358.5000000000001 495.7000000000003,374.30000000000007 496.8000000000003,397.9000000000001L496.5000000000003,396.4000000000001C496.7000000000003,402.70000000000016 496.90000000000026,410.0000000000001 496.6000000000003,414.60000000000014 496.6000000000003,413.9000000000001 496.5000000000003,414.20000000000016 496.4000000000003,412.70000000000016 495.20000000000033,432.3000000000001 496.50000000000034,454.2000000000001 496.50000000000034,475.0000000000001L495.9000000000003,472.60000000000014C496.1000000000003,475.60000000000014 496.20000000000033,479.5000000000001 496.20000000000033,483.70000000000016V496.40000000000015C495.9000000000003,496.40000000000015 495.70000000000033,496.3000000000001 495.30000000000035,496.3000000000001L495.10000000000036,496.40000000000015 494.2000000000004,496.8000000000001H493.60000000000036C492.00000000000034,496.40000000000015 492.30000000000035,496.60000000000014 491.60000000000036,496.2000000000001 483.4000000000004,496.1000000000001 482.30000000000035,495.3000000000001 476.50000000000034,494.9000000000001 476.50000000000034,494.9000000000001 476.60000000000036,494.9000000000001 476.50000000000034,495.0000000000001 472.50000000000034,495.7000000000001 467.00000000000034,495.3000000000001 463.80000000000035,495.2000000000001L462.50000000000034,494.9000000000001C460.60000000000036,494.2000000000001 453.20000000000033,496.2000000000001 455.70000000000033,495.1000000000001 439.1000000000003,495.4000000000001 420.1000000000003,495.4000000000001 401.60000000000036,495.4000000000001 399.00000000000034,495.9000000000001 387.4000000000003,495.4000000000001 391.50000000000034,496.2000000000001 386.9000000000003,495.2000000000001 373.10000000000036,495.0000000000001 368.00000000000034,495.0000000000001 368.2000000000003,494.9000000000001 368.4000000000003,494.8000000000001 369.2000000000003,494.8000000000001 359.3000000000003,493.5000000000001 357.4000000000003,496.0000000000001 348.10000000000025,494.40000000000015 346.60000000000025,495.50000000000017 331.2000000000003,494.10000000000014 325.90000000000026,495.3000000000001 324.80000000000024,495.10000000000014 324.40000000000026,494.8000000000001 324.80000000000024,494.7000000000001 308.0000000000002,494.5000000000001 289.5000000000002,494.4000000000001 275.40000000000026,494.2000000000001 263.30000000000024,495.2000000000001 246.10000000000025,493.8000000000001 235.60000000000025,495.1000000000001 227.00000000000026,494.80000000000007 213.00000000000026,494.30000000000007 201.00000000000026,494.80000000000007L202.20000000000024,494.6000000000001C188.60000000000025,494.7000000000001 171.60000000000025,494.7000000000001 162.30000000000024,495.6000000000001 158.30000000000024,494.30000000000007 152.40000000000023,494.6000000000001 146.50000000000023,494.2000000000001 137.40000000000023,494.8000000000001 119.10000000000022,494.6000000000001 105.20000000000023,495.2000000000001 103.10000000000024,494.6000000000001 93.80000000000022,495.5000000000001 93.10000000000024,494.6000000000001 79.20000000000023,495.2000000000001 64.20000000000024,495.50000000000006 48.70000000000024,495.6000000000001H25.2L13.399999999999999,495.50000000000006 7.499999999999998,495.40000000000003H4.7L3.7,495.3H3.9000000000000004C4.2,484.1 4.5,473.1 4.7,462.5 4.5,460.6 4.3,458.7 4,456.7 3.8,443.7 3.7,429.3 3.7,414.9 3.8000000000000003,411.6 3.9000000000000004,408.20000000000005 3.7,404.70000000000005V402.5L3.9000000000000004,402 4,396.6C4.1,396.70000000000005 4.3,396.70000000000005 4.4,397.1V398.20000000000005 397.20000000000005C4.5,397.5000000000001 4.6000000000000005,397.9000000000001 4.6000000000000005,398.5000000000001V370.30000000000007C4.7,370.5000000000001 4.800000000000001,370.70000000000005 4.7,371.4000000000001 5.6000000000000005,364.20000000000016 4.6000000000000005,361.20000000000016 4.6000000000000005,356.60000000000014V355.70000000000016C4.6000000000000005,354.10000000000014 4.800000000000001,352.4000000000001 5.1000000000000005,350.20000000000016 4.1000000000000005,348.9000000000001 5.2,335.5000000000001 4.4,329.3000000000001V327.10000000000014C4.6000000000000005,326.70000000000016 4.7,326.5000000000001 4.800000000000001,326.8000000000001 5.000000000000001,310.0000000000001 5.1000000000000005,291.40000000000015 5.300000000000001,277.10000000000014 4.300000000000001,264.90000000000015 5.700000000000001,247.60000000000014 4.4,237.20000000000013 4.7,228.50000000000014 5.2,214.50000000000014 4.7,202.40000000000015L4.9,203.60000000000014C4.800000000000001,189.90000000000015 4.800000000000001,172.90000000000015 3.9000000000000004,163.50000000000014 5.2,159.50000000000014 4.9,153.60000000000014 5.300000000000001,147.70000000000013 4.700000000000001,138.60000000000014 4.9,120.20000000000013 4.300000000000001,106.30000000000013 4.9,104.20000000000013 4.1000000000000005,94.80000000000013 4.9,94.10000000000012 4.300000000000001,80.20000000000012 4,65.10000000000012 3.9000000000000004,49.50000000000012V25.9L4,14.1L4.1,8.2V5.4L4.199999999999999,4.4H5.199999999999999C16.7,4.7 28,5 38.900000000000006,5.300000000000001 44.10000000000001,4.800000000000001 50.00000000000001,3.8000000000000007 55.300000000000004,3.2000000000000006 55.800000000000004,3.3000000000000007 55.800000000000004,3.400000000000001 54.6,3.400000000000001 62.2,3.2000000000000006 69.2,4.1000000000000005 76.8,3.900000000000001 76.7,4.000000000000001 76.7,4.000000000000001 75.5,4.200000000000001 82.6,3.800000000000001 90.1,4.900000000000001 98.5,4.200000000000001L99,4.400000000000001 104.3,4.100000000000001C104.2,4.300000000000002 104,4.700000000000001 102.39999999999999,4.700000000000001 167,5.000000000000001 233.59999999999997,3.600000000000001 299.9,3.800000000000001L297.4,4.100000000000001 310.29999999999995,3.6000000000000014C310.19999999999993,3.7000000000000015 309.59999999999997,3.8000000000000016 308.99999999999994,3.9000000000000012 325.49999999999994,4.400000000000001 342.6,3.6000000000000014 358.6,3.700000000000001 358.5,3.800000000000001 356.1,4.100000000000001 358.29999999999995,4.300000000000001 370.19999999999993,3.500000000000001 377.4,5.300000000000001 383.29999999999995,3.7000000000000006 383.9,3.8000000000000007 384.19999999999993,4.1000000000000005 383,4.300000000000001 416.1,3.8000000000000007 449.99999999999994,3.8000000000000007 483.29999999999995,4.1000000000000005 487.09999999999997,3.9000000000000004 491.09999999999997,3.8000000000000007 495.09999999999997,3.6000000000000005V0.8C473.2,0.7 451.2,0.7 429.2,0.6C359.1,0.19999999999999996 297.7,-0.7999999999999999 229.39999999999998,1.1 229.49999999999997,1 228.89999999999998,0.9000000000000001 230.7,0.8 211,1.1 193.1,0.6000000000000001 174.5,0.9L174.6,0.8C128.8,1.9000000000000001 79,0.6000000000000001 34.599999999999994,1.8H1.5999999999999943V5.4C1.5999999999999943,16 1.6999999999999944,26.799999999999997 1.6999999999999944,37.699999999999996 0.6999999999999944,74.1 0.9999999999999944,110 1.6999999999999944,146.2 2.1999999999999944,190.89999999999998 0.7999999999999944,234.2 1.1999999999999944,278.79999999999995 0.6999999999999944,312.9 1.7999999999999945,348.29999999999995 2.0999999999999943,383.4 1.6999999999999944,396.5 1.1999999999999944,410 1.2999999999999943,423.5L1.5999999999999943,422.5C1.1999999999999944,426.4 1.2999999999999943,430.7 1.5999999999999943,434.8 1.4999999999999942,439.6 1.4999999999999942,444.5 1.5999999999999943,449.40000000000003 1.5999999999999943,449.50000000000006 1.5999999999999943,449.70000000000005 1.4999999999999942,449.8L1.3999999999999941,448.8C1.099999999999994,450.7 1.299999999999994,452.90000000000003 1.599999999999994,455.1 1.599999999999994,457 1.6999999999999942,458.8 1.6999999999999942,460.70000000000005L1.9999999999999942,476.1C1.7999999999999943,480 2.7999999999999945,489.70000000000005 1.2999999999999943,490 1.2999999999999943,486.6 0.5999999999999943,495.3 0.19999999999999418,487.7 0.09999999999999418,488.59999999999997 0.09999999999999418,490.8 0.09999999999999418,493.09999999999997 0.09999999999999418,493.79999999999995 0.19999999999999418,494.49999999999994 0.19999999999999418,495.09999999999997 0.29999999999999416,496.49999999999994 0.49999999999999417,497.49999999999994 0.6999999999999942,497.2 1.4999999999999942,498 2.0999999999999943,501.5 2.699999999999994,496.7H4.899999999999994C7.299999999999994,496.7 9.699999999999994,496.7 12.099999999999994,496.8 15.399999999999995,496.90000000000003 18.599999999999994,497 21.599999999999994,497.1 78.19999999999999,499.20000000000005 133,497.90000000000003 189.6,496.6 237.6,497.3 285.6,495.70000000000005 332.29999999999995,496.70000000000005 306.49999999999994,496.90000000000003 280.99999999999994,497.30000000000007 254.39999999999995,497.6 254.99999999999994,497.5 255.29999999999995,497.40000000000003 255.89999999999995,497.3 253.89999999999995,497.5 251.69999999999996,497.8 249.39999999999995,497.7 248.79999999999995,497.59999999999997 249.99999999999994,497.5 250.79999999999995,497.4 241.99999999999994,496.59999999999997 225.09999999999997,497.9 219.59999999999997,497.29999999999995 217.09999999999997,497.4 215.99999999999997,497.69999999999993 217.39999999999998,497.99999999999994 184.99999999999997,498.19999999999993 150.29999999999998,498.3999999999999 117.19999999999997,498.99999999999994 115.59999999999998,498.8999999999999 115.29999999999997,498.69999999999993 115.79999999999997,498.3999999999999 87.59999999999997,499.69999999999993 57.99999999999997,499.19999999999993 29.099999999999966,498.99999999999994 27.999999999999964,499.29999999999995 31.999999999999964,499.3999999999999 29.199999999999967,499.69999999999993 38.49999999999997,500.0999999999999 46.19999999999997,498.8999999999999 54.599999999999966,499.49999999999994L53.499999999999964,499.79999999999995C59.599999999999966,499.99999999999994 54.69999999999997,498.99999999999994 61.099999999999966,499.4 63.599999999999966,499.7 60.499999999999964,499.79999999999995 61.599999999999966,499.9 74.59999999999997,499.79999999999995 88.19999999999996,500.09999999999997 100.49999999999997,499.29999999999995 103.49999999999997,499.99999999999994 114.49999999999997,499.29999999999995 119.29999999999997,499.99999999999994 122.69999999999997,499.69999999999993 125.99999999999997,499.79999999999995 127.29999999999997,499.29999999999995 172.89999999999998,499.69999999999993 219.49999999999997,498.99999999999994 266.2,498.99999999999994 288.09999999999997,497.59999999999997 314.2,499.29999999999995 340.20000000000005,498.79999999999995 340.4,498.79999999999995 340.30000000000007,498.9 340.20000000000005,498.9 348.70000000000005,498.59999999999997 361,498.4 371.1,498.59999999999997L379.70000000000005,497.99999999999994C399,498.3999999999999 418.5,498.59999999999997 438,498.59999999999997H488.3C488,498.7 487.1,498.79999999999995 485.2,498.9 486.7,499 492.4,499 495.2,498.7 495.59999999999997,498.7 496,498.59999999999997 496.3,498.59999999999997H498.3V497.4C498.90000000000003,497.09999999999997 497.8,497.2 498.3,496.59999999999997V472.49999999999994C498.7,473.99999999999994 498.1,478.99999999999994 498.8,478.29999999999995 499.1,474.79999999999995 498.6,473.29999999999995 498.3,472.49999999999994 498.3,458.19999999999993 498.40000000000003,443.79999999999995 498.40000000000003,429.49999999999994 498.50000000000006,420.3999999999999 498.50000000000006,411.4 498.6,402.5 499.1,424.69999999999993 498.70000000000005,447.3999999999999 498.6,469.69999999999993 498.90000000000003,470.79999999999995 499,466.79999999999995 499.3,469.5999999999999 499.7,460.2999999999999 498.5,452.5999999999999 499.1,444.19999999999993L499.40000000000003,445.29999999999995C499.6,439.19999999999993 498.6,444.09999999999997 499.00000000000006,437.69999999999993 499.40000000000003,435.3999999999999 499.50000000000006,438.5999999999999 499.6000000000001,437.3999999999999ZM462.40000000000003,496.5H464.6C464.1,496.4 463.40000000000003,496.4 462.40000000000003,496.5Z" fill="#000"></path></svg>